<svg width="6" height="4" viewBox="0 0 6 4" fill="none" xmlns="http://www.w3.org/2000/svg">
<path d="M0.564612 0.779225C0.5204 0.738027 0.484938 0.688347 0.460343 0.633148C0.435748 0.577948 0.422523 0.51836 0.421457 0.457938C0.420391 0.397517 0.431505 0.337499 0.454138 0.281466C0.476771 0.225433 0.510457 0.174533 0.553189 0.131802C0.59592 0.0890707 0.64682 0.055384 0.702853 0.0327513C0.758886 0.0101187 0.818904 -0.000996038 0.879325 7.00327e-05C0.939747 0.0011361 0.999335 0.0143612 1.05453 0.0389563C1.10973 0.0635515 1.15941 0.0990129 1.20061 0.143225L3.00421 1.94622L4.80721 0.143225C4.84841 0.0990129 4.89809 0.0635515 4.95329 0.0389563C5.00849 0.0143612 5.06808 0.0011361 5.1285 7.00327e-05C5.18892 -0.000996038 5.24894 0.0101187 5.30497 0.0327513C5.361 0.055384 5.4119 0.0890707 5.45464 0.131802C5.49737 0.174533 5.53105 0.225433 5.55369 0.281466C5.57632 0.337499 5.58743 0.397517 5.58637 0.457938C5.5853 0.51836 5.57208 0.577948 5.54748 0.633148C5.52289 0.688347 5.48742 0.738027 5.44321 0.779225L3.31381 2.90922C3.26581 2.95719 3.20758 2.99368 3.14349 3.01596C3.07939 3.03825 3.01108 3.04574 2.94368 3.0379C2.87628 3.03005 2.81152 3.00706 2.75426 2.97064C2.69699 2.93423 2.64871 2.88534 2.61301 2.82762L0.564612 0.779225Z" fill="#2E3B58"/>
</svg>
