<svg width="12" height="12" viewBox="0 0 12 12" fill="none" xmlns="http://www.w3.org/2000/svg">
<path d="M2.4002 1.2H9.60019C9.91845 1.2 10.2237 1.32643 10.4487 1.55147C10.6738 1.77651 10.8002 2.08174 10.8002 2.4V9.6C10.8002 9.91826 10.6738 10.2235 10.4487 10.4485C10.2237 10.6736 9.91845 10.8 9.60019 10.8H2.4002C2.08194 10.8 1.77671 10.6736 1.55167 10.4485C1.32662 10.2235 1.2002 9.91826 1.2002 9.6V2.4C1.2002 2.08174 1.32662 1.77651 1.55167 1.55147C1.77671 1.32643 2.08194 1.2 2.4002 1.2ZM7.42819 6.7572H4.5722L6.0002 3.3036L7.42819 6.7572ZM7.74739 7.5282L8.6042 9.6H9.45979L6.48259 2.4H5.5178L2.5406 9.6H3.3962L4.253 7.5282H7.74739Z" fill="#2E3B58"/>
</svg>
