<svg width="12" height="14" viewBox="0 0 12 14" fill="none" xmlns="http://www.w3.org/2000/svg">
<path d="M6.187 14H1.773C1.136 14 0.681 13.862 0.409 13.585C0.136 13.308 0 12.867 0 12.262V1.738C0 1.121 0.14 0.676 0.419 0.406C0.698 0.136 1.149 0 1.773 0H6.453C7.143 0 7.741 0.0410001 8.246 0.124C8.752 0.207 9.206 0.366 9.606 0.602C9.947 0.799 10.25 1.049 10.512 1.352C11.0358 1.95012 11.3231 2.71895 11.32 3.514C11.32 4.915 10.598 5.94 9.153 6.589C11.05 7.175 12 8.315 12 10.01C12.0086 10.7561 11.7948 11.4878 11.3859 12.1118C10.977 12.7359 10.3915 13.224 9.704 13.514C9.21659 13.7042 8.70674 13.8309 8.187 13.891C7.616 13.964 6.949 14.001 6.187 14.001V14ZM5.97 7.783H3V11.87H6.069C8.046 11.87 9.034 11.18 9.034 9.798C9.034 9.091 8.778 8.578 8.266 8.261C7.754 7.942 6.989 7.783 5.97 7.783ZM3 2.13V5.749H5.606C6.335 5.749 6.898 5.682 7.296 5.549C7.68633 5.42034 8.01218 5.14641 8.206 4.784C8.371 4.517 8.453 4.218 8.453 3.887C8.453 3.18 8.193 2.711 7.675 2.478C7.156 2.246 6.365 2.13 5.3 2.13H3Z" fill="#2E3B58"/>
</svg>
