<svg width="12" height="12" viewBox="0 0 12 12" fill="none" xmlns="http://www.w3.org/2000/svg">
<path d="M6.1121 10.2H3.4637C3.0815 10.2 2.8085 10.1172 2.6453 9.951C2.4815 9.7848 2.3999 9.5202 2.3999 9.1572V2.8428C2.3999 2.4726 2.4839 2.2056 2.6513 2.0436C2.8187 1.8816 3.0893 1.8 3.4637 1.8H6.2717C6.6857 1.8 7.0445 1.8246 7.3475 1.8744C7.6511 1.9242 7.9235 2.0196 8.1635 2.1612C8.3681 2.2794 8.5499 2.4294 8.7071 2.6112C9.02139 2.97007 9.19379 3.43137 9.1919 3.9084C9.1919 4.749 8.7587 5.364 7.8917 5.7534C9.0299 6.105 9.5999 6.789 9.5999 7.806C9.60506 8.25363 9.47678 8.69266 9.23143 9.0671C8.98608 9.44154 8.63477 9.73442 8.2223 9.9084C7.92986 10.0225 7.62395 10.0985 7.3121 10.1346C6.9695 10.1784 6.5693 10.2006 6.1121 10.2006V10.2ZM5.9819 6.4698H4.1999V8.922H6.0413C7.2275 8.922 7.8203 8.508 7.8203 7.6788C7.8203 7.2546 7.6667 6.9468 7.3595 6.7566C7.0523 6.5652 6.5933 6.4698 5.9819 6.4698ZM4.1999 3.078V5.2494H5.7635C6.2009 5.2494 6.5387 5.2092 6.7775 5.1294C7.0117 5.05221 7.20721 4.88785 7.3235 4.6704C7.4225 4.5102 7.4717 4.3308 7.4717 4.1322C7.4717 3.708 7.3157 3.4266 7.0049 3.2868C6.6935 3.1476 6.2189 3.078 5.5799 3.078H4.1999Z" fill="#2E3B58"/>
</svg>
