<svg width="12" height="12" viewBox="0 0 12 12" fill="none" xmlns="http://www.w3.org/2000/svg">
<path d="M10.4914 3.74987C10.6622 3.74987 10.8008 3.54827 10.8008 3.29987C10.8008 3.18052 10.7682 3.06606 10.7102 2.98167C10.6521 2.89728 10.5735 2.84987 10.4914 2.84987H4.51016C4.42811 2.84987 4.34941 2.89728 4.2914 2.98167C4.23338 3.06606 4.20078 3.18052 4.20078 3.29987C4.20078 3.41922 4.23338 3.53368 4.2914 3.61807C4.34941 3.70246 4.42811 3.74987 4.51016 3.74987H10.4914Z" fill="#2E3B58"/>
<circle cx="2.1002" cy="3.2999" r="0.9" fill="#2E3B58"/>
<path d="M10.4914 9.14991C10.6622 9.14991 10.8008 8.94831 10.8008 8.69991C10.8008 8.58056 10.7682 8.4661 10.7102 8.38171C10.6521 8.29732 10.5735 8.24991 10.4914 8.24991H4.51016C4.42811 8.24991 4.34941 8.29732 4.2914 8.38171C4.23338 8.4661 4.20078 8.58056 4.20078 8.69991C4.20078 8.81926 4.23338 8.93372 4.2914 9.01811C4.34941 9.1025 4.42811 9.14991 4.51016 9.14991H10.4914Z" fill="#2E3B58"/>
<circle cx="2.1002" cy="8.70006" r="0.9" fill="#2E3B58"/>
</svg>
