<svg width="20" height="20" viewBox="0 0 20 20" fill="none" xmlns="http://www.w3.org/2000/svg">
<path d="M17.4844 6.25C17.769 6.25 18 5.914 18 5.5C18 5.30109 17.9457 5.11032 17.849 4.96967C17.7523 4.82902 17.6211 4.75 17.4844 4.75H7.51562C7.37887 4.75 7.24772 4.82902 7.15102 4.96967C7.05432 5.11032 7 5.30109 7 5.5C7 5.69891 7.05432 5.88968 7.15102 6.03033C7.24772 6.17098 7.37887 6.25 7.51562 6.25H17.4844Z" fill="#2E3B58"/>
<circle cx="3.5" cy="5.5" r="1.5" fill="#2E3B58"/>
<path d="M17.4844 15.25C17.769 15.25 18 14.914 18 14.5C18 14.3011 17.9457 14.1103 17.849 13.9697C17.7523 13.829 17.6211 13.75 17.4844 13.75H7.51562C7.37887 13.75 7.24772 13.829 7.15102 13.9697C7.05432 14.1103 7 14.3011 7 14.5C7 14.6989 7.05432 14.8897 7.15102 15.0303C7.24772 15.171 7.37887 15.25 7.51562 15.25H17.4844Z" fill="#2E3B58"/>
<circle cx="3.5" cy="14.5" r="1.5" fill="#2E3B58"/>
</svg>
