<svg width="8" height="8" viewBox="0 0 8 8" fill="none" xmlns="http://www.w3.org/2000/svg">
<path fill-rule="evenodd" clip-rule="evenodd" d="M4.94283 4L7.80483 1.138C8.0655 0.877332 8.0655 0.455999 7.80483 0.195332C7.54417 -0.0653345 7.12283 -0.0653345 6.86217 0.195332L4.00017 3.05733L1.13817 0.195332C0.8775 -0.0653345 0.456167 -0.0653345 0.1955 0.195332C-0.0651667 0.455999 -0.0651667 0.877332 0.1955 1.138L3.0575 4L0.1955 6.862C-0.0651667 7.12267 -0.0651667 7.544 0.1955 7.80467C0.3255 7.93467 0.496167 8 0.666833 8C0.8375 8 1.00817 7.93467 1.13817 7.80467L4.00017 4.94267L6.86217 7.80467C6.99217 7.93467 7.16283 8 7.3335 8C7.50417 8 7.67483 7.93467 7.80483 7.80467C8.0655 7.544 8.0655 7.12267 7.80483 6.862L4.94283 4Z" fill="#2E3B58"/>
</svg>
