<svg width="12" height="12" viewBox="0 0 12 12" fill="none" xmlns="http://www.w3.org/2000/svg">
<path fill-rule="evenodd" clip-rule="evenodd" d="M9.89971 6.00001C9.89971 8.15392 8.15362 9.90001 5.99971 9.90001C3.8458 9.90001 2.09971 8.15392 2.09971 6.00001C2.09971 3.8461 3.8458 2.10001 5.99971 2.10001C8.15362 2.10001 9.89971 3.8461 9.89971 6.00001ZM10.7997 6.00001C10.7997 8.65098 8.65067 10.8 5.99971 10.8C3.34874 10.8 1.19971 8.65098 1.19971 6.00001C1.19971 3.34905 3.34874 1.20001 5.99971 1.20001C8.65067 1.20001 10.7997 3.34905 10.7997 6.00001ZM4.1998 6.00001C4.53117 6.00001 4.7998 5.73139 4.7998 5.40001C4.7998 5.06864 4.53117 4.80001 4.1998 4.80001C3.86843 4.80001 3.5998 5.06864 3.5998 5.40001C3.5998 5.73139 3.86843 6.00001 4.1998 6.00001ZM8.39971 5.40001C8.39971 5.73139 8.13108 6.00001 7.79971 6.00001C7.46834 6.00001 7.19971 5.73139 7.19971 5.40001C7.19971 5.06864 7.46834 4.80001 7.79971 4.80001C8.13108 4.80001 8.39971 5.06864 8.39971 5.40001ZM4.45045 6.82564C4.24366 6.68778 3.96427 6.74366 3.82641 6.95045C3.68856 7.15724 3.74443 7.43663 3.95122 7.57449C5.19237 8.40192 6.8093 8.40192 8.05045 7.57449C8.25724 7.43663 8.31312 7.15724 8.17526 6.95045C8.0374 6.74366 7.75801 6.68778 7.55122 6.82564C6.61238 7.45153 5.38929 7.45153 4.45045 6.82564Z" fill="#2E3B58"/>
</svg>
