<svg width="20" height="20" viewBox="0 0 20 20" fill="none" xmlns="http://www.w3.org/2000/svg">
<path fill-rule="evenodd" clip-rule="evenodd" d="M16.5 10C16.5 13.5899 13.5899 16.5 10 16.5C6.41015 16.5 3.5 13.5899 3.5 10C3.5 6.41015 6.41015 3.5 10 3.5C13.5899 3.5 16.5 6.41015 16.5 10ZM18 10C18 14.4183 14.4183 18 10 18C5.58172 18 2 14.4183 2 10C2 5.58172 5.58172 2 10 2C14.4183 2 18 5.58172 18 10ZM7 10C7.55228 10 8 9.55228 8 9C8 8.44772 7.55228 8 7 8C6.44772 8 6 8.44772 6 9C6 9.55228 6.44772 10 7 10ZM14 9C14 9.55228 13.5523 10 13 10C12.4477 10 12 9.55228 12 9C12 8.44772 12.4477 8 13 8C13.5523 8 14 8.44772 14 9ZM7.4161 11.376C7.07146 11.1462 6.60581 11.2393 6.37604 11.584C6.14628 11.9286 6.23941 12.3943 6.58405 12.6241C8.65263 14.0031 11.3475 14.0031 13.4161 12.6241C13.7608 12.3943 13.8539 11.9286 13.6241 11.584C13.3944 11.2393 12.9287 11.1462 12.5841 11.376C11.0193 12.4191 8.98083 12.4191 7.4161 11.376Z" fill="#2E3B58"/>
</svg>
