<svg width="16" height="14" viewBox="0 0 16 14" fill="none" xmlns="http://www.w3.org/2000/svg">
<path d="M7.93653 8.29437L5.6167 2.55352L3.2977 8.29437H7.93653V8.29437ZM8.45428 9.57676H2.77996L1.38873 13.0204H0L4.83424 1.05141H6.4L11.2342 13.0204H9.84551L8.45428 9.57676ZM14.7591 11.5251L15.4096 10.8592L16 11.4636L14.1086 13.4L12.2772 11.4636L12.8676 10.8592L13.5065 11.5132V2.58772C13.5065 2.55181 13.5065 2.51676 13.5081 2.48256L12.8651 3.14086L12.2747 2.53642L14.1086 0.600006L16 2.53642L15.4096 3.14086L14.7566 2.4723C14.7582 2.50906 14.7591 2.54839 14.7591 2.58772V11.5251Z" fill="#2E3B58"/>
</svg>
