<svg width="12" height="12" viewBox="0 0 12 12" fill="none" xmlns="http://www.w3.org/2000/svg">
<path d="M5.96212 6.77662L4.57022 3.33211L3.17882 6.77662H5.96212V6.77662ZM6.27276 7.54606H2.86817L2.03343 9.61225H1.2002L4.10074 2.43085H5.04019L7.94074 9.61225H7.1075L6.27276 7.54606ZM10.0556 8.71509L10.446 8.31549L10.8002 8.67815L9.66533 9.84L8.56654 8.67815L8.92078 8.31549L9.30408 8.70791V3.35263C9.30408 3.33109 9.30408 3.31005 9.30508 3.28954L8.91928 3.68451L8.56504 3.32185L9.66533 2.16L10.8002 3.32185L10.446 3.68451L10.0541 3.28338C10.0551 3.30544 10.0556 3.32903 10.0556 3.35263V8.71509Z" fill="#2E3B58"/>
</svg>
