<svg width="12" height="14" viewBox="0 0 12 14" fill="none" xmlns="http://www.w3.org/2000/svg">
<path d="M5.58598 11.633L5.60698 11.637C5.57098 11.972 5.70198 12.292 5.99998 12.599C6.08198 12.682 6.17298 12.749 6.27398 12.8H7.74798C7.90711 12.8 8.05972 12.8632 8.17224 12.9757C8.28477 13.0883 8.34798 13.2409 8.34798 13.4C8.34798 13.5591 8.28477 13.7117 8.17224 13.8243C8.05972 13.9368 7.90711 14 7.74798 14H1.30398C1.14485 14 0.992237 13.9368 0.879715 13.8243C0.767194 13.7117 0.703979 13.5591 0.703979 13.4C0.703979 13.2409 0.767194 13.0883 0.879715 12.9757C0.992237 12.8632 1.14485 12.8 1.30398 12.8H2.45398C2.92798 12.73 3.26298 12.618 3.45898 12.466C3.61598 12.344 3.74998 12.146 3.86298 11.869L6.27898 2.319C6.29345 2.16972 6.27587 2.01907 6.22741 1.87714C6.17895 1.7352 6.10073 1.60526 5.99798 1.496C5.87656 1.36327 5.72495 1.26174 5.55598 1.2H4.14998C3.99085 1.2 3.83824 1.13679 3.72572 1.02426C3.61319 0.911742 3.54998 0.75913 3.54998 0.6C3.54998 0.44087 3.61319 0.288258 3.72572 0.175736C3.83824 0.0632141 3.99085 0 4.14998 0H10.593C10.7521 0 10.9047 0.0632141 11.0172 0.175736C11.1298 0.288258 11.193 0.44087 11.193 0.6C11.193 0.75913 11.1298 0.911742 11.0172 1.02426C10.9047 1.13679 10.7521 1.2 10.593 1.2H9.39798C9.02198 1.256 8.74798 1.355 8.57498 1.496C8.35998 1.671 8.15198 1.935 7.95198 2.286L5.58598 11.633Z" fill="#2E3B58"/>
</svg>
