<svg width="12" height="12" viewBox="0 0 12 12" fill="none" xmlns="http://www.w3.org/2000/svg">
<path d="M5.75147 8.7798L5.76407 8.7822C5.74247 8.9832 5.82107 9.1752 5.99987 9.3594C6.04907 9.4092 6.10367 9.4494 6.16427 9.48H7.04867C7.14414 9.48 7.23571 9.51793 7.30322 9.58544C7.37074 9.65296 7.40867 9.74453 7.40867 9.84C7.40867 9.93548 7.37074 10.027 7.30322 10.0946C7.23571 10.1621 7.14414 10.2 7.04867 10.2H3.18227C3.08679 10.2 2.99522 10.1621 2.92771 10.0946C2.86019 10.027 2.82227 9.93548 2.82227 9.84C2.82227 9.74453 2.86019 9.65296 2.92771 9.58544C2.99522 9.51793 3.08679 9.48 3.18227 9.48H3.87227C4.15667 9.438 4.35767 9.3708 4.47527 9.2796C4.56947 9.2064 4.64987 9.0876 4.71767 8.9214L6.16727 3.1914C6.17595 3.10184 6.1654 3.01145 6.13632 2.92628C6.10725 2.84112 6.06031 2.76316 5.99867 2.6976C5.92581 2.61796 5.83485 2.55705 5.73347 2.52H4.88987C4.79439 2.52 4.70282 2.48207 4.63531 2.41456C4.56779 2.34705 4.52987 2.25548 4.52987 2.16C4.52987 2.06453 4.56779 1.97296 4.63531 1.90544C4.70282 1.83793 4.79439 1.8 4.88987 1.8H8.75567C8.85114 1.8 8.94271 1.83793 9.01023 1.90544C9.07774 1.97296 9.11567 2.06453 9.11567 2.16C9.11567 2.25548 9.07774 2.34705 9.01023 2.41456C8.94271 2.48207 8.85114 2.52 8.75567 2.52H8.03867C7.81307 2.5536 7.64867 2.613 7.54487 2.6976C7.41587 2.8026 7.29107 2.961 7.17107 3.1716L5.75147 8.7798Z" fill="#2E3B58"/>
</svg>
