<svg width="12" height="12" viewBox="0 0 12 12" fill="none" xmlns="http://www.w3.org/2000/svg">
<path d="M10.7314 2.48915C10.775 2.41985 10.8002 2.33785 10.8002 2.25C10.8002 2.13066 10.7528 2.0162 10.6684 1.9318C10.584 1.84741 10.4695 1.8 10.3502 1.8H1.6502C1.53085 1.8 1.41639 1.84741 1.332 1.9318C1.24761 2.0162 1.2002 2.13066 1.2002 2.25C1.2002 2.33785 1.22541 2.41985 1.269 2.48915C1.28682 2.51756 1.3079 2.54411 1.332 2.5682C1.35609 2.5923 1.38264 2.61338 1.41105 2.6312C1.47593 2.6719 1.55053 2.69561 1.62788 2.69945C1.6353 2.69982 1.64274 2.7 1.6502 2.7H10.3502C10.438 2.7 10.52 2.67479 10.5893 2.6312C10.6178 2.61338 10.6443 2.5923 10.6684 2.5682C10.6925 2.54411 10.7136 2.51756 10.7314 2.48915Z" fill="#2E3B58"/>
<path d="M10.8 7.06161C10.8001 7.05775 10.8002 7.05388 10.8002 7.05C10.8002 6.99033 10.7883 6.93188 10.7659 6.8778C10.7645 6.87442 10.7631 6.87105 10.7616 6.86771C10.7394 6.81753 10.708 6.77136 10.6684 6.73181C10.6262 6.68961 10.5765 6.65666 10.5224 6.63426C10.5156 6.63146 10.5088 6.62882 10.5019 6.62635C10.4537 6.60908 10.4024 6.6 10.3502 6.6H1.6502C1.5911 6.6 1.53258 6.61164 1.47799 6.63426C1.42339 6.65687 1.37378 6.69002 1.332 6.73181C1.29021 6.77359 1.25706 6.8232 1.23445 6.8778C1.21184 6.93239 1.2002 6.99091 1.2002 7.05C1.2002 7.05728 1.20037 7.06455 1.20072 7.07181C1.20458 7.15245 1.22968 7.22755 1.27057 7.29163C1.28815 7.31925 1.30873 7.34494 1.332 7.3682C1.35526 7.39146 1.38095 7.41205 1.40857 7.42963C1.47548 7.47233 1.55441 7.49782 1.63912 7.49987C1.64281 7.49996 1.6465 7.5 1.6502 7.5H10.3502C10.3552 7.5 10.3601 7.49992 10.3651 7.49976C10.4483 7.49705 10.5259 7.47168 10.5918 7.42963C10.6194 7.41205 10.6451 7.39146 10.6684 7.3682C10.6917 7.34494 10.7122 7.31925 10.7298 7.29163C10.7724 7.22486 10.7979 7.14612 10.8 7.06161Z" fill="#2E3B58"/>
<path d="M10.3502 9.9C10.5986 9.9 10.8002 9.6984 10.8002 9.45C10.8002 9.33066 10.7528 9.2162 10.6684 9.13181C10.584 9.04741 10.4695 9 10.3502 9H1.6502C1.53085 9 1.41639 9.04741 1.332 9.13181C1.24761 9.2162 1.2002 9.33066 1.2002 9.45C1.2002 9.6984 1.4018 9.9 1.6502 9.9H10.3502Z" fill="#2E3B58"/>
<path d="M10.3502 5.1C10.5986 5.1 10.8002 4.8984 10.8002 4.65C10.8002 4.53066 10.7528 4.4162 10.6684 4.3318C10.584 4.24741 10.4695 4.2 10.3502 4.2H1.6502C1.53085 4.2 1.41639 4.24741 1.332 4.3318C1.24761 4.4162 1.2002 4.53066 1.2002 4.65C1.2002 4.8984 1.4018 5.1 1.6502 5.1H10.3502Z" fill="#2E3B58"/>
</svg>
