<svg width="20" height="20" viewBox="0 0 20 20" fill="none" xmlns="http://www.w3.org/2000/svg">
<path d="M17.25 4.5C17.664 4.5 18 4.164 18 3.75C18 3.55109 17.921 3.36032 17.7803 3.21967C17.6397 3.07902 17.4489 3 17.25 3H2.75C2.55109 3 2.36032 3.07902 2.21967 3.21967C2.07902 3.36032 2 3.55109 2 3.75C2 3.94891 2.07902 4.13968 2.21967 4.28033C2.36032 4.42098 2.55109 4.5 2.75 4.5H17.25Z" fill="#2E3B58"/>
<path d="M15.2125 8.5C15.6472 8.5 16 8.164 16 7.75C16 7.55109 15.917 7.36032 15.7694 7.21967C15.6217 7.07902 15.4214 7 15.2125 7H4.78747C4.57862 7 4.37832 7.07902 4.23065 7.21967C4.08297 7.36032 4 7.55109 4 7.75C4 7.94891 4.08297 8.13968 4.23065 8.28033C4.37832 8.42098 4.57862 8.5 4.78747 8.5H15.2125Z" fill="#2E3B58"/>
<path d="M17.25 12.5C17.664 12.5 18 12.164 18 11.75C18 11.5511 17.921 11.3603 17.7803 11.2197C17.6397 11.079 17.4489 11 17.25 11H2.75C2.65151 11 2.55398 11.0194 2.46299 11.0571C2.37199 11.0948 2.28931 11.15 2.21967 11.2197C2.15003 11.2893 2.09478 11.372 2.05709 11.463C2.0194 11.554 2 11.6515 2 11.75C2 11.8485 2.0194 11.946 2.05709 12.037C2.09478 12.128 2.15003 12.2107 2.21967 12.2803C2.28931 12.35 2.37199 12.4052 2.46299 12.4429C2.55398 12.4806 2.65151 12.5 2.75 12.5H17.25Z" fill="#2E3B58"/>
<path d="M15.2125 16.5C15.6472 16.5 16 16.164 16 15.75C16 15.5511 15.917 15.3603 15.7694 15.2197C15.6217 15.079 15.4214 15 15.2125 15H4.78747C4.57862 15 4.37832 15.079 4.23064 15.2197C4.08296 15.3603 4 15.5511 4 15.75C4 15.9489 4.08296 16.1397 4.23064 16.2803C4.37832 16.421 4.57862 16.5 4.78747 16.5H15.2125Z" fill="#2E3B58"/>
</svg>
