<svg width="16" height="14" viewBox="0 0 16 14" fill="none" xmlns="http://www.w3.org/2000/svg">
<path d="M0 0.75C0 1.164 0.336 1.5 0.75 1.5H15.25C15.4489 1.5 15.6397 1.42098 15.7803 1.28033C15.921 1.13968 16 0.948912 16 0.75C16 0.551088 15.921 0.360322 15.7803 0.21967C15.6397 0.0790175 15.4489 0 15.25 0H0.75C0.551088 0 0.360322 0.0790175 0.21967 0.21967C0.0790175 0.360322 0 0.551088 0 0.75ZM0 8.75C0 9.164 0.336 9.5 0.75 9.5H15.25C15.3485 9.5 15.446 9.4806 15.537 9.44291C15.628 9.40522 15.7107 9.34997 15.7803 9.28033C15.85 9.21069 15.9052 9.12801 15.9429 9.03701C15.9806 8.94602 16 8.84849 16 8.75C16 8.65151 15.9806 8.55398 15.9429 8.46299C15.9052 8.37199 15.85 8.28931 15.7803 8.21967C15.7107 8.15003 15.628 8.09478 15.537 8.05709C15.446 8.0194 15.3485 8 15.25 8H0.75C0.551088 8 0.360322 8.07902 0.21967 8.21967C0.0790175 8.36032 0 8.55109 0 8.75ZM0 12.75C0 13.164 0.336 13.5 0.75 13.5H10.679C10.8779 13.5 11.0687 13.421 11.2093 13.2803C11.35 13.1397 11.429 12.9489 11.429 12.75C11.429 12.5511 11.35 12.3603 11.2093 12.2197C11.0687 12.079 10.8779 12 10.679 12H0.75C0.551088 12 0.360322 12.079 0.21967 12.2197C0.0790175 12.3603 0 12.5511 0 12.75ZM0 4.75C0 5.164 0.336 5.5 0.75 5.5H10.679C10.8779 5.5 11.0687 5.42098 11.2093 5.28033C11.35 5.13968 11.429 4.94891 11.429 4.75C11.429 4.55109 11.35 4.36032 11.2093 4.21967C11.0687 4.07902 10.8779 4 10.679 4H0.75C0.551088 4 0.360322 4.07902 0.21967 4.21967C0.0790175 4.36032 0 4.55109 0 4.75Z" fill="#2E3B58"/>
</svg>
