<svg width="12" height="12" viewBox="0 0 12 12" fill="none" xmlns="http://www.w3.org/2000/svg">
<path d="M1.19971 2.24999C1.19971 2.49839 1.40131 2.69999 1.64971 2.69999H10.3497C10.4691 2.69999 10.5835 2.65258 10.6679 2.56819C10.7523 2.48379 10.7997 2.36934 10.7997 2.24999C10.7997 2.13064 10.7523 2.01618 10.6679 1.93179C10.5835 1.8474 10.4691 1.79999 10.3497 1.79999H1.64971C1.53036 1.79999 1.4159 1.8474 1.33151 1.93179C1.24712 2.01618 1.19971 2.13064 1.19971 2.24999ZM1.19971 7.04999C1.19971 7.29839 1.40131 7.49999 1.64971 7.49999H10.3497C10.4088 7.49999 10.4673 7.48835 10.5219 7.46573C10.5765 7.44312 10.6261 7.40997 10.6679 7.36819C10.7097 7.3264 10.7428 7.27679 10.7655 7.2222C10.7881 7.1676 10.7997 7.10908 10.7997 7.04999C10.7997 6.99089 10.7881 6.93238 10.7655 6.87778C10.7428 6.82318 10.7097 6.77358 10.6679 6.73179C10.6261 6.69 10.5765 6.65686 10.5219 6.63424C10.4673 6.61163 10.4088 6.59999 10.3497 6.59999H1.64971C1.53036 6.59999 1.4159 6.6474 1.33151 6.73179C1.24712 6.81618 1.19971 6.93064 1.19971 7.04999ZM1.19971 9.44999C1.19971 9.69839 1.40131 9.89999 1.64971 9.89999H7.60711C7.72645 9.89999 7.84091 9.85258 7.9253 9.76819C8.0097 9.68379 8.05711 9.56933 8.05711 9.44999C8.05711 9.33064 8.0097 9.21618 7.9253 9.13179C7.84091 9.0474 7.72645 8.99999 7.60711 8.99999H1.64971C1.53036 8.99999 1.4159 9.0474 1.33151 9.13179C1.24712 9.21618 1.19971 9.33064 1.19971 9.44999ZM1.19971 4.64999C1.19971 4.89839 1.40131 5.09999 1.64971 5.09999H7.60711C7.72645 5.09999 7.84091 5.05258 7.9253 4.96819C8.0097 4.88379 8.05711 4.76934 8.05711 4.64999C8.05711 4.53064 8.0097 4.41618 7.9253 4.33179C7.84091 4.2474 7.72645 4.19999 7.60711 4.19999H1.64971C1.53036 4.19999 1.4159 4.2474 1.33151 4.33179C1.24712 4.41618 1.19971 4.53064 1.19971 4.64999Z" fill="#2E3B58"/>
</svg>
