<svg width="12" height="12" viewBox="0 0 12 12" fill="none" xmlns="http://www.w3.org/2000/svg">
<path d="M10.3508 2.69999C10.5992 2.69999 10.8008 2.49839 10.8008 2.24999C10.8008 2.13064 10.7534 2.01618 10.669 1.93179C10.5846 1.8474 10.4701 1.79999 10.3508 1.79999H1.65078C1.53144 1.79999 1.41698 1.8474 1.33258 1.93179C1.24819 2.01618 1.20078 2.13064 1.20078 2.24999C1.20078 2.36934 1.24819 2.48379 1.33258 2.56819C1.41698 2.65258 1.53144 2.69999 1.65078 2.69999H10.3508Z" fill="#2E3B58"/>
<path d="M9.12762 5.10001C9.38843 5.10001 9.6001 4.89841 9.6001 4.65001C9.6001 4.53066 9.55032 4.41621 9.46171 4.33181C9.3731 4.24742 9.25293 4.20001 9.12762 4.20001H2.87258C2.74727 4.20001 2.62709 4.24742 2.53849 4.33181C2.44988 4.41621 2.4001 4.53066 2.4001 4.65001C2.4001 4.76936 2.44988 4.88382 2.53849 4.96821C2.62709 5.0526 2.74727 5.10001 2.87258 5.10001H9.12762Z" fill="#2E3B58"/>
<path d="M10.3508 7.49996C10.5992 7.49996 10.8008 7.29836 10.8008 7.04996C10.8008 6.93061 10.7534 6.81615 10.669 6.73176C10.5846 6.64737 10.4701 6.59996 10.3508 6.59996H1.65078C1.59169 6.59996 1.53317 6.6116 1.47858 6.63421C1.42398 6.65683 1.37437 6.68998 1.33258 6.73176C1.2908 6.77355 1.25765 6.82316 1.23504 6.87775C1.21242 6.93235 1.20078 6.99087 1.20078 7.04996C1.20078 7.10906 1.21242 7.16757 1.23504 7.22217C1.25765 7.27676 1.2908 7.32637 1.33258 7.36816C1.37437 7.40994 1.42398 7.44309 1.47858 7.46571C1.53317 7.48832 1.59169 7.49996 1.65078 7.49996H10.3508Z" fill="#2E3B58"/>
<path d="M9.12762 9.9C9.38843 9.9 9.6001 9.6984 9.6001 9.45C9.6001 9.33065 9.55032 9.21619 9.46171 9.1318C9.3731 9.04741 9.25293 9 9.12762 9H2.87258C2.74727 9 2.62709 9.04741 2.53849 9.1318C2.44988 9.21619 2.4001 9.33065 2.4001 9.45C2.4001 9.56935 2.44988 9.68381 2.53849 9.7682C2.62709 9.85259 2.74727 9.9 2.87258 9.9H9.12762Z" fill="#2E3B58"/>
</svg>
