<svg width="12" height="12" viewBox="0 0 12 12" fill="none" xmlns="http://www.w3.org/2000/svg">
<path d="M11.36 5.49998H5.11985C4.98737 5.49998 4.87992 5.61186 4.87992 5.74999V6.25001C4.87992 6.38814 4.98737 6.50002 5.11985 6.50002H11.36C11.4925 6.50002 11.5999 6.38814 11.5999 6.25001V5.74999C11.5999 5.61186 11.4925 5.49998 11.36 5.49998ZM11.36 8.00007H5.11985C4.98737 8.00007 4.87992 8.11195 4.87992 8.25007V8.75009C4.87992 8.88822 4.98737 9.0001 5.11985 9.0001H11.36C11.4925 9.0001 11.5999 8.88822 11.5999 8.75009V8.25007C11.5999 8.11195 11.4925 8.00007 11.36 8.00007ZM11.36 2.9999H5.11985C4.98737 2.9999 4.87992 3.11178 4.87992 3.24991V3.74993C4.87992 3.88806 4.98737 3.99993 5.11985 3.99993H11.36C11.4925 3.99993 11.5999 3.88806 11.5999 3.74993V3.24991C11.5999 3.11178 11.4925 2.9999 11.36 2.9999ZM3.47993 4.24994C3.73035 4.24994 3.8532 3.97946 3.67785 3.82321L2.27786 2.57317C2.22535 2.52632 2.15416 2.5 2.07993 2.5C2.0057 2.5 1.93451 2.52632 1.88201 2.57317L0.482012 3.82321C0.318738 3.96868 0.406237 4.24994 0.679936 4.24994H1.51993V7.75006H0.679936C0.429862 7.75006 0.307013 8.02054 0.482362 8.17679L1.88236 9.42683C1.93486 9.47368 2.00605 9.5 2.08028 9.5C2.15451 9.5 2.2257 9.47368 2.27821 9.42683L3.6782 8.17679C3.84113 8.03132 3.75363 7.75006 3.47993 7.75006H2.63993V4.24994H3.47993Z" fill="#2E3B58"/>
</svg>
