<svg width="16" height="10" viewBox="0 0 16 10" fill="none" xmlns="http://www.w3.org/2000/svg">
<path d="M15.6573 4.28569H6.74278C6.55353 4.28569 6.40003 4.44552 6.40003 4.64285V5.35715C6.40003 5.55448 6.55353 5.71431 6.74278 5.71431H15.6573C15.8465 5.71431 16 5.55448 16 5.35715V4.64285C16 4.44552 15.8465 4.28569 15.6573 4.28569ZM15.6573 7.85724H6.74278C6.55353 7.85724 6.40003 8.01706 6.40003 8.21439V8.9287C6.40003 9.12603 6.55353 9.28586 6.74278 9.28586H15.6573C15.8465 9.28586 16 9.12603 16 8.9287V8.21439C16 8.01706 15.8465 7.85724 15.6573 7.85724ZM15.6573 0.714144H6.74278C6.55353 0.714144 6.40003 0.873971 6.40003 1.0713V1.78561C6.40003 1.98294 6.55353 2.14276 6.74278 2.14276H15.6573C15.8465 2.14276 16 1.98294 16 1.78561V1.0713C16 0.873971 15.8465 0.714144 15.6573 0.714144ZM4.40004 2.49992C4.75779 2.49992 4.93328 2.11352 4.68279 1.8903L2.68279 0.104525C2.60778 0.0375965 2.50608 0 2.40004 0C2.294 0 2.1923 0.0375965 2.11729 0.104525L0.1173 1.8903C-0.11595 2.09812 0.00904989 2.49992 0.400049 2.49992H1.60004V7.50008H0.400049C0.0427998 7.50008 -0.1327 7.88648 0.1178 8.1097L2.11779 9.89547C2.1928 9.9624 2.2945 10 2.40054 10C2.50658 10 2.60828 9.9624 2.68329 9.89547L4.68329 8.1097C4.91603 7.90188 4.79104 7.50008 4.40004 7.50008H3.20004V2.49992H4.40004Z" fill="#2E3B58"/>
</svg>
