<svg width="12" height="12" viewBox="0 0 12 12" fill="none" xmlns="http://www.w3.org/2000/svg">
<path d="M6.64627 9L7.24087 8.1504C7.27475 8.10198 7.31784 8.06071 7.36767 8.02894C7.4175 7.99717 7.4731 7.97553 7.53129 7.96525C7.58949 7.95497 7.64914 7.95626 7.70684 7.96903C7.76453 7.9818 7.81915 8.00582 7.86757 8.0397C7.91599 8.07358 7.95726 8.11667 7.98903 8.1665C8.02079 8.21633 8.04243 8.27193 8.05271 8.33012C8.06299 8.38832 8.06171 8.44797 8.04894 8.50566C8.03616 8.56336 8.01215 8.61798 7.97827 8.6664L7.28947 9.6504C7.25484 9.69995 7.21055 9.74199 7.15927 9.774C6.63896 10.3182 5.94096 10.6581 5.19169 10.7321C4.44242 10.8061 3.69142 10.6093 3.07471 10.1774C2.45799 9.74547 2.01634 9.10699 1.82974 8.37756C1.64314 7.64814 1.72393 6.876 2.05747 6.201C2.07005 6.14187 2.09454 6.08593 2.12947 6.0366L2.81767 5.0532C2.85064 5.00267 2.89344 4.95929 2.94352 4.92563C2.9936 4.89197 3.04993 4.86873 3.10917 4.85729C3.16841 4.84584 3.22935 4.84643 3.28836 4.85901C3.34737 4.87159 3.40325 4.89591 3.45267 4.93052C3.50209 4.96513 3.54405 5.00933 3.57604 5.06048C3.60804 5.11164 3.62942 5.1687 3.63892 5.22829C3.64842 5.28787 3.64584 5.34875 3.63133 5.40732C3.61682 5.46589 3.59068 5.52094 3.55447 5.5692L2.95987 6.42L2.96347 6.4218C2.66413 6.91031 2.56243 7.49462 2.6791 8.05554C2.79578 8.61647 3.12204 9.11176 3.59134 9.44039C4.06065 9.76903 4.63764 9.90626 5.20465 9.82409C5.77166 9.74192 6.28596 9.44654 6.64267 8.9982L6.64627 9.0006V9ZM9.94267 5.799C9.92998 5.85809 9.90549 5.914 9.87067 5.9634L9.18247 6.9468C9.1495 6.99733 9.1067 7.04071 9.05662 7.07437C9.00654 7.10802 8.95021 7.13126 8.89097 7.14271C8.83173 7.15415 8.77079 7.15357 8.71178 7.14099C8.65277 7.1284 8.59689 7.10409 8.54747 7.06947C8.49805 7.03486 8.4561 6.99067 8.4241 6.93951C8.3921 6.88836 8.37072 6.83129 8.36122 6.77171C8.35172 6.71213 8.35431 6.65124 8.36881 6.59268C8.38332 6.53411 8.40946 6.47906 8.44567 6.4308L8.96167 5.6928C9.29899 5.2038 9.42924 4.60125 9.32401 4.01659C9.21877 3.43193 8.88658 2.91262 8.39992 2.57194C7.91326 2.23126 7.31162 2.09686 6.72625 2.19808C6.14088 2.29929 5.61929 2.62789 5.27527 3.1122L4.75927 3.8496C4.69085 3.94738 4.58638 4.01398 4.46885 4.03474C4.35132 4.0555 4.23036 4.02872 4.13257 3.9603C4.03479 3.89187 3.96819 3.7874 3.94743 3.66987C3.92667 3.55235 3.95344 3.43138 4.02187 3.3336L4.71067 2.3496C4.7453 2.30005 4.78959 2.25801 4.84087 2.226C5.36119 1.6818 6.05918 1.34192 6.80845 1.26793C7.55772 1.19393 8.30872 1.39071 8.92543 1.82262C9.54215 2.25453 9.9838 2.89301 10.1704 3.62244C10.357 4.35186 10.2762 5.12399 9.94267 5.799ZM7.20487 4.2798C7.25331 4.3137 7.29459 4.35682 7.32635 4.40669C7.35812 4.45655 7.37975 4.51219 7.39 4.57042C7.40025 4.62865 7.39893 4.68833 7.38611 4.74605C7.37328 4.80376 7.34921 4.85839 7.31527 4.9068L5.42227 7.6098C5.35384 7.70758 5.24938 7.77418 5.13185 7.79494C5.01432 7.8157 4.89336 7.78892 4.79557 7.7205C4.69779 7.65207 4.63119 7.5476 4.61043 7.43007C4.58967 7.31255 4.61645 7.19158 4.68487 7.0938L6.57787 4.3902C6.61178 4.34176 6.65489 4.30048 6.70476 4.26872C6.75463 4.23695 6.81026 4.21532 6.86849 4.20507C6.92672 4.19482 6.9864 4.19614 7.04412 4.20896C7.10184 4.22178 7.15646 4.24585 7.20487 4.2798Z" fill="#2E3B58"/>
</svg>
