<svg width="16" height="16" viewBox="0 0 16 16" fill="none" xmlns="http://www.w3.org/2000/svg">
<path d="M9.07712 13L10.0681 11.584C10.1246 11.5033 10.1964 11.4345 10.2794 11.3816C10.3625 11.3286 10.4552 11.2926 10.5522 11.2754C10.6491 11.2583 10.7486 11.2604 10.8447 11.2817C10.9409 11.303 11.0319 11.343 11.1126 11.3995C11.1933 11.456 11.2621 11.5278 11.315 11.6108C11.368 11.6939 11.4041 11.7865 11.4212 11.8835C11.4383 11.9805 11.4362 12.0799 11.4149 12.1761C11.3936 12.2723 11.3536 12.3633 11.2971 12.444L10.1491 14.084C10.0914 14.1666 10.0176 14.2366 9.93212 14.29C9.06493 15.197 7.9016 15.7635 6.65281 15.8868C5.40403 16.0101 4.15237 15.6821 3.12451 14.9623C2.09666 14.2425 1.36057 13.1783 1.04957 11.9626C0.73857 10.7469 0.873214 9.46001 1.42912 8.335C1.45008 8.23646 1.49091 8.14323 1.54912 8.061L2.69612 6.422C2.75107 6.33778 2.8224 6.26548 2.90587 6.20939C2.98933 6.1533 3.08322 6.11456 3.18195 6.09549C3.28069 6.07641 3.38225 6.07739 3.4806 6.09835C3.57895 6.11932 3.67208 6.15985 3.75445 6.21754C3.83682 6.27523 3.90674 6.34889 3.96007 6.43414C4.0134 6.5194 4.04904 6.61451 4.06487 6.71381C4.0807 6.81312 4.07639 6.91459 4.05221 7.0122C4.02803 7.10981 3.98447 7.20156 3.92412 7.282L2.93312 8.7L2.93912 8.703C2.44022 9.51719 2.27072 10.491 2.46517 11.4259C2.65963 12.3608 3.20339 13.1863 3.98557 13.734C4.76775 14.2817 5.72941 14.5104 6.67442 14.3735C7.61943 14.2365 8.47661 13.7442 9.07112 12.997L9.07712 13.001V13ZM14.5711 7.665C14.55 7.76348 14.5092 7.85668 14.4511 7.939L13.3041 9.578C13.2492 9.66222 13.1778 9.73452 13.0944 9.79061C13.0109 9.8467 12.917 9.88544 12.8183 9.90451C12.7195 9.92359 12.618 9.92261 12.5196 9.90165C12.4213 9.88068 12.3282 9.84015 12.2458 9.78246C12.1634 9.72477 12.0935 9.65111 12.0402 9.56586C11.9868 9.4806 11.9512 9.38549 11.9354 9.28619C11.9195 9.18688 11.9238 9.08541 11.948 8.9878C11.9722 8.89019 12.0158 8.79844 12.0761 8.718L12.9361 7.488C13.4983 6.67301 13.7154 5.66875 13.54 4.69432C13.3646 3.71989 12.811 2.85436 11.9999 2.28657C11.1888 1.71877 10.186 1.49478 9.21042 1.66347C8.2348 1.83215 7.36548 2.37982 6.79212 3.187L5.93212 4.416C5.81808 4.57898 5.64396 4.68997 5.44808 4.72457C5.2522 4.75917 5.05059 4.71454 4.88762 4.6005C4.72464 4.48646 4.61365 4.31234 4.57905 4.11646C4.54444 3.92058 4.58908 3.71898 4.70312 3.556L5.85112 1.916C5.90884 1.83342 5.98265 1.76335 6.06812 1.71C6.93531 0.803002 8.09864 0.236544 9.34742 0.113218C10.5962 -0.0101084 11.8479 0.317851 12.8757 1.0377C13.9036 1.75755 14.6397 2.82169 14.9507 4.0374C15.2617 5.2531 15.127 6.53999 14.5711 7.665ZM10.0081 5.133C10.0888 5.18951 10.1576 5.26137 10.2106 5.34448C10.2635 5.42759 10.2996 5.52032 10.3167 5.61737C10.3338 5.71442 10.3315 5.81388 10.3102 5.91008C10.2888 6.00627 10.2487 6.09732 10.1921 6.178L7.03712 10.683C6.92307 10.846 6.74896 10.957 6.55308 10.9916C6.3572 11.0262 6.15559 10.9815 5.99262 10.8675C5.82964 10.7535 5.71865 10.5793 5.68405 10.3835C5.64945 10.1876 5.69408 9.98598 5.80812 9.823L8.96312 5.317C9.01963 5.23627 9.09149 5.16747 9.1746 5.11453C9.25771 5.06159 9.35044 5.02554 9.44749 5.00845C9.54454 4.99137 9.644 4.99357 9.7402 5.01494C9.83639 5.03631 9.92743 5.07643 10.0081 5.133Z" fill="#2E3B58"/>
</svg>
