<svg width="20" height="20" viewBox="0 0 20 20" fill="none" xmlns="http://www.w3.org/2000/svg">
<path d="M17.4844 6.25C17.769 6.25 18 5.914 18 5.5C18 5.30109 17.9457 5.11032 17.849 4.96967C17.7523 4.82902 17.6211 4.75 17.4844 4.75H7.51562C7.37887 4.75 7.24772 4.82902 7.15102 4.96967C7.05432 5.11032 7 5.30109 7 5.5C7 5.69891 7.05432 5.88968 7.15102 6.03033C7.24772 6.17098 7.37887 6.25 7.51562 6.25H17.4844Z" fill="#2E3B58"/>
<path d="M4.38099 7.71526H3.24777V5.67208C3.24777 5.6344 3.24777 5.56563 3.24777 5.46578C3.24777 5.36405 3.24871 5.25195 3.2506 5.12949C3.25437 5.00703 3.25908 4.89682 3.26473 4.79885C3.21574 4.85725 3.16959 4.90718 3.12625 4.94863C3.08481 4.99008 3.0443 5.0287 3.00474 5.06449L2.53562 5.45165L1.9563 4.73951L3.37494 3.58368H4.38099V7.71526Z" fill="#2E3B58"/>
<path d="M17.4844 15.25C17.769 15.25 18 14.914 18 14.5C18 14.3011 17.9457 14.1103 17.849 13.9697C17.7523 13.829 17.6211 13.75 17.4844 13.75H7.51562C7.37887 13.75 7.24772 13.829 7.15102 13.9697C7.05432 14.1103 7 14.3011 7 14.5C7 14.6989 7.05432 14.8897 7.15102 15.0303C7.24772 15.171 7.37887 15.25 7.51562 15.25H17.4844Z" fill="#2E3B58"/>
<path d="M4.99988 16.6909H2.00151V15.9562L3.01039 14.936C3.21951 14.7175 3.38154 14.5422 3.49646 14.4104C3.61327 14.2785 3.69522 14.1664 3.74232 14.0741C3.78942 13.9818 3.81297 13.8857 3.81297 13.7858C3.81297 13.6634 3.7734 13.5748 3.69428 13.5202C3.61515 13.4655 3.52189 13.4382 3.4145 13.4382C3.28451 13.4382 3.15263 13.4759 3.01887 13.5513C2.88699 13.6247 2.73721 13.734 2.56954 13.8791L1.9563 13.1613C2.08064 13.0501 2.21252 12.9446 2.35194 12.8448C2.49135 12.743 2.6562 12.6601 2.84648 12.5961C3.03677 12.532 3.2685 12.5 3.54167 12.5C3.82239 12.5 4.06542 12.549 4.27078 12.647C4.47802 12.7449 4.63815 12.8796 4.75119 13.0511C4.86423 13.2206 4.92075 13.4137 4.92075 13.6304C4.92075 13.8697 4.87648 14.0835 4.78793 14.2719C4.70127 14.4584 4.57033 14.6459 4.39512 14.8343C4.21991 15.0208 4.00137 15.2327 3.73949 15.4701L3.43711 15.7414V15.7697H4.99988V16.6909Z" fill="#2E3B58"/>
</svg>
