<svg width="12" height="12" viewBox="0 0 12 12" fill="none" xmlns="http://www.w3.org/2000/svg">
<path d="M10.4909 3.75004C10.6617 3.75004 10.8003 3.54844 10.8003 3.30004C10.8003 3.18069 10.7677 3.06623 10.7097 2.98184C10.6517 2.89745 10.573 2.85004 10.4909 2.85004H5.50967C5.42762 2.85004 5.34893 2.89745 5.29091 2.98184C5.23289 3.06623 5.20029 3.18069 5.20029 3.30004C5.20029 3.41938 5.23289 3.53384 5.29091 3.61823C5.34893 3.70263 5.42762 3.75004 5.50967 3.75004H10.4909Z" fill="#2E3B58"/>
<path d="M2.99977 5.26109H1.97318V3.41015C1.97318 3.37602 1.97318 3.31372 1.97318 3.22327C1.97318 3.1311 1.97403 3.02955 1.97574 2.91862C1.97915 2.80768 1.98342 2.70784 1.98854 2.61909C1.94417 2.67199 1.90235 2.71722 1.8631 2.75477C1.82555 2.79232 1.78886 2.82731 1.75301 2.85973L1.32804 3.21047L0.803223 2.56532L2.08838 1.51825H2.99977V5.26109Z" fill="#2E3B58"/>
<path d="M10.4909 9.15C10.6617 9.15 10.8003 8.9484 10.8003 8.7C10.8003 8.58065 10.7677 8.46619 10.7097 8.3818C10.6517 8.29741 10.573 8.25 10.4909 8.25H5.50967C5.42762 8.25 5.34893 8.29741 5.29091 8.3818C5.23289 8.46619 5.20029 8.58065 5.20029 8.7C5.20029 8.81935 5.23289 8.93381 5.29091 9.0182C5.34893 9.10259 5.42762 9.15 5.50967 9.15H10.4909Z" fill="#2E3B58"/>
<path d="M3.36293 10.5146H0.848465V9.89838L1.69452 9.04285C1.86989 8.85958 2.00577 8.71265 2.10214 8.60205C2.2001 8.49146 2.26882 8.39745 2.30832 8.32003C2.34782 8.24262 2.36757 8.16204 2.36757 8.0783C2.36757 7.97561 2.33439 7.90135 2.26803 7.85553C2.20168 7.80971 2.12347 7.78681 2.03341 7.78681C1.9244 7.78681 1.8138 7.8184 1.70163 7.8816C1.59103 7.94322 1.46543 8.03486 1.32481 8.15651L0.810547 7.55456C0.914822 7.46134 1.02542 7.37286 1.14233 7.28913C1.25925 7.20381 1.39749 7.13429 1.55706 7.08058C1.71664 7.02686 1.91097 7 2.14006 7C2.37547 7 2.57928 7.04108 2.75149 7.12323C2.92529 7.20539 3.05958 7.31836 3.15438 7.46213C3.24917 7.60432 3.29657 7.76627 3.29657 7.94796C3.29657 8.14861 3.25944 8.32793 3.18518 8.48593C3.11251 8.64234 3.0027 8.79954 2.85577 8.95753C2.70883 9.11395 2.52556 9.29169 2.30595 9.49076L2.05237 9.71827V9.74197H3.36293V10.5146Z" fill="#2E3B58"/>
</svg>
