<svg width="12" height="12" viewBox="0 0 12 12" fill="none" xmlns="http://www.w3.org/2000/svg">
<path fill-rule="evenodd" clip-rule="evenodd" d="M2.87984 8.94C3.29984 9.3 3.71984 9.6 4.19984 9.84C4.61984 10.02 5.09984 10.2 5.69984 10.2C6.19964 10.1813 6.69006 10.0587 7.13984 9.84C7.43984 9.72 7.73984 9.6 8.09984 9.12L8.45984 8.4V7.92C8.45984 7.62 8.39984 7.32 8.21984 6.9H6.95984C6.95984 6.9 7.61984 7.44 7.49984 8.16C7.49984 8.22 7.49984 8.7 7.13984 8.94C6.83984 9.12 6.35984 9.3 5.75984 9.3C4.79984 9.3 4.13984 9 3.53984 8.28H2.93984L2.75984 8.64C2.75509 8.69589 2.76346 8.75213 2.78429 8.80422C2.80513 8.8563 2.83785 8.9028 2.87984 8.94ZM3.59984 4.98L4.07984 5.4V5.4H1.7998V6.3H10.1998V5.4H5.70536C5.3843 5.2575 5.14027 5.10695 4.85984 4.92C4.7974 4.87539 4.7376 4.83477 4.68106 4.79635C4.35727 4.57636 4.13984 4.42863 4.13984 4.02C4.13984 3.6 4.25984 3.48 4.73984 3.12C5.09984 2.88 5.51984 2.76 5.93984 2.76C6.53984 2.82 6.89984 2.88 7.13984 3C7.42861 3.13291 7.67703 3.33993 7.85984 3.6C7.91984 3.66 8.21984 3.72 8.45984 3.6C8.65335 3.45487 8.61282 3.30974 8.58986 3.2275C8.58434 3.20775 8.57984 3.19162 8.57984 3.18L8.39984 2.76C8.11525 2.478 7.76459 2.27173 7.37984 2.16C6.47503 1.79624 5.46465 1.79624 4.55984 2.16C4.19984 2.34 3.83984 2.58 3.59984 2.94C3.35984 3.24 3.29984 3.6 3.29984 4.02C3.29984 4.5 3.35984 4.68 3.59984 4.98Z" fill="#2E3B58"/>
</svg>
