<svg width="12" height="12" viewBox="0 0 12 12" fill="none" xmlns="http://www.w3.org/2000/svg">
<path d="M7.4398 6.18L5.9998 2.7L4.5598 6.18H7.4398ZM7.7398 6.9H4.2598L3.4198 9H2.5198L5.5198 1.8H6.4798L9.4798 9H8.5798L7.7998 6.9H7.7398ZM9.5998 11.1H2.3998C2.24067 11.1 2.08806 11.0368 1.97554 10.9243C1.86302 10.8117 1.7998 10.6591 1.7998 10.5C1.7998 10.3409 1.86302 10.1883 1.97554 10.0757C2.08806 9.96322 2.24067 9.9 2.3998 9.9H9.5998C9.75893 9.9 9.91155 9.96322 10.0241 10.0757C10.1366 10.1883 10.1998 10.3409 10.1998 10.5C10.1998 10.6591 10.1366 10.8117 10.0241 10.9243C9.91155 11.0368 9.75893 11.1 9.5998 11.1Z" fill="#2E3B58"/>
</svg>
