<svg width="12" height="12" viewBox="0 0 12 12" fill="none" xmlns="http://www.w3.org/2000/svg">
<path fill-rule="evenodd" clip-rule="evenodd" d="M7.31028 11.284C6.74584 11.279 6.21742 11.051 5.8218 10.6414C5.00891 9.79948 5.01989 8.44016 5.84628 7.61066L7.15018 6.30227C7.20336 6.24852 7.27595 6.2187 7.35164 6.21926C7.42733 6.22011 7.49936 6.25106 7.55198 6.30536L8.83477 7.63514C9.64766 8.4773 9.63669 9.8369 8.81001 10.6656C8.40792 11.0688 7.87528 11.2885 7.31028 11.284Z" fill="#2E3B58"/>
<path fill-rule="evenodd" clip-rule="evenodd" d="M7.47831 11.9999L7.48374 11.9999Z" fill="white"/>
<path d="M5.5357 6.75719H3.0316L4.4596 3.30359L5.78466 6.50823L6.39032 5.90258L4.942 2.39999H3.9772L1 9.59999H1.8556L2.7124 7.52819H4.7647L5.5357 6.75719Z" fill="#2E3B58"/>
</svg>
