<svg width="16" height="4" viewBox="0 0 16 4" fill="none" xmlns="http://www.w3.org/2000/svg">
<path fill-rule="evenodd" clip-rule="evenodd" d="M0.5 1.99999C0.5 1.07999 1.24667 0.333328 2.16667 0.333328C3.08667 0.333328 3.83333 1.07999 3.83333 1.99999C3.83333 2.91999 3.08667 3.66666 2.16667 3.66666C1.24667 3.66666 0.5 2.91999 0.5 1.99999ZM8 0.333328C7.08 0.333328 6.33333 1.07999 6.33333 1.99999C6.33333 2.91999 7.08 3.66666 8 3.66666C8.92 3.66666 9.66667 2.91999 9.66667 1.99999C9.66667 1.07999 8.92 0.333328 8 0.333328ZM13.8333 0.333328C12.9133 0.333328 12.1667 1.07999 12.1667 1.99999C12.1667 2.91999 12.9133 3.66666 13.8333 3.66666C14.7533 3.66666 15.5 2.91999 15.5 1.99999C15.5 1.07999 14.7533 0.333328 13.8333 0.333328Z" fill="#2E3B58"/>
</svg>
