<?xml version="1.0" encoding="utf-8"?>
<!-- Generator: Adobe Illustrator 18.0.0, SVG Export Plug-In . SVG Version: 6.00 Build 0)  -->
<svg version="1.1" id="Layer_1" xmlns="http://www.w3.org/2000/svg" xmlns:xlink="http://www.w3.org/1999/xlink" x="0px" y="0px"
	 width="19.2px" height="17.9px" viewBox="0 0 19.2 17.9" enable-background="new 0 0 19.2 17.9" xml:space="preserve">
<g>
	<path fill="#666768" d="M7.2,4.6C6.7,4.6,6.3,4.7,6.1,5C5.8,5.3,5.7,5.6,5.7,6.1c0,0.8,0.5,1.3,1.4,1.3c0.2,0,0.3,0.1,0.3,0.3
		c0,0.1,0,0.3,0,0.4c0,0.1-0.1,0.3-0.2,0.5C7.1,8.8,6.9,8.9,6.7,9.1S6.2,9.5,5.8,9.7l0.5,0.7C7.2,10,8,9.4,8.5,8.9
		C9,8.3,9.2,7.6,9.2,6.7C9.2,6,9,5.6,8.7,5.2C8.2,4.8,7.8,4.6,7.2,4.6z"/>
	<path fill="#666768" d="M11.8,4.6c-0.5,0-0.9,0.1-1.1,0.4c-0.3,0.3-0.4,0.6-0.4,1.1c0,0.8,0.5,1.3,1.4,1.3c0.2,0,0.3,0.1,0.3,0.3
		c0,0.1,0,0.3-0.1,0.4c0,0.1-0.1,0.3-0.2,0.5c-0.1,0.2-0.3,0.3-0.5,0.5s-0.5,0.4-0.9,0.6l0.5,0.7c0.9-0.4,1.7-1,2.2-1.5
		c0.5-0.6,0.7-1.3,0.7-2.2c0-0.7-0.2-1.1-0.5-1.5C12.8,4.8,12.4,4.6,11.8,4.6z"/>
</g>
<g>
	<path fill="#666768" d="M6.6,17.9H5.2v-3H4.9c-2.7,0-4.9-2.2-4.9-4.8V4.9C0,2.2,2.2,0,4.9,0h9.5c2.7,0,4.8,2.2,4.8,4.9v5.2
		c0,2.7-2.2,4.8-4.8,4.8h-4.2L6.6,17.9z M4.9,1.7c-1.7,0-3.1,1.4-3.1,3.1V10c0,1.7,1.4,3.2,3.1,3.2h2v2.2l2.6-2.2h4.8
		c1.7,0,3.2-1.4,3.2-3.2V4.9c0-1.7-1.4-3.1-3.2-3.1H4.9V1.7z"/>
</g>
</svg>
