<svg width="14" height="16" viewBox="0 0 14 16" fill="none" xmlns="http://www.w3.org/2000/svg">
<path d="M9.4 7.3L7 1.5L4.6 7.3H9.4ZM9.9 8.5H4.1L2.7 12H1.2L6.2 0H7.8L12.8 12H11.3L10 8.5H9.9ZM13 15.5H1C0.734784 15.5 0.48043 15.3946 0.292893 15.2071C0.105357 15.0196 0 14.7652 0 14.5C0 14.2348 0.105357 13.9804 0.292893 13.7929C0.48043 13.6054 0.734784 13.5 1 13.5H13C13.2652 13.5 13.5196 13.6054 13.7071 13.7929C13.8946 13.9804 14 14.2348 14 14.5C14 14.7652 13.8946 15.0196 13.7071 15.2071C13.5196 15.3946 13.2652 15.5 13 15.5Z" fill="#2E3B58"/>
</svg>
