<svg width="12" height="12" viewBox="0 0 12 12" fill="none" xmlns="http://www.w3.org/2000/svg">
<path d="M10.8008 2.24999C10.8008 2.49839 10.5992 2.69999 10.3508 2.69999H1.65078C1.53144 2.69999 1.41698 2.65258 1.33258 2.56819C1.24819 2.48379 1.20078 2.36934 1.20078 2.24999C1.20078 2.13064 1.24819 2.01618 1.33258 1.93179C1.41698 1.8474 1.53144 1.79999 1.65078 1.79999H10.3508C10.4701 1.79999 10.5846 1.8474 10.669 1.93179C10.7534 2.01618 10.8008 2.13064 10.8008 2.24999ZM10.8008 7.04999C10.8008 7.29839 10.5992 7.49999 10.3508 7.49999H1.65078C1.59169 7.49999 1.53317 7.48835 1.47858 7.46573C1.42398 7.44312 1.37437 7.40997 1.33258 7.36818C1.2908 7.3264 1.25765 7.27679 1.23504 7.22219C1.21242 7.1676 1.20078 7.10908 1.20078 7.04999C1.20078 6.99089 1.21242 6.93238 1.23504 6.87778C1.25765 6.82318 1.2908 6.77358 1.33258 6.73179C1.37437 6.69 1.42398 6.65686 1.47858 6.63424C1.53317 6.61163 1.59169 6.59999 1.65078 6.59999H10.3508C10.4701 6.59999 10.5846 6.6474 10.669 6.73179C10.7534 6.81618 10.8008 6.93064 10.8008 7.04999ZM10.8008 9.44999C10.8008 9.69839 10.5992 9.89999 10.3508 9.89999H4.39338C4.27403 9.89999 4.15958 9.85258 4.07518 9.76819C3.99079 9.68379 3.94338 9.56933 3.94338 9.44999C3.94338 9.33064 3.99079 9.21618 4.07518 9.13179C4.15958 9.0474 4.27403 8.99999 4.39338 8.99999H10.3508C10.4701 8.99999 10.5846 9.0474 10.669 9.13179C10.7534 9.21618 10.8008 9.33064 10.8008 9.44999ZM10.8008 4.64999C10.8008 4.89839 10.5992 5.09999 10.3508 5.09999H4.39338C4.27403 5.09999 4.15958 5.05258 4.07518 4.96819C3.99079 4.88379 3.94338 4.76933 3.94338 4.64999C3.94338 4.53064 3.99079 4.41618 4.07518 4.33179C4.15958 4.2474 4.27403 4.19999 4.39338 4.19999H10.3508C10.4701 4.19999 10.5846 4.2474 10.669 4.33179C10.7534 4.41618 10.8008 4.53064 10.8008 4.64999Z" fill="#2E3B58"/>
</svg>
