<svg width="16" height="14" viewBox="0 0 16 14" fill="none" xmlns="http://www.w3.org/2000/svg">
<path d="M15.8853 1.14858C15.958 1.03308 16 0.89642 16 0.75C16 0.551088 15.921 0.360322 15.7803 0.21967C15.6397 0.0790176 15.4489 0 15.25 0H0.75C0.551088 0 0.360321 0.0790176 0.219669 0.21967C0.0790176 0.360322 0 0.551088 0 0.75C0 0.89642 0.0420303 1.03308 0.114672 1.14857C0.144377 1.19593 0.17951 1.24017 0.219669 1.28033C0.259829 1.32049 0.304073 1.35562 0.351425 1.38533C0.459555 1.45316 0.583895 1.49268 0.712811 1.49908C0.725168 1.49969 0.737568 1.5 0.75 1.5H15.25C15.3964 1.5 15.5331 1.45797 15.6486 1.38533C15.6959 1.35563 15.7402 1.32049 15.7803 1.28033C15.8205 1.24017 15.8556 1.19593 15.8853 1.14858Z" fill="#2E3B58"/>
<path d="M15.9998 8.76935C15.9999 8.76292 16 8.75647 16 8.75C16 8.65054 15.9802 8.55312 15.9429 8.46299C15.9406 8.45735 15.9382 8.45175 15.9357 8.44617C15.8986 8.36254 15.8463 8.2856 15.7803 8.21967C15.71 8.14934 15.6271 8.09443 15.537 8.05709C15.5257 8.05242 15.5144 8.04803 15.5029 8.04392C15.4225 8.01512 15.337 8 15.25 8H0.75C0.651508 8 0.553982 8.0194 0.462988 8.05709C0.371994 8.09478 0.289312 8.15003 0.219669 8.21967C0.150026 8.28931 0.0947819 8.37199 0.0570908 8.46299C0.0193996 8.55398 0 8.65151 0 8.75C0 8.76213 0.000293732 8.77425 0.000881195 8.78634C0.00730324 8.92075 0.0491428 9.04592 0.117289 9.15271C0.146589 9.19875 0.180899 9.24156 0.219669 9.28033C0.25844 9.3191 0.30125 9.35341 0.347288 9.38271C0.458803 9.45387 0.590361 9.49636 0.731546 9.49977C0.737694 9.49992 0.743845 9.5 0.75 9.5H15.25C15.2583 9.5 15.2666 9.49987 15.2748 9.4996C15.4136 9.49508 15.5429 9.4528 15.6527 9.38271C15.6987 9.35341 15.7416 9.3191 15.7803 9.28033C15.8191 9.24156 15.8534 9.19875 15.8827 9.15271C15.9537 9.04143 15.9962 8.91019 15.9998 8.76935Z" fill="#2E3B58"/>
<path d="M15.25 13.5C15.664 13.5 16 13.164 16 12.75C16 12.5511 15.921 12.3603 15.7803 12.2197C15.6397 12.079 15.4489 12 15.25 12H0.75C0.551088 12 0.360323 12.079 0.219669 12.2197C0.0790176 12.3603 0 12.5511 0 12.75C0 13.164 0.336 13.5 0.75 13.5H15.25Z" fill="#2E3B58"/>
<path d="M15.25 5.5C15.664 5.5 16 5.164 16 4.75C16 4.55109 15.921 4.36032 15.7803 4.21967C15.6397 4.07902 15.4489 4 15.25 4H0.75C0.551088 4 0.360323 4.07902 0.219669 4.21967C0.0790176 4.36032 0 4.55109 0 4.75C0 5.164 0.336 5.5 0.75 5.5H15.25Z" fill="#2E3B58"/>
</svg>
