<svg width="16" height="14" viewBox="0 0 16 14" fill="none" xmlns="http://www.w3.org/2000/svg">
<path d="M16 0.75C16 1.164 15.664 1.5 15.25 1.5H0.75C0.551088 1.5 0.360322 1.42098 0.219669 1.28033C0.0790171 1.13968 0 0.948912 0 0.75C0 0.551088 0.0790171 0.360322 0.219669 0.21967C0.360322 0.0790175 0.551088 0 0.75 0H15.25C15.4489 0 15.6397 0.0790175 15.7803 0.21967C15.921 0.360322 16 0.551088 16 0.75ZM16 8.75C16 9.164 15.664 9.5 15.25 9.5H0.75C0.651509 9.5 0.553982 9.4806 0.462988 9.44291C0.371994 9.40522 0.289313 9.34997 0.219669 9.28033C0.150025 9.21069 0.0947818 9.12801 0.0570908 9.03701C0.0193997 8.94602 0 8.84849 0 8.75C0 8.65151 0.0193997 8.55398 0.0570908 8.46299C0.0947818 8.37199 0.150025 8.28931 0.219669 8.21967C0.289313 8.15003 0.371994 8.09478 0.462988 8.05709C0.553982 8.0194 0.651509 8 0.75 8H15.25C15.4489 8 15.6397 8.07902 15.7803 8.21967C15.921 8.36032 16 8.55109 16 8.75ZM16 12.75C16 13.164 15.664 13.5 15.25 13.5H5.321C5.12209 13.5 4.93132 13.421 4.79067 13.2803C4.65002 13.1397 4.571 12.9489 4.571 12.75C4.571 12.5511 4.65002 12.3603 4.79067 12.2197C4.93132 12.079 5.12209 12 5.321 12H15.25C15.4489 12 15.6397 12.079 15.7803 12.2197C15.921 12.3603 16 12.5511 16 12.75ZM16 4.75C16 5.164 15.664 5.5 15.25 5.5H5.321C5.12209 5.5 4.93132 5.42098 4.79067 5.28033C4.65002 5.13968 4.571 4.94891 4.571 4.75C4.571 4.55109 4.65002 4.36032 4.79067 4.21967C4.93132 4.07902 5.12209 4 5.321 4H15.25C15.4489 4 15.6397 4.07902 15.7803 4.21967C15.921 4.36032 16 4.55109 16 4.75V4.75Z" fill="#2E3B58"/>
</svg>
