<?xml version="1.0" encoding="utf-8"?>
<!-- Generator: Adobe Illustrator 15.1.0, SVG Export Plug-In . SVG Version: 6.00 Build 0)  -->
<!DOCTYPE svg PUBLIC "-//W3C//DTD SVG 1.1//EN" "http://www.w3.org/Graphics/SVG/1.1/DTD/svg11.dtd">
<svg version="1.1" id="Layer_1" xmlns="http://www.w3.org/2000/svg" xmlns:xlink="http://www.w3.org/1999/xlink" x="0px" y="0px"
	 width="16px" height="16px" viewBox="0 0 16 16" enable-background="new 0 0 16 16" xml:space="preserve">
<g>
	<path d="M1.5,3.478v9.045h13V3.478H1.5z M3.33,9.662l0.379,0.561l0.496-0.67l0.422,0.416l0.559-0.512l0.287,0.415l-1.195,2.15
		H2.152L3.33,9.662z M3.586,9.149l0.581-1.164l0.73,1.057L4.64,9.279L4.146,8.792L3.727,9.357L3.586,9.149z M6.603,8.868L6.96,8.792
		l0.277,0.893L7.91,8.882l0.584,0.65l0.528-0.51l1.658,3H4.848L6.603,8.868z M6.925,8.288l0.848-1.523L8.77,8.569L8.519,8.812
		L7.896,8.118L7.444,8.659l-0.14-0.451L6.925,8.288z M14,12.022h-2.748L7.773,5.733l-2.03,3.651L4.097,7.006L2,11.206V3.978h12
		V12.022z"/>
	<path d="M11.504,7.897c0.756,0,1.371-0.615,1.371-1.372s-0.615-1.373-1.371-1.373c-0.758,0-1.373,0.616-1.373,1.373
		S10.746,7.897,11.504,7.897z M11.504,5.653c0.48,0,0.871,0.392,0.871,0.873s-0.391,0.873-0.871,0.873s-0.873-0.392-0.873-0.873
		S11.023,5.653,11.504,5.653z"/>
</g>
</svg>
