<?xml version="1.0" encoding="utf-8"?>
<!-- Generator: Adobe Illustrator 15.1.0, SVG Export Plug-In . SVG Version: 6.00 Build 0)  -->
<!DOCTYPE svg PUBLIC "-//W3C//DTD SVG 1.1//EN" "http://www.w3.org/Graphics/SVG/1.1/DTD/svg11.dtd">
<svg version="1.1" id="Layer_1" xmlns="http://www.w3.org/2000/svg" xmlns:xlink="http://www.w3.org/1999/xlink" x="0px" y="0px"
	 width="16px" height="16px" viewBox="0 0 16 16" enable-background="new 0 0 16 16" xml:space="preserve">
<g>
	<path d="M12.755,9.686l-2.262-2.261c-0.297-0.297-0.671-0.486-1.064-0.577C9.442,7.016,9.44,7.183,9.42,7.349
		c0.267,0.084,0.515,0.225,0.72,0.43l2.262,2.261c0.666,0.666,0.688,1.73,0.049,2.371c-0.301,0.301-0.706,0.465-1.141,0.465
		c-0.459,0-0.896-0.182-1.229-0.514L7.819,10.1c-0.666-0.668-0.688-1.73-0.047-2.37c0.175-0.175,0.387-0.299,0.618-0.376
		c0.037-0.167,0.045-0.335,0.021-0.507C8.04,6.931,7.692,7.102,7.419,7.376C6.584,8.209,6.604,9.59,7.466,10.453l2.262,2.262
		c0.428,0.426,0.988,0.66,1.582,0.66c0.568,0,1.098-0.217,1.494-0.611C13.638,11.928,13.616,10.547,12.755,9.686z"/>
	<path d="M3.598,5.962C2.932,5.295,2.91,4.231,3.55,3.591c0.301-0.301,0.706-0.466,1.14-0.466c0.46,0,0.896,0.183,1.229,0.515
		l2.263,2.262c0.666,0.668,0.687,1.73,0.047,2.37C8.053,8.445,7.84,8.57,7.609,8.646C7.572,8.814,7.564,8.982,7.589,9.154
		c0.37-0.084,0.719-0.256,0.992-0.529c0.835-0.834,0.813-2.214-0.047-3.077L6.271,3.286C5.845,2.859,5.283,2.625,4.689,2.625
		c-0.567,0-1.098,0.218-1.493,0.612C2.362,4.073,2.384,5.454,3.244,6.315l2.263,2.261c0.297,0.297,0.671,0.486,1.064,0.576
		C6.558,8.984,6.56,8.818,6.58,8.652c-0.267-0.084-0.515-0.225-0.72-0.43L3.598,5.962z"/>
</g>
</svg>
