<?xml version="1.0" encoding="utf-8"?>
<!-- Generator: Adobe Illustrator 15.1.0, SVG Export Plug-In . SVG Version: 6.00 Build 0)  -->
<!DOCTYPE svg PUBLIC "-//W3C//DTD SVG 1.1//EN" "http://www.w3.org/Graphics/SVG/1.1/DTD/svg11.dtd">
<svg version="1.1" id="Layer_1" xmlns="http://www.w3.org/2000/svg" xmlns:xlink="http://www.w3.org/1999/xlink" x="0px" y="0px"
	 width="16px" height="16px" viewBox="0 0 16 16" enable-background="new 0 0 16 16" xml:space="preserve">
<g>
	<rect x="6.22" y="2.902" width="8.418" height="0.884"/>
	<rect x="6.22" y="7.561" width="8.418" height="0.883"/>
	<rect x="6.22" y="12.213" width="8.418" height="0.883"/>
</g>
<g>
	<path d="M2.657,4.426h-0.29V2.56L1.903,2.564V2.341l0.754-0.079V4.426z"/>
</g>
<g>
	<path d="M3.161,9.082H1.837V8.885l0.669-0.799c0.119-0.145,0.2-0.259,0.243-0.345c0.042-0.085,0.063-0.172,0.063-0.259
		c0-0.099-0.029-0.18-0.086-0.242C2.668,7.177,2.589,7.146,2.487,7.146c-0.126,0-0.222,0.039-0.288,0.116
		C2.134,7.338,2.101,7.435,2.101,7.55H1.822L1.819,7.541C1.814,7.367,1.873,7.22,1.994,7.1s0.286-0.181,0.494-0.181
		c0.19,0,0.34,0.053,0.45,0.158s0.164,0.242,0.164,0.409c0,0.112-0.031,0.222-0.093,0.33S2.852,8.057,2.725,8.219L2.187,8.85
		L2.19,8.856h0.971V9.082z"/>
</g>
<g>
	<path d="M2.465,12.546c0.129,0,0.22-0.032,0.273-0.096c0.053-0.064,0.08-0.154,0.08-0.27c0-0.107-0.029-0.193-0.087-0.26
		c-0.059-0.065-0.145-0.099-0.259-0.099c-0.111,0-0.204,0.034-0.276,0.104c-0.073,0.068-0.109,0.154-0.109,0.258H1.812l-0.004-0.009
		c-0.005-0.16,0.056-0.297,0.182-0.41s0.287-0.17,0.483-0.17c0.198,0,0.354,0.051,0.466,0.15c0.112,0.101,0.168,0.247,0.168,0.441
		c0,0.1-0.026,0.19-0.079,0.272s-0.125,0.146-0.219,0.192c0.107,0.043,0.189,0.108,0.245,0.195c0.056,0.088,0.084,0.193,0.084,0.317
		c0,0.195-0.062,0.349-0.185,0.459c-0.124,0.111-0.284,0.166-0.481,0.166c-0.182,0-0.342-0.053-0.479-0.16
		c-0.139-0.106-0.205-0.248-0.2-0.424l0.003-0.009h0.275c0,0.104,0.037,0.19,0.112,0.262c0.074,0.07,0.171,0.105,0.289,0.105
		c0.117,0,0.209-0.036,0.277-0.108c0.067-0.073,0.101-0.168,0.101-0.285c0-0.134-0.031-0.234-0.093-0.301
		c-0.062-0.066-0.16-0.1-0.292-0.1H2.228v-0.224H2.465z"/>
</g>
</svg>
