<svg width="20" height="20" viewBox="0 0 20 20" fill="none" xmlns="http://www.w3.org/2000/svg">
<path d="M7.00006 16.4C6.20006 16 5.50006 15.5 4.80006 14.9C4.73007 14.838 4.67554 14.7605 4.64081 14.6737C4.60609 14.5869 4.59213 14.4932 4.60006 14.4L4.90006 13.8H5.90006C6.90006 15 8.00006 15.5 9.60006 15.5C10.6001 15.5 11.4001 15.2 11.9001 14.9C12.5001 14.5 12.5001 13.7 12.5001 13.6C12.7001 12.4 11.6001 11.5 11.6001 11.5H13.7001C14.0001 12.2 14.1001 12.7 14.1001 13.2V14L13.5001 15.2C12.9001 16 12.4001 16.2 11.9001 16.4C11.1504 16.7645 10.3331 16.9689 9.50006 17C8.50006 17 7.70006 16.7 7.00006 16.4ZM6.80006 9L6.00006 8.3C5.60006 7.8 5.50006 7.5 5.50006 6.7C5.50006 6 5.60006 5.4 6.00006 4.9C6.40006 4.3 7.00006 3.9 7.60006 3.6C9.10807 2.99373 10.792 2.99373 12.3001 3.6C12.9413 3.78621 13.5257 4.12999 14.0001 4.6L14.3001 5.3C14.3001 5.4 14.5001 5.7 14.1001 6C13.7001 6.2 13.2001 6.1 13.1001 6C12.7954 5.56655 12.3813 5.22152 11.9001 5C11.5001 4.8 10.9001 4.7 9.90006 4.6C9.20006 4.6 8.50006 4.8 7.90006 5.2C7.10006 5.8 6.90006 6 6.90006 6.7C6.90006 7.5 7.40006 7.7 8.10006 8.2C8.70006 8.6 9.20006 8.9 10.0001 9.2H6.80006V9Z" fill="#2E3B58"/>
<path d="M3 10.5V9H17V10.5H3Z" fill="#2E3B58"/>
</svg>
