<svg width="20" height="20" viewBox="0 0 20 20" fill="none" xmlns="http://www.w3.org/2000/svg">
<path d="M9.31897 8.33333L7.25 3.5L5.18103 8.33333H9.31897ZM9.75 9.33333H4.75L3.5431 12.25H2.25L6.56034 2.25H7.93966L12.25 12.25H10.9569L9.83621 9.33333H9.75Z" fill="#2E3B58" stroke="#2E3B58" stroke-width="0.5" stroke-linejoin="round"/>
<path d="M12 7.75C12 7.33579 12.3358 7 12.75 7H17V8.5H12.75C12.3358 8.5 12 8.16421 12 7.75Z" fill="#2E3B58"/>
<path d="M15.25 9.75L17.25 7.75L15.25 5.75" stroke="#2E3B58" stroke-width="1.5" stroke-linecap="round" stroke-linejoin="round"/>
<path d="M2 15.25C2 14.8358 2.33579 14.5 2.75 14.5H17V16H2.75C2.33579 16 2 15.6642 2 15.25Z" fill="#2E3B58"/>
<path d="M15.25 17.25L17.25 15.25L15.25 13.25" stroke="#2E3B58" stroke-width="1.5" stroke-linecap="round" stroke-linejoin="round"/>
</svg>
