<svg width="20" height="20" viewBox="0 0 20 20" fill="none" xmlns="http://www.w3.org/2000/svg">
<path d="M10.681 8.33333L12.75 3.5L14.819 8.33333H10.681ZM10.25 9.33333H15.25L16.4569 12.25H17.75L13.4397 2.25H12.0603L7.75 12.25H9.0431L10.1638 9.33333H10.25Z" fill="#2E3B58" stroke="#2E3B58" stroke-width="0.5" stroke-linejoin="round"/>
<path d="M8 7.75C8 7.33579 7.66421 7 7.25 7H3V8.5H7.25C7.66421 8.5 8 8.16421 8 7.75Z" fill="#2E3B58"/>
<path d="M4.75 9.75L2.75 7.75L4.75 5.75" stroke="#2E3B58" stroke-width="1.5" stroke-linecap="round" stroke-linejoin="round"/>
<path d="M18 15.25C18 14.8358 17.6642 14.5 17.25 14.5H3V16H17.25C17.6642 16 18 15.6642 18 15.25Z" fill="#2E3B58"/>
<path d="M4.75 17.25L2.75 15.25L4.75 13.25" stroke="#2E3B58" stroke-width="1.5" stroke-linecap="round" stroke-linejoin="round"/>
</svg>
