<svg width="18" height="14" viewBox="0 0 18 14" fill="none" xmlns="http://www.w3.org/2000/svg">
<path d="M17.7031 6.9121L10.7812 0.0917894C10.7669 0.0773804 10.7499 0.0659462 10.7311 0.0581441C10.7123 0.050342 10.6922 0.0463257 10.6719 0.0463257C10.6515 0.0463257 10.6314 0.050342 10.6127 0.0581441C10.5939 0.0659462 10.5768 0.0773804 10.5625 0.0917894L5.90039 4.68554C5.87105 4.71465 5.85439 4.75416 5.85402 4.79549C5.85366 4.83682 5.86962 4.87662 5.89844 4.90624L5.90039 4.9082L6.68164 5.67773L4.39258 7.92968C4.36324 7.95879 4.34657 7.9983 4.34621 8.03963C4.34584 8.08096 4.3618 8.12076 4.39062 8.15038L4.39258 8.15234L5.16406 8.9121L1.4707 12.5644H0.408203C0.322266 12.5644 0.25 12.6348 0.25 12.7207V13.7988C0.25 13.8848 0.320312 13.9551 0.40625 13.9551H7.14258C7.18359 13.9551 7.22266 13.9394 7.25195 13.9102L8.73828 12.4336L9.52734 13.2109C9.54168 13.2253 9.55873 13.2368 9.5775 13.2446C9.59626 13.2524 9.61639 13.2564 9.63672 13.2564C9.65705 13.2564 9.67717 13.2524 9.69594 13.2446C9.71471 13.2368 9.73176 13.2253 9.74609 13.2109L12.0332 10.9531L12.8164 11.7246C12.8307 11.739 12.8478 11.7504 12.8666 11.7582C12.8853 11.7661 12.9055 11.7701 12.9258 11.7701C12.9461 11.7701 12.9662 11.7661 12.985 11.7582C13.0038 11.7504 13.0208 11.739 13.0352 11.7246L17.6973 7.13085C17.7637 7.07226 17.7637 6.9746 17.7031 6.9121ZM6.61328 12.5527H3.48438L6.10938 9.95507L7.67383 11.4961L6.61328 12.5527ZM9.63672 11.3398L6.28906 8.04101L7.62891 6.7207L10.9766 10.0195L9.63672 11.3398ZM12.9277 9.85351L7.79492 4.79687L10.6719 1.96288L15.8047 7.02148L12.9277 9.85351Z" fill="#2E3B58"/>
</svg>
