<svg width="12" height="12" viewBox="0 0 12 12" fill="none" xmlns="http://www.w3.org/2000/svg">
<path d="M8.17813 6.75719H5.32213L6.75013 3.30359L8.17813 6.75719ZM8.49733 7.52819L9.35413 9.59999H10.2097L7.23253 2.39999H6.26773L3.29053 9.59999H4.14613L5.00293 7.52819H8.49733Z" fill="#2E3B58"/>
<path opacity="0.3" d="M3.1502 1.2L5.55012 1.2C5.86838 1.2 6.17361 1.32643 6.39865 1.55147C6.62369 1.77651 6.75012 2.08174 6.75012 2.4V9.6C6.75012 9.91826 6.62369 10.2235 6.39865 10.4485C6.17361 10.6736 5.86838 10.8 5.55012 10.8H3.1502C2.83194 10.8 2.52671 10.6736 2.30167 10.4485C2.07662 10.2235 1.9502 9.91826 1.9502 9.6V2.4C1.9502 2.08174 2.07662 1.77651 2.30167 1.55147C2.52671 1.32643 2.83194 1.2 3.1502 1.2Z" fill="#2E3B58"/>
</svg>
