<?xml version="1.0" encoding="UTF-8"?>
<svg width="170px" height="68px" viewBox="0 0 170 68" version="1.1" xmlns="http://www.w3.org/2000/svg" xmlns:xlink="http://www.w3.org/1999/xlink">
    <!-- Generator: Sketch 51.1 (57501) - http://www.bohemiancoding.com/sketch -->
    <title>icons-all</title>
    <desc>Created with Sketch.</desc>
    <defs></defs>
    <g id="icons-all" stroke="none" stroke-width="1" fill="none" fill-rule="evenodd">
        <g id="used" fill="#454545" fill-rule="nonzero">
            <path d="M17,33.40625 C7.93907832,33.40625 0.59375,26.0609217 0.59375,17 C0.59375,7.93907832 7.93907832,0.59375 17,0.59375 C26.0609217,0.59375 33.40625,7.93907832 33.40625,17 C33.40625,26.0609217 26.0609217,33.40625 17,33.40625 Z M17,30.59375 C24.5076208,30.59375 30.59375,24.5076208 30.59375,17 C30.59375,9.49237918 24.5076208,3.40625 17,3.40625 C9.49237918,3.40625 3.40625,9.49237918 3.40625,17 C3.40625,24.5076208 9.49237918,30.59375 17,30.59375 Z M17.46875,16.53125 L25.4375,16.53125 C26.2141504,16.53125 26.84375,17.1608496 26.84375,17.9375 C26.84375,18.7141504 26.2141504,19.34375 25.4375,19.34375 L16.0625,19.34375 C15.2858496,19.34375 14.65625,18.7141504 14.65625,17.9375 L14.65625,10.4375 C14.65625,9.66084957 15.2858496,9.03125 16.0625,9.03125 C16.8391504,9.03125 17.46875,9.66084957 17.46875,10.4375 L17.46875,16.53125 Z" id="cke4-icon-emoji-1"></path>
        </g>
        <g id="people" fill="#454545" fill-rule="nonzero">
            <path d="M16.5277778,17.4722222 C11.8333574,17.4722222 8.02777778,13.6666426 8.02777778,8.97222222 C8.02777778,4.27780185 11.8333574,0.472222222 16.5277778,0.472222222 C21.2221982,0.472222222 25.0277778,4.27780185 25.0277778,8.97222222 C25.0277778,13.6666426 21.2221982,17.4722222 16.5277778,17.4722222 Z M16.5277778,14.6388889 C19.6573914,14.6388889 22.1944444,12.1018358 22.1944444,8.97222222 C22.1944444,5.84260864 19.6573914,3.30555556 16.5277778,3.30555556 C13.3981642,3.30555556 10.8611111,5.84260864 10.8611111,8.97222222 C10.8611111,12.1018358 13.3981642,14.6388889 16.5277778,14.6388889 Z M3.30555556,32.1111111 C3.30555556,32.8935145 2.67129228,33.5277778 1.88888889,33.5277778 C1.10648549,33.5277778 0.472222222,32.8935145 0.472222222,32.1111111 L0.472222222,30.2222222 C0.472222222,24.2237962 5.3349073,19.3611111 11.3333333,19.3611111 L22.6666667,19.3611111 C28.6650927,19.3611111 33.5277778,24.2237962 33.5277778,30.2222222 L33.5277778,32.1111111 C33.5277778,32.8935145 32.8935145,33.5277778 32.1111111,33.5277778 C31.3287077,33.5277778 30.6944444,32.8935145 30.6944444,32.1111111 L30.6944444,30.2222222 C30.6944444,25.788603 27.1002859,22.1944444 22.6666667,22.1944444 L11.3333333,22.1944444 C6.89971409,22.1944444 3.30555556,25.788603 3.30555556,30.2222222 L3.30555556,32.1111111 Z" id="cke4-icon-emoji-2"></path>
        </g>
        <g id="nature" fill="#454545" fill-rule="nonzero">
            <path d="M7.90749358,25.7187135 L27.0925064,25.7187135 L17.5,4.99943658 L7.90749358,25.7187135 Z M18.7263375,1.22833121 L30.4263375,26.4996762 C30.8380067,27.3888587 30.1846045,28.402924 29.2,28.402924 L5.8,28.402924 C4.81539549,28.402924 4.16199326,27.3888587 4.57366247,26.4996762 L16.2736625,1.22833121 C16.7557508,0.187047493 18.2442492,0.187047493 18.7263375,1.22833121 Z M16.33225,27.428655 C16.33225,26.6874307 16.9366656,26.0865497 17.68225,26.0865497 C18.4278344,26.0865497 19.03225,26.6874307 19.03225,27.428655 L19.03225,31.8426901 C19.03225,32.5839143 18.4278344,33.1847953 17.68225,33.1847953 C16.9366656,33.1847953 16.33225,32.5839143 16.33225,31.8426901 L16.33225,27.428655 Z M8.359375,23.4344006 C7.61379059,23.4344006 7.009375,22.8335196 7.009375,22.0922953 C7.009375,21.3510711 7.61379059,20.7501901 8.359375,20.7501901 L14.0265625,20.7501901 C14.7721469,20.7501901 15.3765625,21.3510711 15.3765625,22.0922953 C15.3765625,22.8335196 14.7721469,23.4344006 14.0265625,23.4344006 L8.359375,23.4344006 Z" id="cke4-icon-emoji-3"></path>
        </g>
        <g id="food" fill="#454545" fill-rule="nonzero">
            <path d="M4.92614895,9.88888889 L14.2785863,18.8082377 L23.6310236,9.88888889 L4.92614895,9.88888889 Z M20.3005411,7.14603175 C20.9409143,4.12729399 23.6527128,1.86349206 26.8960499,1.86349206 C30.6148155,1.86349206 33.6347886,4.83962181 33.6347886,8.51746032 C33.6347886,12.1952988 30.6148155,15.1714286 26.8960499,15.1714286 C25.5642399,15.1714286 24.2912031,14.787234 23.2107012,14.0891448 L15.6981982,21.2537621 L15.6981982,30.1073016 L18.2370062,30.1073016 C18.9982636,30.1073016 19.6153846,30.7213111 19.6153846,31.4787302 C19.6153846,32.2361492 18.9982636,32.8501587 18.2370062,32.8501587 L9.99029799,32.8501587 C9.22904063,32.8501587 8.61191961,32.2361492 8.61191961,31.4787302 C8.61191961,30.7213111 9.22904063,30.1073016 9.99029799,30.1073016 L12.9414414,30.1073016 L12.9414414,21.3324104 L0.542381511,9.5075206 C-0.35433254,8.65233118 0.254062846,7.14603175 1.4961885,7.14603175 L20.3005411,7.14603175 Z M23.1658573,7.14603175 L27.0609841,7.14603175 C28.3031097,7.14603175 28.9115051,8.65233118 28.014791,9.5075206 L25.2959489,12.1004598 C25.791942,12.3143517 26.334253,12.4285714 26.8960499,12.4285714 C29.0981749,12.4285714 30.8780319,10.674554 30.8780319,8.51746032 C30.8780319,6.36036661 29.0981749,4.60634921 26.8960499,4.60634921 C25.1863241,4.60634921 23.731139,5.66366058 23.1658573,7.14603175 Z" id="cke4-icon-emoji-4"></path>
        </g>
        <g id="activities" fill="#454545" fill-rule="nonzero">
            <path d="M17.5,32.5151515 C8.93958638,32.5151515 2,25.5687816 2,17 C2,8.43121843 8.93958638,1.48484848 17.5,1.48484848 C26.0604136,1.48484848 33,8.43121843 33,17 C33,25.5687816 26.0604136,32.5151515 17.5,32.5151515 Z M17.5,29.6060606 C24.4553361,29.6060606 30.09375,23.962135 30.09375,17 C30.09375,10.037865 24.4553361,4.39393939 17.5,4.39393939 C10.5446639,4.39393939 4.90625,10.037865 4.90625,17 C4.90625,23.962135 10.5446639,29.6060606 17.5,29.6060606 Z M24.8406755,5.04107826 C25.2833727,4.37103037 26.1849003,4.187077 26.8542939,4.63020691 C27.5236874,5.07333681 27.7074611,5.97574571 27.264764,6.6457936 C25.4561143,9.38329004 24.4497283,12.7915129 24.4497283,16.3968946 C24.4497283,20.2459249 25.5974629,23.8669303 27.6332612,26.6809005 C28.103971,27.3315365 27.9586272,28.2409399 27.3086266,28.7121098 C26.6586261,29.1832798 25.7501108,29.0377939 25.2794009,28.387158 C22.8807959,25.0717002 21.5434783,20.8525766 21.5434783,16.3968946 C21.5434783,12.2255911 22.7148444,8.25864722 24.8406755,5.04107826 Z M10.3970104,5.04107826 C12.5228416,8.25864722 13.6942077,12.2255911 13.6942077,16.3968946 C13.6942077,20.8525766 12.35689,25.0717002 9.95828507,28.387158 C9.48757522,29.0377939 8.57905993,29.1832798 7.92905937,28.7121098 C7.27905881,28.2409399 7.13371497,27.3315365 7.60442482,26.6809005 C9.64022305,23.8669303 10.7879577,20.2459249 10.7879577,16.3968946 C10.7879577,12.7915129 9.78157169,9.38329004 7.97292199,6.6457936 C7.53022483,5.97574571 7.71399856,5.07333681 8.3833921,4.63020691 C9.05278564,4.187077 9.95431328,4.37103037 10.3970104,5.04107826 Z" id="cke4-icon-emoji-5"></path>
        </g>
        <g id="objects" fill="#454545" fill-rule="nonzero">
            <path d="M5.66666667,8.24074074 C4.36266101,8.24074074 3.30555556,9.27711863 3.30555556,10.5555556 L3.30555556,24.4444444 C3.30555556,25.7228814 4.36266101,26.7592593 5.66666667,26.7592593 L28.3333333,26.7592593 C29.637339,26.7592593 30.6944444,25.7228814 30.6944444,24.4444444 L30.6944444,10.5555556 C30.6944444,9.27711863 29.637339,8.24074074 28.3333333,8.24074074 L5.66666667,8.24074074 Z M5.66666667,5.46296296 L28.3333333,5.46296296 C31.2021458,5.46296296 33.5277778,7.74299433 33.5277778,10.5555556 L33.5277778,24.4444444 C33.5277778,27.2570057 31.2021458,29.537037 28.3333333,29.537037 L5.66666667,29.537037 C2.79785422,29.537037 0.472222222,27.2570057 0.472222222,24.4444444 L0.472222222,10.5555556 C0.472222222,7.74299433 2.79785422,5.46296296 5.66666667,5.46296296 Z M7.55555556,12.4074074 L32.1111111,12.4074074 L32.1111111,17.037037 L7.55555556,17.037037 L7.55555556,12.4074074 Z" id="cke4-icon-emoji-7"></path>
        </g>
        <g id="symbols" fill="#454545" fill-rule="nonzero">
            <path d="M17,28.5728152 L28.6612354,16.9115798 C31.373826,14.1989892 31.373826,9.80101083 28.6612354,7.08842023 C25.9486448,4.37582962 21.5506665,4.37582962 18.8380759,7.08842023 L17.9943689,7.93212718 C17.4451941,8.48130197 16.5548059,8.48130197 16.0056311,7.93212718 L15.1619241,7.08842023 C12.4493335,4.37582962 8.05135519,4.37582962 5.33876459,7.08842023 C2.62617398,9.80101083 2.62617398,14.1989892 5.33876459,16.9115798 L17,28.5728152 Z M30.6499732,5.09968241 C34.4609134,8.91062258 34.4609134,15.0893774 30.6499732,18.9003176 L17.9943689,31.5559219 C17.4451941,32.1050967 16.5548059,32.1050967 16.0056311,31.5559219 L3.35002677,18.9003176 C-0.46091341,15.0893774 -0.46091341,8.91062258 3.35002677,5.09968241 C7.11114742,1.33856175 13.1785796,1.28939351 17,4.95217766 C20.8214204,1.28939351 26.8888526,1.33856175 30.6499732,5.09968241 Z" id="cke4-icon-emoji-8"></path>
        </g>
        <g id="travel" fill="#454545" fill-rule="nonzero">
            <path d="M3.30555556,11.17041 L3.30555556,27.7800095 L11.4593546,23.432259 C11.8755983,23.2103105 12.3761827,23.2086355 12.7939308,23.4277935 L22.5119448,28.5260335 L30.6944444,23.8568001 L30.6944444,7.29880032 L23.2479249,11.5480565 C22.8257557,11.7889617 22.3082285,11.7980829 21.8776741,11.5722065 L12.1362894,6.46170586 L3.30555556,11.17041 Z M12.1362894,26.2585672 L2.56039847,31.3646023 C1.61657607,31.8678652 0.472222222,31.1907531 0.472222222,30.1290323 L0.472222222,10.3321709 C0.472222222,9.81589554 0.758433598,9.34131881 1.21737931,9.0966008 L11.4593546,3.63539767 C11.8755983,3.41344912 12.3761827,3.41177414 12.7939308,3.63093209 L22.5119448,8.72917208 L31.4039269,3.65508209 C32.3483707,3.11614793 33.5277778,3.79134792 33.5277778,4.87096774 L33.5277778,24.6678291 C33.5277778,25.1696229 33.257261,25.6332249 32.8182953,25.8837148 L23.2479249,31.3449179 C22.8257557,31.5858231 22.3082285,31.5949443 21.8776741,31.3690679 L12.1362894,26.2585672 Z M20.9561728,10.3321709 C20.9561728,9.55719067 21.5904361,8.92894507 22.3728395,8.92894507 C23.1552429,8.92894507 23.7895062,9.55719067 23.7895062,10.3321709 L23.7895062,29.4463819 C23.7895062,30.2213621 23.1552429,30.8496077 22.3728395,30.8496077 C21.5904361,30.8496077 20.9561728,30.2213621 20.9561728,29.4463819 L20.9561728,10.3321709 Z M10.7162963,5.55361813 C10.7162963,4.77863792 11.3505596,4.15039233 12.132963,4.15039233 C12.9153664,4.15039233 13.5496296,4.77863792 13.5496296,5.55361813 L13.5496296,24.6678291 C13.5496296,25.4428093 12.9153664,26.0710549 12.132963,26.0710549 C11.3505596,26.0710549 10.7162963,25.4428093 10.7162963,24.6678291 L10.7162963,5.55361813 Z" id="cke4-icon-emoji-6"></path>
        </g>
        <g id="flags" fill="#454545" fill-rule="nonzero">
            <path d="M31.2480754,20.1679497 C31.9126302,21.1647818 31.1980431,22.5 30,22.5 L7,22.5 C6.17157288,22.5 5.5,21.8284271 5.5,21 L5.5,6 C5.5,5.17157288 6.17157288,4.5 7,4.5 L30,4.5 C31.1980431,4.5 31.9126302,5.8352182 31.2480754,6.83205029 L26.8027756,13.5 L31.2480754,20.1679497 Z M8.5,19.5 L27.1972244,19.5 L23.7519246,14.3320503 C23.4160251,13.8282012 23.4160251,13.1717988 23.7519246,12.6679497 L27.1972244,7.5 L8.5,7.5 L8.5,19.5 Z M8.5,31 C8.5,31.8284271 7.82842712,32.5 7,32.5 C6.17157288,32.5 5.5,31.8284271 5.5,31 L5.5,3 C5.5,2.17157288 6.17157288,1.5 7,1.5 C7.82842712,1.5 8.5,2.17157288 8.5,3 L8.5,31 Z" id="cke4-icon-emoji-9"></path>
        </g>
    </g>
</svg>
