<?xml version="1.0" encoding="UTF-8" standalone="no"?><!DOCTYPE svg PUBLIC "-//W3C//DTD SVG 1.1//EN" "http://www.w3.org/Graphics/SVG/1.1/DTD/svg11.dtd"><svg width="100%" height="100%" viewBox="0 0 15 15" version="1.1" xmlns="http://www.w3.org/2000/svg" xmlns:xlink="http://www.w3.org/1999/xlink" xml:space="preserve" style="fill-rule:evenodd;clip-rule:evenodd;stroke-linejoin:round;stroke-miterlimit:1.41421;"><g><path d="M5.703,0c3.148,0 5.704,2.556 5.704,5.703c0,3.148 -2.556,5.704 -5.704,5.704c-3.147,0 -5.703,-2.556 -5.703,-5.704c0,-3.147 2.556,-5.703 5.703,-5.703Zm0,1.202c2.485,0 4.502,2.017 4.502,4.501c0,2.485 -2.017,4.502 -4.502,4.502c-2.484,0 -4.501,-2.017 -4.501,-4.502c0,-2.484 2.017,-4.501 4.501,-4.501Z" style="fill:#b4b4b4;"/><path d="M9.331,7.985l-1.518,1.517l5.498,5.498l1.517,-1.518l-5.497,-5.497Z" style="fill:#b4b4b4;"/></g></svg>