<svg width="20" height="20" viewBox="0 0 20 20" fill="none" xmlns="http://www.w3.org/2000/svg">
<path d="M6.73379 14.4037C6.73085 14.3154 6.75128 14.2278 6.79303 14.1498C6.83478 14.0718 6.89637 14.0063 6.97157 13.9597C7.04677 13.9132 7.13293 13.8873 7.22133 13.8847C7.30973 13.8821 7.39725 13.9029 7.47504 13.945C7.54754 13.9838 7.61254 14.0263 7.67129 14.0725C7.73004 14.1175 7.78129 14.16 7.82754 14.1988C7.86743 14.2356 7.91948 14.2565 7.97379 14.2575C8.03879 14.2575 8.12379 14.2075 8.22754 14.1112C8.33129 14.0137 8.44629 13.8837 8.56879 13.72C8.69379 13.5575 8.82004 13.385 8.95004 13.2025C9.08004 13.02 9.20004 12.835 9.31254 12.6462L9.59504 12.1588C9.67254 12.0213 9.72879 11.91 9.76129 11.8263C9.70973 11.607 9.65431 11.3886 9.59504 11.1713C9.53581 10.9543 9.48038 10.7364 9.42879 10.5175C9.38389 10.3385 9.32838 10.1624 9.26254 9.99C9.20827 9.84684 9.12914 9.71438 9.02879 9.59875C8.93933 9.49416 8.82499 9.41378 8.69629 9.365C8.54487 9.31418 8.3871 9.28473 8.22754 9.2775C8.08992 9.27652 7.95255 9.2895 7.81754 9.31625V9.0725L9.61254 8.75C9.85997 9.01737 10.0554 9.32852 10.1888 9.6675C10.2538 9.83 10.31 9.99625 10.355 10.1663C10.4013 10.335 10.45 10.52 10.5013 10.7225C10.5988 10.5788 10.72 10.3975 10.8638 10.175C11.0134 9.94522 11.1797 9.72672 11.3613 9.52125C11.5488 9.30625 11.7488 9.1275 11.9563 8.98375C12.1487 8.84664 12.3755 8.76571 12.6113 8.75C12.7738 8.75 12.92 8.7925 13.05 8.87625C13.1813 8.96125 13.2463 9.095 13.2463 9.27625C13.2463 9.62875 13.07 9.805 12.7188 9.805C12.5926 9.80639 12.468 9.77632 12.3563 9.7175C12.2455 9.65865 12.1218 9.62816 11.9963 9.62875C11.8713 9.62875 11.7425 9.69125 11.605 9.81375C11.4603 9.9467 11.3297 10.0941 11.215 10.2538C10.9989 10.5501 10.7966 10.8562 10.6088 11.1713L11.1663 13.4862C11.1885 13.6336 11.2275 13.7778 11.2825 13.9163C11.3111 13.9929 11.3506 14.0649 11.4 14.13C11.4178 14.1564 11.4409 14.1788 11.4678 14.1958C11.4947 14.2128 11.5248 14.224 11.5563 14.2288C11.6533 14.2216 11.7456 14.1839 11.82 14.1213C12.0275 13.9533 12.2087 13.7553 12.3575 13.5337C12.4225 13.4375 12.4738 13.3463 12.5138 13.2613L12.7475 13.3787C12.6727 13.5409 12.581 13.6947 12.4738 13.8375C12.3405 14.0237 12.1939 14.2 12.035 14.365C11.8782 14.5284 11.7085 14.6788 11.5275 14.815C11.3513 14.945 11.1913 15.0062 11.0488 15C10.9196 15.0049 10.7935 14.9591 10.6975 14.8725C10.6026 14.7841 10.5171 14.6861 10.4425 14.58C10.3697 14.4372 10.3143 14.2861 10.2775 14.13C10.2217 13.9204 10.1725 13.709 10.13 13.4963C10.0862 13.2749 10.0441 13.0532 10.0038 12.8313C9.97481 12.6547 9.92876 12.4814 9.86629 12.3137L9.61254 12.7825C9.50718 12.978 9.39031 13.1671 9.26254 13.3488C9.12504 13.545 8.98504 13.7438 8.84129 13.945C8.7058 14.1382 8.54852 14.3152 8.37254 14.4725C8.20379 14.6225 8.04129 14.7488 7.88504 14.8538C7.73924 14.9547 7.56478 15.006 7.38754 15C7.22222 15.0017 7.06206 14.9425 6.93754 14.8337C6.87448 14.7811 6.8236 14.7154 6.78842 14.6411C6.75325 14.5669 6.73461 14.4859 6.73379 14.4037ZM14.3713 15C14.7213 14.55 14.9913 14.065 15.1813 13.545C15.3706 13.0156 15.4662 12.4572 15.4638 11.895C15.4638 11.3075 15.37 10.755 15.1813 10.2338C14.9856 9.70158 14.7118 9.20152 14.3688 8.75H15.2863C16.0423 9.6215 16.4524 10.7401 16.4388 11.8938C16.4388 12.4863 16.3475 13.04 16.1663 13.555C15.9838 14.0687 15.6913 14.55 15.2863 15H14.3688H14.3713ZM4.71254 15C4.32559 14.5853 4.02628 14.0968 3.83254 13.5637C3.64677 13.0268 3.5546 12.4619 3.56004 11.8938C3.56004 10.7025 3.94379 9.655 4.71254 8.75H5.62004C5.27476 9.19477 5.00453 9.69301 4.82004 10.225C4.63593 10.7623 4.5401 11.3258 4.53629 11.8938C4.52969 13.023 4.91243 14.12 5.62004 15H4.71254Z" fill="#2E3B58"/>
<path d="M19.375 1.25H0.625L0 1.875V18.125L0.625 18.75H19.375L20 18.125V1.875L19.375 1.25ZM18.75 17.5H1.25V6.25H18.75V17.5ZM18.75 5H1.25V2.5H18.75V5Z" fill="#2E3B58"/>
</svg>
