<svg width="12" height="12" viewBox="0 0 12 12" fill="none" xmlns="http://www.w3.org/2000/svg">
<path d="M4.04013 8.64225C4.03836 8.58922 4.05062 8.53665 4.07567 8.48987C4.10072 8.4431 4.13767 8.40376 4.18279 8.37583C4.22792 8.34791 4.27961 8.33238 4.33265 8.33083C4.38569 8.32928 4.4382 8.34176 4.48488 8.367C4.52838 8.39025 4.56738 8.41575 4.60263 8.4435C4.63788 8.4705 4.66863 8.496 4.69638 8.51925C4.72031 8.54137 4.75154 8.55392 4.78413 8.5545C4.82313 8.5545 4.87413 8.5245 4.93638 8.46675C4.99863 8.40825 5.06763 8.33025 5.14113 8.232C5.21613 8.1345 5.29188 8.031 5.36988 7.9215C5.44788 7.812 5.51988 7.701 5.58738 7.58775L5.75688 7.29525C5.80338 7.21275 5.83713 7.146 5.85663 7.09575C5.82569 6.96417 5.79244 6.83315 5.75688 6.70275C5.72134 6.57259 5.68808 6.44182 5.65713 6.3105C5.63019 6.20311 5.59688 6.09743 5.55738 5.994C5.52482 5.9081 5.47734 5.82863 5.41713 5.75925C5.36345 5.6965 5.29484 5.64827 5.21763 5.619C5.12678 5.58851 5.03211 5.57084 4.93638 5.5665C4.8538 5.56591 4.77138 5.5737 4.69038 5.58975V5.4435L5.76738 5.25C5.91583 5.41042 6.03309 5.59711 6.11313 5.8005C6.15213 5.898 6.18588 5.99775 6.21288 6.09975C6.24063 6.201 6.26988 6.312 6.30063 6.4335C6.35913 6.34725 6.43188 6.2385 6.51813 6.105C6.60791 5.96713 6.70768 5.83603 6.81663 5.71275C6.92913 5.58375 7.04913 5.4765 7.17363 5.39025C7.2891 5.30799 7.42516 5.25943 7.56663 5.25C7.66413 5.25 7.75188 5.2755 7.82988 5.32575C7.90863 5.37675 7.94763 5.457 7.94763 5.56575C7.94763 5.77725 7.84188 5.883 7.63113 5.883C7.55539 5.88383 7.48064 5.86579 7.41363 5.8305C7.34713 5.79519 7.27292 5.7769 7.19763 5.77725C7.12263 5.77725 7.04538 5.81475 6.96288 5.88825C6.87606 5.96802 6.79765 6.05648 6.72888 6.15225C6.59919 6.33003 6.47781 6.51373 6.36513 6.70275L6.69963 8.09175C6.71295 8.18013 6.73635 8.2667 6.76938 8.34975C6.78648 8.39572 6.81024 8.43893 6.83988 8.478C6.85056 8.49382 6.8644 8.50726 6.88054 8.51746C6.89668 8.52766 6.91475 8.5344 6.93363 8.53725C6.99185 8.53293 7.04723 8.51036 7.09188 8.47275C7.21636 8.372 7.32507 8.25318 7.41438 8.12025C7.45338 8.0625 7.48413 8.00775 7.50813 7.95675L7.64838 8.02725C7.60349 8.12454 7.54843 8.2168 7.48413 8.3025C7.40417 8.41425 7.31619 8.52003 7.22088 8.619C7.12678 8.71701 7.02495 8.80731 6.91638 8.889C6.81063 8.967 6.71463 9.00375 6.62913 9C6.55159 9.00293 6.47598 8.97548 6.41838 8.9235C6.36141 8.87048 6.31013 8.81166 6.26538 8.748C6.22167 8.6623 6.18843 8.57164 6.16638 8.478C6.13289 8.35221 6.10338 8.2254 6.07788 8.09775C6.05157 7.96495 6.02632 7.83195 6.00213 7.69875C5.98474 7.59282 5.95711 7.48884 5.91963 7.38825L5.76738 7.6695C5.70416 7.78681 5.63404 7.90026 5.55738 8.00925C5.47488 8.127 5.39088 8.24625 5.30463 8.367C5.22333 8.48294 5.12896 8.58914 5.02338 8.6835C4.92213 8.7735 4.82463 8.84925 4.73088 8.91225C4.6434 8.97282 4.53872 9.00359 4.43238 9C4.33319 9.001 4.23709 8.9655 4.16238 8.90025C4.12454 8.86866 4.09401 8.82923 4.07291 8.78468C4.0518 8.74014 4.04062 8.69154 4.04013 8.64225ZM8.62263 9C8.83263 8.73 8.99463 8.439 9.10863 8.127C9.22223 7.80936 9.27959 7.47434 9.27813 7.137C9.27813 6.7845 9.22188 6.453 9.10863 6.14025C8.99121 5.82095 8.82691 5.52091 8.62113 5.25H9.17163C9.62526 5.7729 9.8713 6.44405 9.86313 7.13625C9.86313 7.49175 9.80838 7.824 9.69963 8.133C9.59013 8.44125 9.41463 8.73 9.17163 9H8.62113H8.62263ZM2.82738 9C2.59521 8.75119 2.41562 8.45809 2.29938 8.13825C2.18792 7.81607 2.13261 7.47715 2.13588 7.13625C2.13588 6.4215 2.36613 5.793 2.82738 5.25H3.37188C3.16471 5.51686 3.00257 5.81581 2.89188 6.135C2.78141 6.45736 2.72391 6.79549 2.72163 7.13625C2.71767 7.81378 2.94731 8.47198 3.37188 9H2.82738Z" fill="#2E3B58"/>
<path d="M11.625 0.75H0.375L0 1.125V10.875L0.375 11.25H11.625L12 10.875V1.125L11.625 0.75ZM11.25 10.5H0.75V3.75H11.25V10.5ZM11.25 3H0.75V1.5H11.25V3Z" fill="#2E3B58"/>
</svg>
