<svg width="12" height="12" viewBox="0 0 12 12" fill="none" xmlns="http://www.w3.org/2000/svg">
<g clip-path="url(#clip0_6129_130430)">
<path fill-rule="evenodd" clip-rule="evenodd" d="M6.29102 2.73282C6.23828 3.09903 6.21192 3.47403 6.21192 3.85782C6.21192 4.3295 6.26758 4.74258 6.37891 5.09708C6.49024 5.44864 6.64551 5.74307 6.84473 5.98038C7.04395 6.21475 7.27832 6.392 7.54785 6.51212C7.81738 6.6293 8.11035 6.6879 8.42676 6.6879C8.85449 6.6879 9.22217 6.60001 9.52979 6.42423C9.84033 6.24844 10.0791 5.99796 10.2461 5.67276C10.4131 5.34757 10.4966 4.96231 10.4966 4.517C10.4966 4.09805 10.4204 3.7421 10.2681 3.44913C10.1157 3.15616 9.90039 2.9335 9.62207 2.78116C9.34375 2.62589 9.01709 2.54825 8.64209 2.54825C8.38135 2.54825 8.15283 2.5834 7.95654 2.65372C7.76319 2.7211 7.59766 2.81339 7.45996 2.93057C7.32227 3.04776 7.20947 3.17813 7.12158 3.32169H7.07324C7.09375 2.84415 7.16992 2.41641 7.30176 2.03848C7.4336 1.65762 7.65332 1.35733 7.96094 1.1376C8.26856 0.914948 8.69336 0.803619 9.23535 0.803619C9.37305 0.803619 9.51074 0.812409 9.64844 0.829987C9.78613 0.847565 9.91065 0.873932 10.022 0.909088V0.166412C9.91944 0.137115 9.78906 0.116608 9.63086 0.104889C9.47559 0.0931702 9.3335 0.0873108 9.20459 0.0873108C8.72119 0.0873108 8.30811 0.156158 7.96533 0.293854C7.62256 0.431549 7.33692 0.621979 7.1084 0.865143C6.87988 1.10538 6.69971 1.38516 6.56787 1.7045C6.43897 2.02383 6.34668 2.36661 6.29102 2.73282ZM9.29248 5.60245C9.07276 5.83682 8.77979 5.95401 8.41358 5.95401C8.19385 5.95401 8.00196 5.90714 7.83789 5.81339C7.67383 5.71671 7.5376 5.59073 7.4292 5.43546C7.3208 5.27725 7.24024 5.10587 7.1875 4.9213C7.13477 4.7338 7.1084 4.54776 7.1084 4.36319C7.1084 4.18448 7.1626 4.01016 7.271 3.84024C7.38233 3.66739 7.5376 3.52383 7.73682 3.40958C7.93897 3.29532 8.17481 3.23819 8.44434 3.23819C8.83985 3.23819 9.13574 3.35391 9.33203 3.58536C9.52832 3.81387 9.62647 4.12589 9.62647 4.52139C9.62647 5.00479 9.51514 5.36514 9.29248 5.60245ZM3.02588 6.60001H3.90039V0.175201H3.1665L1.34277 1.59024L1.79541 2.17032L2.5293 1.57706C2.6377 1.48624 2.73291 1.40567 2.81494 1.33536C2.8999 1.26212 2.98047 1.18594 3.05664 1.10684C3.05078 1.21817 3.04492 1.33389 3.03906 1.45401C3.0332 1.5712 3.02881 1.69571 3.02588 1.82755V2.25381V6.60001ZM3.02588 12.6H3.90039V8.5752H3.1665L1.34277 9.99024L1.79541 10.5703L2.5293 9.97706C2.6377 9.88624 2.73291 9.80567 2.81494 9.73536C2.8999 9.66212 2.98047 9.58595 3.05664 9.50684C3.05078 9.61817 3.04492 9.73389 3.03906 9.85401C3.0332 9.9712 3.02881 10.0957 3.02588 10.2275V10.6538V12.6ZM8.05451 12.6H8.97785L10.4834 9.20802V8.5752H6.11963V9.36182H9.53858L8.05451 12.6Z" fill="#2E3B58"/>
</g>
<defs>
<clipPath id="clip0_6129_130430">
<rect width="12" height="12" fill="white"/>
</clipPath>
</defs>
</svg>
