<svg width="20" height="20" viewBox="0 0 20 20" fill="none" xmlns="http://www.w3.org/2000/svg">
<g clip-path="url(#clip0_4317_93160)">
<path fill-rule="evenodd" clip-rule="evenodd" d="M10.4849 4.55469C10.397 5.16504 10.353 5.79004 10.353 6.42969C10.353 7.21582 10.4458 7.9043 10.6313 8.49512C10.8169 9.08105 11.0757 9.57178 11.4077 9.96729C11.7397 10.3579 12.1304 10.6533 12.5796 10.8535C13.0288 11.0488 13.5171 11.1465 14.0444 11.1465C14.7573 11.1465 15.3701 11 15.8828 10.707C16.4004 10.4141 16.7983 9.99658 17.0767 9.45459C17.355 8.9126 17.4941 8.27051 17.4941 7.52832C17.4941 6.83008 17.3672 6.23682 17.1133 5.74854C16.8594 5.26025 16.5005 4.88916 16.0366 4.63525C15.5728 4.37646 15.0283 4.24707 14.4033 4.24707C13.9688 4.24707 13.5879 4.30566 13.2607 4.42285C12.9385 4.53516 12.6626 4.68896 12.4331 4.88428C12.2036 5.07959 12.0156 5.29688 11.8691 5.53613H11.7886C11.8228 4.74023 11.9497 4.02734 12.1694 3.39746C12.3892 2.7627 12.7554 2.26221 13.2681 1.896C13.7808 1.5249 14.4888 1.33936 15.3921 1.33936C15.6216 1.33936 15.8511 1.354 16.0806 1.3833C16.3101 1.4126 16.5176 1.45654 16.7031 1.51514V0.277344C16.5322 0.228516 16.3149 0.194336 16.0513 0.174805C15.7925 0.155273 15.5557 0.145508 15.3408 0.145508C14.5352 0.145508 13.8467 0.260254 13.2754 0.489746C12.7041 0.719238 12.228 1.03662 11.8472 1.44189C11.4663 1.84229 11.166 2.30859 10.9463 2.84082C10.7314 3.37305 10.5776 3.94434 10.4849 4.55469ZM15.4873 9.3374C15.1211 9.72803 14.6328 9.92334 14.0225 9.92334C13.6562 9.92334 13.3364 9.84521 13.063 9.68896C12.7896 9.52783 12.5625 9.31787 12.3818 9.05908C12.2012 8.79541 12.0669 8.50977 11.979 8.20215C11.8911 7.88965 11.8472 7.57959 11.8472 7.27197C11.8472 6.97412 11.9375 6.68359 12.1182 6.40039C12.3037 6.1123 12.5625 5.87305 12.8945 5.68262C13.2314 5.49219 13.6245 5.39697 14.0737 5.39697C14.7329 5.39697 15.2261 5.58984 15.5532 5.97559C15.8804 6.35645 16.0439 6.87646 16.0439 7.53564C16.0439 8.34131 15.8584 8.94189 15.4873 9.3374ZM5.04297 11H6.50049V0.291992H5.27734L2.23779 2.65039L2.99219 3.61719L4.21533 2.62842C4.396 2.47705 4.55469 2.34277 4.69141 2.22559C4.83301 2.10352 4.96729 1.97656 5.09424 1.84473C5.08447 2.03027 5.07471 2.22314 5.06494 2.42334C5.05518 2.61865 5.04785 2.82617 5.04297 3.0459V3.75635V11ZM5.04297 21H6.50049V14.292H5.27734L2.23779 16.6504L2.99219 17.6172L4.21533 16.6284C4.396 16.4771 4.55469 16.3428 4.69141 16.2256C4.83301 16.1035 4.96729 15.9766 5.09424 15.8447C5.08447 16.0303 5.07471 16.2231 5.06494 16.4233C5.05518 16.6187 5.04785 16.8262 5.04297 17.0459V17.7563V21ZM13.424 21H14.9629L17.4722 15.3467V14.292H10.1992V15.603H15.8975L13.424 21Z" fill="#2E3B58"/>
</g>
<defs>
<clipPath id="clip0_4317_93160">
<rect width="20" height="20" fill="white"/>
</clipPath>
</defs>
</svg>
