<svg width="18" height="18" viewBox="0 0 18 18" fill="none" xmlns="http://www.w3.org/2000/svg">
<path d="M9.07712 13L10.0681 11.584C10.1246 11.5033 10.1964 11.4345 10.2794 11.3816C10.3625 11.3286 10.4552 11.2926 10.5522 11.2754C10.6491 11.2583 10.7486 11.2604 10.8447 11.2817C10.9409 11.303 11.0319 11.343 11.1126 11.3995C11.1933 11.456 11.2621 11.5278 11.315 11.6108C11.368 11.6939 11.4041 11.7866 11.4212 11.8836C11.4383 11.9805 11.4362 12.08 11.4149 12.1761C11.3936 12.2723 11.3536 12.3633 11.2971 12.444L10.1491 14.084C10.0914 14.1666 10.0176 14.2367 9.93212 14.29C9.06493 15.197 7.9016 15.7635 6.65281 15.8868C5.40403 16.0101 4.15237 15.6822 3.12451 14.9623C2.09666 14.2425 1.36057 13.1783 1.04957 11.9626C0.73857 10.7469 0.873214 9.46002 1.42912 8.33501C1.45008 8.23647 1.49091 8.14324 1.54912 8.06101L2.69612 6.42201C2.75107 6.3378 2.8224 6.26549 2.90587 6.2094C2.98933 6.15331 3.08322 6.11457 3.18195 6.0955C3.28069 6.07642 3.38225 6.0774 3.4806 6.09837C3.57895 6.11933 3.67208 6.15987 3.75445 6.21755C3.83682 6.27524 3.90674 6.3489 3.96007 6.43415C4.0134 6.51941 4.04904 6.61452 4.06487 6.71382C4.0807 6.81313 4.07639 6.91461 4.05221 7.01222C4.02803 7.10983 3.98447 7.20158 3.92412 7.28201L2.93312 8.70001L2.93912 8.70301C2.44022 9.5172 2.27072 10.491 2.46517 11.4259C2.65963 12.3608 3.20339 13.1863 3.98557 13.734C4.76775 14.2817 5.72941 14.5104 6.67442 14.3735C7.61943 14.2365 8.47661 13.7442 9.07112 12.997L9.07712 13.001V13ZM14.5711 7.66501C14.55 7.76349 14.5092 7.85669 14.4511 7.93901L13.3041 9.57801C13.2492 9.66223 13.1778 9.73453 13.0944 9.79062C13.0109 9.84672 12.917 9.88545 12.8183 9.90453C12.7195 9.9236 12.618 9.92262 12.5196 9.90166C12.4213 9.88069 12.3282 9.84016 12.2458 9.78247C12.1634 9.72479 12.0935 9.65113 12.0402 9.56587C11.9868 9.48061 11.9512 9.3855 11.9354 9.2862C11.9195 9.18689 11.9238 9.08542 11.948 8.98781C11.9722 8.8902 12.0158 8.79845 12.0761 8.71801L12.9361 7.48801C13.4983 6.67302 13.7154 5.66877 13.54 4.69433C13.3646 3.7199 12.811 2.85437 11.9999 2.28658C11.1888 1.71878 10.186 1.49479 9.21042 1.66348C8.2348 1.83216 7.36548 2.37983 6.79212 3.18701L5.93212 4.41601C5.81808 4.57899 5.64396 4.68998 5.44808 4.72458C5.2522 4.75918 5.05059 4.71455 4.88762 4.60051C4.72464 4.48647 4.61365 4.31235 4.57905 4.11647C4.54444 3.92059 4.58908 3.71899 4.70312 3.55601L5.85112 1.91601C5.90884 1.83343 5.98265 1.76336 6.06812 1.71001C6.93531 0.803013 8.09864 0.236556 9.34742 0.113229C10.5962 -0.0100969 11.8479 0.317862 12.8757 1.03771C13.9036 1.75756 14.6397 2.8217 14.9507 4.03741C15.2617 5.25312 15.127 6.54001 14.5711 7.66501ZM10.0081 5.13301C10.0888 5.18952 10.1576 5.26138 10.2106 5.34449C10.2635 5.42761 10.2996 5.52033 10.3167 5.61738C10.3338 5.71443 10.3315 5.81389 10.3102 5.91009C10.2888 6.00629 10.2487 6.09733 10.1921 6.17801L7.03712 10.683C6.92307 10.846 6.74896 10.957 6.55308 10.9916C6.3572 11.0262 6.15559 10.9816 5.99262 10.8675C5.82964 10.7535 5.71865 10.5794 5.68405 10.3835C5.64945 10.1876 5.69408 9.98599 5.80812 9.82301L8.96312 5.31701C9.01963 5.23628 9.09149 5.16748 9.1746 5.11454C9.25771 5.0616 9.35044 5.02555 9.44749 5.00846C9.54454 4.99138 9.644 4.99358 9.7402 5.01495C9.83639 5.03632 9.92743 5.07644 10.0081 5.13301ZM14.9271 15.695L13.5131 17.109C13.4445 17.1827 13.3617 17.2418 13.2697 17.2828C13.1777 17.3238 13.0783 17.3458 12.9776 17.3476C12.8769 17.3494 12.7769 17.3309 12.6835 17.2931C12.5901 17.2554 12.5053 17.1993 12.4341 17.128C12.3629 17.0568 12.3067 16.972 12.269 16.8786C12.2313 16.7852 12.2128 16.6852 12.2145 16.5845C12.2163 16.4838 12.2383 16.3845 12.2793 16.2925C12.3203 16.2005 12.3794 16.1177 12.4531 16.049L13.8671 14.634L12.4521 13.22C12.3156 13.0785 12.2401 12.889 12.2419 12.6924C12.2437 12.4957 12.3226 12.3076 12.4617 12.1686C12.6009 12.0297 12.789 11.9509 12.9857 11.9493C13.1823 11.9476 13.3717 12.0233 13.5131 12.16L14.9271 13.574L16.3411 12.159C16.4818 12.0183 16.6726 11.9393 16.8716 11.9393C17.0706 11.9393 17.2614 12.0183 17.4021 12.159C17.5428 12.2997 17.6219 12.4905 17.6219 12.6895C17.6219 12.8885 17.5428 13.0793 17.4021 13.22L15.9881 14.634L17.4021 16.049C17.5346 16.1912 17.6067 16.3792 17.6033 16.5735C17.5999 16.7678 17.5212 16.9532 17.3837 17.0906C17.2463 17.228 17.0609 17.3068 16.8666 17.3102C16.6723 17.3136 16.4843 17.2415 16.3421 17.109L14.9271 15.695Z" fill="#2E3B58"/>
</svg>
