<?xml version="1.0" standalone="no"?>
<!DOCTYPE svg PUBLIC "-//W3C//DTD SVG 1.1//EN" "http://www.w3.org/Graphics/SVG/1.1/DTD/svg11.dtd" >
<svg xmlns="http://www.w3.org/2000/svg" xmlns:xlink="http://www.w3.org/1999/xlink" version="1.1">
<metadata></metadata>
<defs>
<font id="indie_flowerregular" horiz-adv-x="998" >
<font-face units-per-em="2048" ascent="1638" descent="-410" />
<missing-glyph horiz-adv-x="768" />
<glyph horiz-adv-x="0" />
<glyph unicode="&#xd;" horiz-adv-x="768" />
<glyph unicode=" "  horiz-adv-x="768" />
<glyph unicode="&#x09;" horiz-adv-x="768" />
<glyph unicode="&#xa0;" horiz-adv-x="768" />
<glyph unicode="!" horiz-adv-x="306" d="M32 98q0 60 44 86q48 28 108 28q20 0 36 -12t28 -29t17 -36t5 -37q0 -22 -16 -40t-38 -32t-48 -21t-44 -7q-50 0 -71 27t-21 73zM76 1672l98 16l2 -36q0 -36 1 -94t2 -134t3 -158t2 -165t2 -155t3 -127t3 -79v-15t1 -26t1 -29v-22q0 -16 1 -37t-2 -41t-13 -33t-34 -13 q-14 0 -30 2t-22 22q-8 52 -11 141t-4 196t0 224t1 224v195q0 92 -4 144z" />
<glyph unicode="&#x22;" horiz-adv-x="480" d="M20 1556q6 16 17 18t23 2q20 0 36 -29t30 -76t27 -103l26 -112t26 -104t27 -76q-12 -24 -24 -32t-34 -8q-28 0 -50 32t-39 82t-29 112t-20 119t-11 105t-5 70zM290 1536v76q2 4 10 12q4 6 8 10h6q2 0 2 1t2 1q26 0 44 -38t30 -94t18 -123t10 -126t4 -101v-50v-68 q-4 -6 -18 -20q-14 -12 -20 -16l-6 -2h-4q-14 0 -25 14t-21 32t-16 33t-6 19q-4 68 -8 124t-6 107t-3 101t-1 108z" />
<glyph unicode="#" horiz-adv-x="1574" d="M18 484q0 38 44 64t111 46t144 34t144 25t111 19t44 20v268q0 8 8 17t19 16t24 11t21 4q0 -32 4 -68t10 -73t14 -72t14 -67q32 -12 55 -16t53 -4q10 0 25 4t28 13t23 19t10 22q0 20 -6 39t-14 39t-14 40q-6 16 -6 36q0 28 14 54t44 26h10h10q2 -16 10 -57t20 -84t24 -76 t22 -33h326q2 0 11 -9l21 -21l25 -25l21 -21v-6q0 -4 1 -4t1 -2q0 -8 -7 -16t-17 -15t-20 -11t-16 -4q-2 0 -7 2t-12 6t-12 6t-7 4q-4 0 -16 3t-27 6t-31 6t-22 3h-10h-10q-20 -4 -50 -6t-56 -6q-32 -4 -66 -6v-134l18 -18q40 6 72 10t59 6t56 2h65q32 0 67 1t62 -7t45 -29 t18 -65q0 -34 -40 -34h-20q-8 0 -33 3t-54 6t-55 6t-30 3h-10q-16 0 -47 -6t-64 -14t-59 -14q-28 -6 -32 -6v-13v-19t-1 -20t-1 -14q0 -48 11 -93t11 -93v-5v-5v-6l-14 -14l-22 -22l-24 -24t-18 -16l-4 -2h-4q-10 0 -18 23t-14 58t-10 76t-8 77t-8 62t-10 34l-20 16 l-134 -36v-172q0 -4 -8 -11t-10 -9q-6 -4 -21 -11t-19 -7q-24 0 -34 14t-15 36t-5 47t-3 46t-10 36t-27 15q-4 0 -11 -1t-9 -1q-8 -2 -38 -6t-70 -10t-84 -13t-84 -13t-69 -11t-39 -5h-12q-20 0 -34 18t-14 40q0 4 1 10t1 8q100 22 193 41t191 35q8 2 21 5t25 6t21 5t9 4 v132l-18 22q-2 0 -9 1t-16 1h-18h-13q-66 0 -132 -18t-129 -42t-122 -42t-109 -18q-22 0 -36 8t-14 36zM750 536q0 -6 2 -22t5 -34t6 -35t7 -21l172 36q0 8 2 16t2 14v10t-1 14t-1 19t-1 16t-1 9q-2 8 -9 23t-11 15h-134q-2 0 -9 -8t-9 -12q-4 -6 -12 -21t-8 -19z" />
<glyph unicode="$" horiz-adv-x="1190" d="M20 596q6 24 22 32t36 8q42 0 80 -36t78 -80t80 -80t88 -36q28 0 46 35t31 89t21 121t12 129t5 114t1 76v14v21v21v12q-28 36 -66 65t-70 59t-55 66t-23 90q0 6 1 24t1 24q48 70 118 118t152 74q4 40 5 92t11 102t32 92t66 60q0 -32 8 -58t12 -58q0 -2 -4 -8t-6 -12 t-6 -12l-4 -6v-10v-19t-1 -22t-1 -17q0 -4 1 -13t1 -20v-21v-14q26 -14 43 -17t43 -3q4 0 16 1t14 1q0 28 -1 70t6 80t27 66t64 28v-302q6 -14 21 -22t31 -16t29 -17t13 -21q0 -8 -12 -19t-29 -20t-37 -15t-36 -4q-8 -80 -24 -150t-16 -148v-17v-26t1 -25t1 -18 q42 -52 95 -96t100 -93t80 -107t33 -138q0 -210 -111 -323t-313 -125q4 -20 4 -44t-7 -45t-23 -35t-40 -14q-4 0 -15 1t-15 1q-6 56 -12 104q-8 40 -17 74t-21 42q-4 -8 -8 -42t-12 -69t-19 -64t-25 -29q-42 0 -56 31t-16 72t0 79t-6 52q-12 20 -49 47t-87 56t-103 60 t-96 63t-69 62t-18 58zM422 1282q0 -16 1 -29t7 -24t18 -20t34 -17l6 -4q4 -6 11 -11t14 -7t9 0q16 10 23 30t10 45t3 49v42q0 8 -4 19t-11 22t-15 18t-18 7q-24 0 -41 -11t-27 -29t-15 -39t-5 -41zM554 453q-2 -53 12 -82t50 -21q0 4 7 47t16 107t19 138t20 138t16 108 t6 48v18q4 6 -3 10t-17 4t-19 -2t-7 -6q-8 -46 -24 -112t-33 -136t-29 -138t-14 -121zM651 1130q-1 -22 2 -44t13 -40t26 -28q28 20 48 54t30 75t14 87t5 89t-1 81v64q-4 0 -17 -1t-29 -3t-29 -3t-21 -1q-4 0 -11 -8t-7 -10q-8 -44 -12 -78t-7 -65t-3 -62v-69q0 -16 -1 -38z M748 355q0 -15 1 -33t1 -33v-21q4 -4 19 -10t19 -8h8q64 0 110 29t76 74t44 100t14 107q0 112 -52 186t-142 138q-26 -14 -43 -49t-28 -83t-17 -102t-8 -106t-2 -96v-72v-21z" />
<glyph unicode="%" horiz-adv-x="1304" d="M18 826q0 50 19 102t53 93t78 67q48 26 100 26q46 0 95 -19t88 -52t64 -78t25 -97q0 -54 -22 -104t-60 -88t-87 -61t-101 -23q-44 0 -89 19t-81 51t-59 74t-23 90zM134 836q0 -18 3 -41t13 -44t24 -37t38 -22q28 -8 68 2t76 32t61 53t25 65q0 30 -14 58t-38 50t-53 35 t-57 13q-32 0 -60 -16t-47 -40t-29 -52t-10 -56zM290 58q0 38 31 110t81 163t117 194t137 205t140 196t127 166t99 115t54 43q8 0 14 -9t7 -18t-1 -19v-12q-48 -80 -102 -145l-108 -130t-104 -137t-90 -164q-12 -20 -38 -74t-62 -122t-76 -143t-77 -137t-67 -102 q-28 -40 -44 -40q-24 0 -31 20t-7 40zM728 200q0 36 11 82t32 91t49 90t63 78t74 54t81 21q44 0 83 -24t68 -61t46 -82t17 -85q0 -58 -28 -120t-73 -113t-102 -83t-117 -32q-44 0 -81 12t-64 34t-43 56t-16 82zM824 177q0 -17 2 -25q16 -16 35 -18t43 -2q44 0 85 17t74 47 t53 70q20 42 20 86q0 20 -6 45t-18 48t-30 39t-44 16q-44 0 -84 -33t-69 -80t-45 -99t-16 -88v-23z" />
<glyph unicode="&#x26;" horiz-adv-x="936" d="M20 152q0 102 36 189t82 168t90 162t62 173v22v37v36v21q0 20 3 72t6 111t6 110t3 73q0 8 5 23t12 30t18 27t23 14q48 8 82 -12t54 -54t30 -74q8 -40 8 -76q0 -64 -8 -115t-26 -98t-43 -96t-59 -107q0 -4 -1 -10t-1 -10q0 -32 9 -67t23 -70t32 -69t34 -62h38q20 10 34 33 t23 53t13 64t6 65t2 56v37q10 12 29 16t37 6t36 0t30 -2q24 0 50 5t48 4t36 -15t14 -52q0 -20 -7 -29t-33 -11q-10 -2 -26 -4t-31 -3t-31 -3t-26 0q-28 -58 -39 -105t-20 -88t-22 -80t-45 -81v-10q-2 -4 -2 -12q0 -28 22 -69t51 -84t59 -81t42 -58q-8 -20 -24 -20 q-16 -4 -36 0l-170 200h-4h-4h-2q-22 0 -42 -17t-40 -44t-43 -57t-53 -57t-66 -44t-84 -17h-16t-26 1t-26 2t-16 1q-16 12 -36 30t-38 38t-30 42t-12 42zM134 192q0 -10 7 -27t17 -33t24 -27t30 -7q28 4 72 33t83 66t68 78t29 69q0 30 -14 64t-34 69t-40 71t-30 68 q-24 -4 -49 -35t-49 -74t-44 -94t-36 -97t-25 -81t-9 -43z" />
<glyph unicode="'" horiz-adv-x="210" d="M40 1385v39v21t4 16t12 15l20 20q22 -12 39 -42t28 -69t17 -86t10 -92t5 -83t1 -62q0 -28 -4 -46t-36 -18q-26 0 -43 30t-28 75t-16 99t-7 102t-2 81z" />
<glyph unicode="(" horiz-adv-x="864" d="M40 392q0 64 30 150t82 175t120 174t142 152t150 109q80 40 148 40q18 0 38 -8t37 -22t29 -31t12 -35q0 -16 -6 -38t-26 -22q-14 0 -24 6t-21 14t-22 14t-25 6q-68 0 -136 -36t-130 -96t-114 -137t-90 -158t-60 -158t-22 -137q0 -96 33 -157t89 -97t129 -53t155 -27 q16 -6 18 -16t2 -22q0 -28 -21 -41t-47 -17t-54 -3t-42 1q-94 0 -165 42t-117 109t-69 151t-23 168z" />
<glyph unicode=")" horiz-adv-x="594" d="M18 -40q0 16 31 48t79 79t103 105t102 126t79 143t32 155q0 76 -22 144t-59 131t-86 118t-103 103q-14 -8 -28 -4t-25 14t-19 23t-8 27q0 30 18 35t44 5q60 0 113 -29t98 -77t81 -110t61 -126t38 -126t13 -110t-22 -122t-60 -157t-87 -168t-104 -152t-112 -109t-107 -42 q-12 0 -21 8t-16 20t-10 26t-3 22z" />
<glyph unicode="*" horiz-adv-x="844" d="M38 822q-2 8 2 22q4 18 21 33t40 25t45 15t38 5t22 -6t10 -14t8 -14t16 -6h6q2 0 4 2q4 4 11 10t7 10q0 36 -29 67t-63 60t-60 53t-18 50q2 4 16 18t22 20h4h2h2q0 -2 2 0h2h4l192 -114q-4 10 -3 27t5 33t13 27t27 11q4 0 11 -1t7 -3l56 -94q28 18 64 48t76 60t82 54 t86 30q12 -16 16 -29t4 -29q0 -20 -30 -46t-70 -54t-78 -52t-52 -40q16 2 44 3t57 -3t49 -13t20 -27q0 -28 -18 -39t-39 -19t-39 -19t-18 -37q0 -30 14 -59t33 -58t39 -57q16 -28 28 -56q-4 -26 -22 -42t-44 -16h-10q-4 4 -14 11t-22 16t-24 17q-12 10 -16 14q4 -44 -14 -88 t-62 -68q-10 14 -19 45t-16 72t-16 84t-21 77t-27 54t-35 16q-2 0 -7 -5l-11 -11l-12 -12q-4 -8 -8 -12q-8 -8 -25 -32t-35 -52t-34 -53t-22 -35q-4 -4 -12 -7t-17 -6t-17 -5q-10 -2 -14 -2q-8 0 -12 6t-6 14t-2 16v12q0 28 8 52t17 46t18 46t9 52q-20 0 -32 -3t-21 -5 t-19 -4t-28 -2q-8 0 -18 1t-17 4t-11 11z" />
<glyph unicode="+" horiz-adv-x="942" d="M16 392q0 26 6 35t36 15q16 4 57 12t87 17t87 17t57 12q10 2 15 11t6 20t1 20v15q0 32 -6 63t-14 63t-14 64t-6 64v6q4 6 18 20l20 20h4q2 0 2 2h4h2q-2 -2 2 -2h6l38 -40l76 -268l20 -22l32 -4q34 -6 80 -12t95 -12t81 -8q6 0 22 -2t33 -5t29 -11t12 -22q0 -6 -8 -19 t-17 -25t-19 -22t-14 -10h-308v-344l-6 -6l-16 -12t-18 -12t-16 -10q-2 -2 -6 -2h-4q-22 0 -33 21t-13 47t-2 50q2 24 0 36q-2 14 -7 47t-11 70t-12 69t-8 46h-20q-40 0 -79 -6t-77 -14t-76 -14t-76 -6q-30 0 -36 16q-6 12 -6 32z" />
<glyph unicode="," horiz-adv-x="268" d="M18 -316q0 48 10 96t21 98t21 100t10 98v16t-1 24t-1 22v14q-28 -2 -34 10t-6 28q0 40 14 71t58 31q40 0 57 -28t24 -66t6 -77t-1 -63q0 -16 -5 -55t-12 -89t-19 -104t-28 -98t-34 -72t-40 -28q-14 0 -22 7t-12 18t-5 24t-1 23z" />
<glyph unicode="-" horiz-adv-x="768" d="M30 494q0 48 22 76t58 45t81 23t93 7t94 2t82 5h6t14 1t16 1h12q28 0 60 -1t60 -11t46 -29t18 -55q0 -42 -38 -42q-44 0 -81 11t-83 11q-58 0 -115 -7t-115 -15t-115 -15t-115 -7z" />
<glyph unicode="." horiz-adv-x="418" d="M90 192q0 16 13 48t31 65t37 57t33 24q40 0 70 -21t49 -53t29 -70t10 -70q0 -24 -14 -54t-35 -56t-47 -44t-52 -18q-30 0 -52 21t-39 52t-25 64t-8 55z" />
<glyph unicode="/" horiz-adv-x="634" d="M20 68q0 28 13 69t32 85t39 83t32 61l326 902q6 28 12 70t16 82t26 74t42 42q18 -4 26 -14t11 -24t2 -28t-1 -26q0 -30 -18 -109t-49 -186t-72 -234t-85 -255t-90 -247t-85 -210t-71 -147t-48 -56q-26 0 -42 24t-16 44z" />
<glyph unicode="0" horiz-adv-x="882" d="M38 446q0 68 37 145t96 142t133 108t148 43q46 0 91 -21t87 -56t78 -80t63 -94t42 -98t15 -91q0 -76 -22 -154t-66 -143t-110 -107t-154 -42q-92 0 -172 35t-140 96t-93 143t-33 174zM136 460q-8 -70 12 -132t63 -110t103 -76t130 -28q26 0 45 3t38 10t40 19l49 28 q4 28 19 49t32 45t31 56t14 82q0 66 -21 128t-61 110t-98 77t-132 29q-52 0 -98 -27t-81 -70t-57 -94t-28 -99z" />
<glyph unicode="1" horiz-adv-x="652" d="M28 448v12q4 4 9 12t11 17t11 16t9 11l366 384q16 16 26 46t17 65t13 70t15 63t24 46t37 18q12 0 22 -2t16 -16v-14t1 -21t1 -21v-12q0 -8 -5 -61t-14 -133t-21 -181t-27 -204t-29 -201t-30 -174t-30 -123t-26 -47q-20 0 -33 9t-25 33v13t-1 20t-1 21v12q0 20 2 58t6 85 t8 99t8 99t6 84t2 59v24t-3 22t-11 20q-10 8 -26 12q-8 -8 -28 -31t-44 -53t-54 -63t-57 -60t-53 -45t-44 -18q-48 0 -48 50z" />
<glyph unicode="2" horiz-adv-x="1018" d="M20 212q-4 30 9 49t34 30t47 14t44 3q46 0 91 -14t88 -33t87 -34t92 -15q42 0 78 28t65 73t51 102t36 111t22 101t8 73q0 28 -8 82t-26 106t-47 91t-75 39q-42 0 -63 -30t-33 -67t-23 -71t-35 -42q-30 20 -35 52t-5 60q0 40 15 75t43 62t66 41t80 14q70 0 120 -42 t81 -104t46 -132t15 -122t-3 -92t-12 -78t-25 -79t-40 -97q-14 -10 -34 -33t-38 -49t-31 -51t-13 -41q0 -20 21 -31t51 -17t64 -10t64 -11t51 -22t21 -43q0 -20 -20 -38q-16 -20 -40 -20q-44 0 -87 9t-86 20t-85 21t-86 10q-72 0 -139 -11t-141 -11q-40 0 -83 9t-80 30 t-64 54t-33 81z" />
<glyph unicode="3" horiz-adv-x="882" d="M38 256v12q0 34 19 56t53 22q14 0 43 -36t78 -80t118 -80t163 -36q36 0 72 5t64 19t46 38t18 62q0 84 -42 138t-107 89t-141 53t-140 34t-107 30t-43 42q0 4 2 6t2 4q4 6 18 20l20 20q20 4 60 11t87 18t95 27t88 37t66 50t26 67q0 30 -24 49t-55 30t-64 14t-53 3t-58 -1 t-75 -6t-65 -12t-28 -19v-44q-46 0 -72 22t-26 68q0 20 11 36t29 28t38 18t38 6h290q46 0 85 -21t67 -54t43 -75t15 -84t-27 -70t-60 -50t-61 -44t-28 -54q0 -2 2 -4l2 -4q62 -22 117 -60t98 -88t69 -110q24 -58 24 -126q0 -62 -27 -107t-70 -72t-96 -41t-105 -14 q-50 4 -95 9t-99 28t-124 73t-172 142q-2 4 -2 6z" />
<glyph unicode="4" horiz-adv-x="844" d="M38 748q0 66 6 118t19 102t31 103t42 121q4 20 22 30t40 11t40 -7t14 -26q0 -52 -19 -106t-41 -109t-41 -112t-19 -115q0 -42 11 -92t34 -92t59 -70t86 -28q68 0 123 33t100 82t78 107t56 108t35 82q10 32 14 32q48 0 64 -16q14 -16 14 -44q0 -40 -9 -90t-21 -102 t-20 -103t-8 -93q0 -48 6 -96t14 -96t14 -95t6 -93q0 -40 -24 -68t-64 -28q-26 0 -37 33t-16 83t-5 108t-1 108t-9 83t-26 33q-28 -16 -63 -39t-73 -43t-77 -31t-77 -3q-78 0 -131 43t-86 108t-47 137t-14 132z" />
<glyph unicode="5" horiz-adv-x="1170" d="M38 290q-4 56 12 93t35 40t32 -37t7 -136q0 -20 26 -37t66 -29t88 -22t90 -17t74 -10t40 -3q66 0 134 12t123 43t89 82t34 127q0 84 -30 142t-80 96t-114 60t-133 35t-137 21t-126 18q-12 16 -16 29t-4 29v10l2 8q8 16 31 57t47 88t46 88t30 57q2 2 5 9t5 16t6 17 q4 12 4 16t-1 10t-1 8h-46q0 40 22 65t56 40t78 22t88 9t82 1t66 -1q40 0 88 2t96 -3t90 -23t70 -54q0 -2 1 -5t1 -5q0 -8 -7 -17t-15 -15t-18 -11t-16 -5q-4 0 -22 3t-37 6t-36 6t-21 3t-31 1t-59 2t-64 1h-50h-36t-45 -1t-41 -2t-20 -1l-60 -18q-6 -34 -24 -75t-39 -83 t-36 -81t-15 -67q0 -4 2 -12v-8q110 -18 213 -56t185 -100t130 -153t48 -219q8 -76 -27 -139t-94 -110t-133 -75t-140 -32q-46 0 -107 2t-124 12t-124 29t-108 51t-76 80t-29 116z" />
<glyph unicode="6" horiz-adv-x="902" d="M38 424q0 78 25 167t69 175t106 166t135 143t154 104t165 49q20 2 46 -3t50 -17t41 -30t17 -44q0 -12 -3 -25t-9 -26t-15 -22t-23 -9q-4 0 -18 9t-31 20t-31 19l-24 12h-10q-40 0 -89 -21t-102 -58t-102 -84t-89 -98t-64 -100t-24 -89v-10q42 16 74 24t63 12t63 4h72 q78 0 144 -26t114 -73t76 -112t28 -145q0 -92 -42 -157t-109 -105t-149 -58t-164 -18q-92 0 -157 37t-107 97t-61 136t-19 156zM136 384q26 -124 97 -184t179 -68q56 0 112 10t102 36t75 70t29 112q0 36 -23 78t-57 78t-75 59t-77 23q-72 0 -140 -13t-120 -39t-81 -67 t-21 -95z" />
<glyph unicode="7" horiz-adv-x="844" d="M59 1028q-11 24 17 68q38 -4 103 -10t141 -9t154 -4t142 3v-29v-44v-43v-28q0 -88 -10 -172t-10 -168h60t70 -7t58 -26t24 -59q0 -20 -6 -40t-32 -20q-20 0 -41 6t-41 16t-40 16t-42 6h-19t-11 -2l-94 -442q-8 -26 -25 -34t-33 -8q-26 0 -38 19t-20 41q28 110 50 208 t22 208q-66 0 -138 6t-132 6q-22 40 -15 61t31 31t60 11t77 0t78 -1t61 8l4 6q2 6 5 16t6 19t7 15q10 40 16 76t7 75t-1 82t-4 95q-38 4 -91 2t-109 -4t-108 0t-87 14t-46 36z" />
<glyph unicode="8" horiz-adv-x="768" d="M35 923q9 33 33 69t58 70t72 60t76 42q38 12 70 8q38 0 82 -13t82 -38t64 -61q24 -36 24 -80q0 -52 -26 -94t-60 -82t-60 -78t-26 -82q0 -22 21 -47t53 -52t70 -59t69 -70t53 -84q22 -44 22 -100q0 -108 -60 -172q-60 -62 -168 -62q-80 0 -160 36t-139 97t-86 141t-1 170 q20 42 54 82q36 44 80 92v4v2v2v6v4q-28 24 -63 48t-65 52t-50 60t-16 72q-12 24 -3 57zM136 884q-6 -28 15 -56t51 -52t62 -40q30 -16 44 -24q8 8 30 28t46 45t42 50t18 39q20 18 29 47t0 56t-40 48t-89 23q-40 0 -73 -16t-59 -41t-45 -54t-31 -53zM208 354q0 -52 21 -99 t57 -83t83 -58t101 -22q20 0 46 8t47 22t37 34t16 44q0 58 -25 113t-64 101t-87 82t-96 62q-2 0 -8 2h-8q-20 0 -43 -25t-39 -60t-27 -69t-11 -52z" />
<glyph unicode="9" horiz-adv-x="616" d="M20 904q0 66 20 125t58 104t92 71t122 26q56 0 107 -21t90 -57t63 -86t24 -106q-18 -82 -29 -177t-20 -191t-12 -187t-3 -164t2 -123t10 -66q0 -24 -22 -30t-58 -6q-22 0 -30 42t-10 105t1 138t3 140t-5 108t-19 47q-72 12 -141 24t-123 42t-87 86t-33 156zM134 918 q0 -36 11 -73t33 -68t54 -50t74 -19q20 0 41 2t39 18q2 22 14 70t26 98t26 91t12 49q0 20 -15 38t-36 32t-45 22t-40 8q-100 0 -147 -61t-47 -157z" />
<glyph unicode=":" horiz-adv-x="174" d="M38 644q0 16 4 32t26 16q18 0 35 -12t29 -29t20 -37q4 -20 0 -38q0 -4 -14 -18l-22 -22q-4 -2 -4 0h-6q-16 0 -29 12t-22 29t-13 35t-4 32zM40 200q0 24 18 38t40 14q24 0 31 -14t7 -38q0 -28 -11 -38t-41 -10q-44 -2 -44 48z" />
<glyph unicode=";" horiz-adv-x="264" d="M-31 -334q1 10 1 18q0 66 16 109t37 81t42 80t33 104q4 20 3 51t3 65t14 66t34 50q42 -26 51 -69t9 -85q0 -32 -6 -84t-18 -109t-31 -114t-42 -103t-53 -74t-62 -28q-14 0 -21 6t-9 16t-1 20zM38 714q-2 26 2 54q-2 24 19 29t44 0t40 -15t9 -14q16 -40 19 -66t-4 -44 t-19 -28t-24 -14q-28 0 -46 14t-28 36t-12 48z" />
<glyph unicode="&#x3c;" d="M9 190q-13 18 11 42l134 134q4 2 32 23t74 52t102 71t113 80t109 76t90 60q20 16 47 32t55 32t56 29t52 23q4 -4 13 -11t18 -16l17 -17t10 -12q0 -2 -24 -20t-62 -43t-83 -56t-86 -58t-72 -47t-37 -28q-44 -30 -93 -59t-97 -62t-94 -69t-82 -78q4 -8 30 -17t62 -17 t77 -15t78 -13t64 -10t35 -4l78 -12t104 -24t91 -42t39 -66q0 -48 -52 -48q-20 0 -41 8t-42 17t-41 19t-40 14q-16 4 -56 8t-94 10t-117 14t-125 17t-116 22t-89 28t-48 33z" />
<glyph unicode="=" horiz-adv-x="1074" d="M38 720q16 26 57 40t102 21t134 9t151 1l156 -2t150 -1h69t75 -11t61 -35t25 -68q0 -4 -15 -19t-23 -21l-4 -2t-8 0q-20 0 -39 10t-38 21t-38 20t-41 9q-44 0 -94 -6t-125 -13t-190 -10t-293 5q-24 0 -48 10t-24 42zM40 344q0 4 7 13t11 9q86 6 151 10t125 6t121 3t137 1 q32 0 88 4t113 1t104 -21t63 -62l-76 -40h-732q-26 0 -46 2t-35 9t-23 22t-8 43z" />
<glyph unicode="&#x3e;" horiz-adv-x="826" d="M56 68q4 18 39 49t86 68t114 80t123 85t113 84t83 78t34 64t-32 40q-36 2 -89 13t-112 32t-119 48t-110 57t-84 60t-44 58q0 2 -1 9t-1 11q0 26 20 32q16 8 40 8q32 0 55 -14t43 -33t43 -40t51 -31q104 -40 225 -79t237 -55q32 -10 36 -29t4 -43q8 -36 -4 -66t-34 -55 t-49 -48t-49 -47q-10 -8 -56 -42t-107 -80t-130 -95t-128 -91t-100 -70t-49 -28q-34 0 -41 21t-7 49z" />
<glyph unicode="?" horiz-adv-x="558" d="M17 1610q-1 12 0 22t1 14q0 32 20 55t50 37t63 22t61 8q76 0 133 -31t96 -82t59 -114t20 -129q0 -76 -25 -158t-64 -161t-82 -152t-79 -133q4 -8 10 -18t26 -18t57 -16t99 -16q10 0 18 -8t13 -19t7 -23q2 -14 2 -22q0 -18 -13 -25t-33 -10t-39 -2t-31 1q-30 0 -70 5 t-76 20t-61 41t-25 70q0 60 19 116t47 110t60 108t60 109t46 113t18 122q0 104 -56 155t-158 51q-40 0 -84 -20t-66 -56q-12 2 -17 12t-6 22zM364 76q0 36 22 57t56 21q32 0 46 -29t14 -57q0 -22 -15 -45t-45 -23q-40 0 -59 21t-19 55z" />
<glyph unicode="@" horiz-adv-x="1670" d="M38 1034q0 94 27 190t76 184t118 165t151 133t176 89t198 33q64 0 136 -19t147 -52t147 -77t136 -93t117 -102t89 -101q20 -28 32 -72t18 -89t7 -90t1 -75q0 -46 -7 -105t-22 -119t-40 -117t-61 -101t-84 -70t-112 -26q-28 0 -56 9t-52 26t-46 38t-38 41q-28 -36 -68 -73 t-85 -68t-94 -50t-99 -19q-72 0 -129 27t-97 74t-62 107t-22 126q0 102 36 198t101 170t156 118t199 44q32 0 92 -15t118 -43t102 -67t44 -87q0 -28 -18 -55t-42 -41q-28 50 -60 89t-70 66t-86 42t-108 15q-90 0 -159 -38t-115 -100t-70 -140t-24 -156q0 -48 12 -89t36 -70 t64 -46t92 -17q40 0 81 18t80 47t69 63q30 32 48 64q-2 6 -4 31t-2 57t2 68t11 66t25 50q18 20 46 20t44 -20t24 -50t12 -66t3 -68t-4 -56t-3 -32q4 -4 18 -21t34 -35t42 -30t38 -8q56 16 96 68t66 117t39 129t13 104q4 112 -32 202t-97 162t-141 125t-165 92t-168 62 t-147 33q-124 -8 -242 -71t-210 -158t-147 -214t-55 -243q0 -106 32 -218t89 -218t136 -199t174 -164t199 -111t216 -40q74 0 145 16t141 35t140 35t142 16q20 -34 -4 -64t-78 -54t-133 -42t-170 -28t-188 -11t-187 5q-164 68 -298 169t-228 231t-148 289t-56 345z" />
<glyph unicode="A" horiz-adv-x="1152" d="M38 620v4q0 14 7 20t17 9t20 7t16 14v10v17v17v10q8 84 13 179t18 186t40 175t75 148t122 102t186 38q88 0 159 -42t126 -113t96 -164t69 -197t47 -210t29 -202t14 -176t4 -132v-68t-3 -59t-6 -61t-11 -74q-16 -22 -41 -41t-55 -19q-26 0 -33 13t-7 35q0 34 6 69t14 70 t14 71t6 72q0 56 -4 120t-20 122q-45 -10 -92 -10q-12 0 -23 1q-59 3 -118 11t-119 16t-120 8h-57t-80 -2t-75 -6q-32 -4 -40 -12l-20 -18q0 -2 -1 -9t-1 -17t-1 -20t-1 -16q0 -58 9 -117t20 -115t21 -112t10 -112v-20q-30 -28 -54 -19t-43 44t-32 90t-20 120t-8 133v19 q0 58 5 113q-4 4 -16 17t-24 28t-24 29q-8 14 -12 22zM188 692l704 -40q6 0 15 1t15 10t12 29t10 56q0 58 -11 133t-33 155t-57 156t-83 136t-111 96t-141 36q-82 0 -138 -43t-91 -112t-54 -155t-27 -172t-9 -162t-1 -124z" />
<glyph unicode="B" horiz-adv-x="1518" d="M40 1208v60q0 20 36 38t91 35t121 32t127 25t109 16t64 6q36 0 86 -8t105 -24t108 -41t95 -57t68 -72q26 -38 26 -86q0 -52 -21 -96t-48 -79t-48 -62t-21 -51q0 -4 39 -23t100 -53t131 -84t131 -111t101 -132t40 -151q0 -84 -37 -140t-95 -89t-129 -48t-137 -15t-117 3 t-102 10t-109 18t-138 29q-4 2 -31 16t-56 34t-51 42t-18 42q8 22 25 31t34 17t29 22t10 46q-34 238 -62 421t-59 307t-68 188t-91 64h-2h-4h-4q-16 -10 -43 -21t-58 -22t-61 -20t-48 -15q-4 0 -10 -2h-8zM500 1228q24 -102 54 -224t57 -247t45 -245t18 -216 q-19 -29 -19 -53q0 -9 3 -17q10 -30 44 -52t82 -35t96 -20t88 -7t60 2q60 0 118 5t102 26t70 61t26 110q0 98 -51 163t-128 111t-167 77t-168 58t-128 57t-50 72q0 22 23 35t58 23t75 21t76 32t59 53t23 86q0 44 -24 78t-61 58t-80 36t-81 12q-56 0 -116 -12t-104 -48z" />
<glyph unicode="C" horiz-adv-x="1056" d="M38 554q0 80 26 167t72 173t109 164t139 138t160 96q84 34 168 34q48 0 72 -36t24 -80q0 -26 -10 -60t-30 -67t-45 -56t-55 -23q0 20 6 39t16 36t16 35t6 40q0 28 -23 33t-45 5h-16h-12q-92 -36 -180 -95t-156 -136t-108 -170t-40 -199q0 -68 13 -149t45 -150t87 -115 t137 -46q68 0 135 13t134 28t134 27t135 12q16 0 32 -4t16 -24q0 -10 -12 -25t-30 -29t-34 -22l-20 -10l-462 -98q-4 0 -17 -1t-21 -1q-66 0 -119 27t-94 70t-70 100t-48 119t-27 124t-8 116z" />
<glyph unicode="D" horiz-adv-x="1518" d="M40 1152v8q0 28 29 48t72 34t95 23t97 13t76 7t33 3q102 0 218 -23t229 -67t216 -109t182 -149t126 -188t47 -224q0 -110 -34 -198t-94 -154t-140 -111t-170 -66t-185 -21t-185 22q-18 6 -44 17t-51 25t-42 35t-17 47q0 16 5 33t25 17q10 0 51 -11t89 -25t94 -26t64 -14 h10q88 0 178 33t164 93t121 139t47 171q0 72 -28 141t-75 133t-110 118t-133 97t-142 73t-138 42q2 -128 21 -242t38 -219t29 -205q6 -50 6 -100t-6 -100v-25t-5 -26t-16 -21t-27 -8q-30 -16 -46 12t-24 85t-10 135t-7 163t-13 167t-26 150q-4 24 -10 62t-16 79t-23 76 t-27 51q-144 0 -230 -9t-137 -21t-74 -25t-41 -21l-4 -2q-4 -2 -6 -2q-4 0 -4 2q-2 2 -4 2q-2 2 -4 8l-5 15t-6 19t-3 14z" />
<glyph unicode="E" horiz-adv-x="1074" d="M38 292q0 76 11 152t11 154q0 32 -10 54t-10 48v12q4 4 14 19t14 19v442q0 32 7 48t34 22q20 4 53 4h23q49 -2 134 -6t209 -6q64 -1 140 -1t164 1q20 -8 40 -17t37 -23t27 -32t10 -44q0 -6 -7 -14t-11 -6l-96 38l-644 -18q-8 0 -14 2q10 -20 10 -28v-362q10 -16 58 -15 t114 7t140 19t138 24t106 19q44 8 48 4q6 0 23 1t37 2t36 2t22 1q0 -48 -53 -78t-133 -46t-173 -25t-174 -15t-137 -14q-58 -4 -62 -20q-12 -32 -17 -72t-6 -81q0 -20 -0.5 -40.5t0.5 -41.5q1 -41 1 -73v-28v-41v-40v-25q8 -20 36 -30t60 -13t60 -1q32 2 44 2q68 0 136 7 t135 14l134 14t135 7h12q4 -2 12 -4t17 -6t15 -8q8 -4 12 -4q4 -2 12 -8q8 -4 8 -8q0 -38 -42 -63t-106 -40t-140 -22t-146 -10t-120 -3h-64q-80 0 -141 14t-102 47t-61 89q-20 60 -20 144z" />
<glyph unicode="F" horiz-adv-x="1054" d="M-70 1098v10q28 28 98 50t166 38t210 24q101 7 203 7h26q115 -1 225 -16t196 -42t142 -71q56 -46 62 -106q-64 0 -125 16t-123 36t-125 36t-131 16q-16 0 -47 1t-71 2h-20q-30 0 -62 -2q-42 -3 -78 -12t-58 -26t-22 -45q0 -30 -4 -82q-3 -35 -3 -71q0 -18 1 -36 q2 -55 14 -103t44 -70h14h22h24h16q100 8 175 8q37 0 68 -2q93 -6 133 -24t29 -41t-68 -43t-159 -33q-78 -10 -179 -10q-31 0 -65 1q4 -90 8 -141t9 -80t9 -46t10 -40t10 -62t8 -115q-28 4 -52 5t-41 1t-26 2t-5 6q-12 54 -18 90t-9 65t-3 53t-1 52t-5 65t-12 91 q-6 40 -28 55t-51 16t-60 -4t-58 -5t-43 12q-18 16 -18 52q0 4 9 11t13 7q36 4 70 5t61 11t45 34q16 28 16 76q-14 87 -14 153v16v30q0 51 -5 87q-7 46 -35 62q-19 12 -56 12q-20 0 -46 -4h-27t-40 -1t-40 -1h-27q-4 -4 -19 -10t-19 -8h-6q-4 -2 -6 -2l-4 2h-4q-4 4 -10 18 t-8 20z" />
<glyph unicode="G" horiz-adv-x="1170" d="M66 400q0 88 38 170t102 155t147 134t173 106t180 72t168 35q11 1 21 1q29 0 56 -8q37 -11 63 -31t42 -51t16 -71q-28 0 -54 7t-52 16t-54 15t-56 6q-72 0 -152 -21t-157 -61t-146 -95t-122 -121t-84 -142t-31 -156q0 -56 28 -100t70 -73t92 -44t98 -15q88 0 181 5 t169 30t124 79t48 152q0 12 -4 38q-2 26 -18 42h-366q-16 0 -29 8t-25 21t-18 28t-6 29q0 16 4 33t24 17t40 -7l40 -14l40 -14t42 -7q70 0 138 12t140 12q16 0 34 -9t32 -22t24 -31t10 -34v-500q4 -4 14 -12t20 -17l20 -18t14 -13q4 -14 -3 -27t-19 -24t-27 -18t-27 -7 q-42 0 -65 26t-35 62t-14 75t-2 67q-6 0 -25 1t-23 1q-56 0 -115 -13t-117 -27t-117 -27t-121 -13q-84 0 -152 29t-116 81t-74 123t-26 155z" />
<glyph unicode="H" horiz-adv-x="1074" d="M32 470q0 26 13 34t29 15t29 18t13 41q0 80 -6 158t-14 158t-14 159t-6 157v20v29v28v17q6 16 17 20t23 4q10 0 24 -4q12 -4 12 -20l80 -670q0 -4 7 -20t11 -18h8h10l32 8t84 31t166 76t286 139l8 454q0 12 8 27t20 27t24 19t24 7q18 0 29 -6t11 -34q0 -6 -8 -21t-10 -19 q0 -8 -1 -28t-1 -43v-44v-29q0 -170 4 -340t16 -338q2 -20 7 -71t11 -109t12 -111t10 -75q0 -4 2 -12t6 -18t6 -18t4 -10v-12v-6q-4 -4 -12 -11t-17 -13t-17 -11t-12 -5q-28 -6 -46 24t-28 71t-14 81t-6 56q0 2 -1 30t-3 71t-5 97t-7 108t-9 102t-9 80l-104 -46 q-18 -8 -53 -25t-81 -38t-96 -44t-95 -45t-82 -38t-53 -24l4 -400q0 -6 -14 -21t-22 -19q-32 -8 -45 25t-18 86t-8 113t-14 110t-37 77q-16 17 -41 17q-15 0 -33 -6q-2 4 -5 14t-3 14z" />
<glyph unicode="I" horiz-adv-x="344" d="M30 1120q24 32 48 12t48 -75t47 -140t42 -181t36 -198t29 -192t20 -160t8 -106v-24t-2 -23t-11 -20t-27 -13q-12 -4 -24 7t-24 25t-19 27t-9 17q-10 74 -19 155t-17 163t-18 162q-10 84 -22 156q-6 30 -21 80t-29 107t-25 115t-11 106z" />
<glyph unicode="J" horiz-adv-x="900" d="M44 630q0 36 28 66q24 28 68 30q22 -12 16 -26q-8 -12 -16 -32v-10q0 -52 27 -113t70 -121t99 -117t114 -100t113 -68t99 -25q24 0 39 27t25 68t16 90t7 93t1 76v44v31t-1 40t-1 34v17l-106 750q22 57 43 57q2 0 4 -1q23 -6 43 -57t39 -136t35 -182t28 -196t19 -178 t11 -127q2 -48 -2 -44q1 -21 1 -51v-32q-1 -51 -7 -109t-19 -117t-37 -106t-61 -77t-89 -30q-82 16 -153 61t-132 104t-119 126t-112 135l-32 40t-29 44t-21 54t-8 68z" />
<glyph unicode="K" horiz-adv-x="960" d="M38 1144q0 4 3 13t9 18t15 15t17 6q18 0 27 -12t14 -29t7 -34t6 -25q8 -32 12 -76t9 -95t10 -103t11 -102q26 28 61 74t77 100t89 110t95 100t96 71q45 25 89 25h7q14 -14 7 -33t-25 -43t-44 -50t-54 -56q-42 -50 -91 -102t-97 -104t-90 -104q-42 -48 -68 -92 q56 -78 127 -145t149 -127t162 -112q84 -54 164 -106q24 -8 42 -24t27 -35t8 -36t-14 -27t-39 -7t-68 23q-32 26 -82 59t-106 71t-116 78t-114 80t-96 78t-66 74q-6 -25 -6 -57q0 -12 1 -26q3 -49 10 -101t15 -102t8 -90t-10 -64t-38 -24t-46 40t-28 102t-14 136t-4 140 t1 116t1 66q-4 64 -13 134t-20 142t-19 142t-8 130z" />
<glyph unicode="L" horiz-adv-x="710" d="M38 324q4 70 9 159t13 178t18 172t24 145t30 96q20 34 40 22q28 -4 36 -44q6 -29 6 -72q0 -16 -1 -34q-3 -66 -15 -150t-23 -172t-19 -175q-5 -58 -5 -109q0 -26 1 -50q0 -20 7 -43t19 -43t30 -36q20 -16 42 -16l402 -36q18 -2 21 -20t3 -28q0 -36 -22 -48t-58 -20 q-8 0 -29 -1t-44 -2t-43 -1h-28q-92 0 -169 14t-131 51t-84 100t-30 163z" />
<glyph unicode="M" horiz-adv-x="1094" d="M38 1210q0 42 40 42q50 0 84 -30t60 -72t50 -94t57 -94t76 -72t107 -30h19q67 0 114 25q53 29 86 74t54 98t37 98t34 73q20 28 48 22q22 4 33 -10t17 -35t7 -41t1 -28q0 -76 -11 -145t-11 -147q0 -102 14 -202t33 -201t34 -201t15 -200q0 -16 -4 -26t-12 -14t-18 -4h-22 q-26 0 -47 6t-29 38q-4 20 -8 64t-10 98t-12 115t-12 116t-11 98t-7 65q-4 20 -3 50t-4 62t-16 60t-33 40q-72 -40 -144 -60t-152 -20q-118 0 -236 144q-8 0 -11 -12t-5 -28t-1 -34t1 -30l-2 -668q0 -12 -7 -21t-17 -13t-21 -7t-21 -3q-32 0 -43 27t-15 53v288q0 132 11 260 t11 260q0 40 -16 72t-34 63t-33 62t-15 69z" />
<glyph unicode="N" horiz-adv-x="1248" d="M58 122q0 94 6 188t15 187t15 185q6 94 6 186q0 52 -11 100t-11 98v10q4 2 15 5t23 5t24 6q10 4 14 4h20q16 -72 43 -172t65 -204t90 -207t120 -184t152 -130q81 -47 180 -47h8q62 0 109 21t77 58t45 87t15 110q0 78 -31 145t-67 129t-67 124t-31 134q0 28 6 44t34 16 q32 0 65 -36t63 -92t56 -125t46 -137t31 -126t11 -92q0 -86 -28 -157t-79 -124t-122 -82t-157 -29q-94 0 -169 36t-134 93t-104 121t-77 121t-55 93t-37 36q-26 0 -38 -18t-17 -42t-5 -51v-41q0 -64 12 -119t12 -117q0 -14 -3 -36t-10 -44t-21 -38t-36 -16q-20 0 -33 15 t-21 34t-11 40t-3 35z" />
<glyph unicode="O" horiz-adv-x="1248" d="M38 558q-1 11 -1 23q0 75 24 141q27 76 77 135t122 95q72 32 158 40q150 -22 287 -76t242 -138t171 -196t74 -252q-20 -104 -82 -164t-146 -93t-180 -49q-96 -14 -176 -26q-124 0 -229 41t-180 113t-118 176t-43 230zM132 568v-9q0 -87 39 -163q41 -80 107 -140t148 -100 t164 -52q28 0 74 5t100 16t109 30t100 46t74 64t29 85q-14 100 -61 178t-115 138t-148 102t-158 67t-146 33q-34 4 -62 4t-50 -4q-62 -22 -101 -58t-62 -77t-32 -83t-9 -82z" />
<glyph unicode="P" horiz-adv-x="1286" d="M40 1096q0 22 21 41t56 33t75 25t77 18t66 11t39 4q68 0 159 -8t188 -29t192 -56t169 -86t122 -123q46 -70 46 -166q2 -15 2 -30q0 -51 -26 -95q-34 -57 -93 -102t-133 -78t-144 -52t-126 -24q-19 -2 -34 -2q-30 0 -44 7v-18q0 -70 12 -138t12 -138q0 -8 -2 -25t-9 -33 t-18 -26t-31 -6q-28 50 -47 129t-32 165t-21 162t-16 120v344q0 22 18 41t40 19h10h8q8 -54 12 -111t7 -113t13 -112q8 -56 26 -108q32 -8 70 -12q36 0 84 -4q52 0 113 17t113 49t87 79t35 105q0 64 -42 113t-108 87t-146 66t-157 45t-143 25t-102 8q-12 0 -44 2 q-21 1 -46 1h-25q-39 -1 -75 -5t-56 -16q-18 -10 -33 -36t-29 -53t-29 -47t-33 -20h-4q-2 0 -6 2t-6 6t-5 20t-5 46t-2 82z" />
<glyph unicode="Q" horiz-adv-x="1316" d="M52 560v28q0 96 35 188t97 164t147 116t185 44q66 0 147 -32t164 -87t162 -126t140 -148t98 -154t37 -145q0 -54 -18 -99t-47 -82t-68 -68t-83 -59v-20q0 -36 21 -65t53 -51t69 -42t69 -38t55 -36t25 -38q-44 -42 -83 -42t-76 25t-74 66t-76 79t-82 64q-37 23 -77 23 q-6 0 -12 -1h-24l-16 -2q-6 -2 -29 -4t-49 -6t-49 -6t-29 -2h-8q-24 -2 -48 -2q-94 0 -182 32q-110 40 -194 118t-132 183t-48 225zM164 560q-2 -18 -2 -35q0 -74 28 -138q34 -79 98 -135t148 -88q75 -30 161 -30h11h39t38 6t28 20t11 44q-8 38 -34 78t-46 76t-26 67t22 51 q32 0 66 -36t68 -83t66 -93q30 -44 56 -68q4 0 14 -1t14 -1q28 0 68 17t78 43t66 59t28 65q0 42 -14 83t-36 80t-50 71q-24 34 -52 64q-16 16 -42 43t-52 52t-48 42t-32 17q-4 -46 -17 -91t-41 -83h-4l-4 -2h-6q-2 0 -4 2q-2 0 -10 4t-18 10t-18 10l-8 8q28 69 28 118 q0 13 -2 25q-10 55 -47 87t-90 45t-102 13t-83 -4q-36 -4 -34 -8q-68 -24 -110 -67t-65 -97t-31 -116t-8 -124z" />
<glyph unicode="R" horiz-adv-x="1186" d="M-20 1074q0 28 12 53t32 45t44 37t48 29q64 12 113 20t93 13t89 6t101 1t118 -9t126 -27t121 -47t102 -70t71 -94t26 -119q0 -58 -36 -102t-96 -76t-133 -54t-146 -39t-137 -29q-64 -16 -104 -28q100 -138 198 -234t184 -162t156 -107t114 -69t56 -44t-18 -36 q-15 -19 -42 -19q-14 0 -30 5q-50 14 -115 55t-139 102t-146 127t-137 130t-109 112q14 -90 33 -165t29 -131q7 -40 7 -69q0 -12 -1 -21q-4 -34 -40 -42q-4 -12 -16 14t-28 79t-34 127t-35 157t-31 171t-23 168t-9 146t12 110q24 18 43 9t30 -29t15 -46q0 -26 -4 -48 q2 -8 7 -30t11 -47t12 -47t10 -30q28 4 83 11t119 20t131 31t121 42t89 56t35 72q0 4 -2 10v6q-56 64 -114 104t-123 59t-137 25t-154 6q-60 0 -126 -1t-121 -17t-91 -58t-36 -122q-18 0 -32 12t-24 29t-16 36t-6 33z" />
<glyph unicode="S" horiz-adv-x="1286" d="M40 356q0 20 8 43t22 44t34 35t42 14q0 -130 46 -205t127 -115t185 -54t224 -20q40 2 105 3t125 14t102 43q40 29 40 86v6q0 28 -2 50t-9 39t-24 33t-47 32l-594 324q-32 18 -62 45t-50 60t-32 70t-12 73q0 76 41 124t102 77t132 41t131 12q28 0 72 -5t94 -15t99 -26 t87 -41t63 -58t25 -77q-28 -16 -57 -10t-59 22t-62 36t-66 40t-72 32q-28 9 -59 9q-10 0 -21 -1q-38 0 -98 -4t-117 -19t-98 -46t-41 -87q0 -54 38 -99t103 -86t146 -78t164 -76t162 -81t138 -92t92 -107q25 -44 25 -96q0 -16 -2 -33q-10 -72 -62 -124t-132 -81t-178 -38 q-46 -4 -94 -4q-53 0 -108 5q-104 10 -206 38t-186 75t-144 110t-80 143z" />
<glyph unicode="T" horiz-adv-x="1190" d="M6 1252h104t175 -2t220 -6t239 -12t232 -19t199 -28t138 -39t51 -50q0 -20 -6 -40t-30 -20q-74 4 -146 22t-144 35t-147 24q-17 2 -34 2q-59 0 -119 -19q0 -92 11 -202t26 -224t34 -228t37 -214q4 -26 17 -51t27 -48t24 -47t10 -48q0 -16 -10 -25t-24 -12t-30 -3h-26 q-40 0 -63 32t-35 75t-16 89t-8 74q-16 110 -28 213t-21 206t-16 208t-15 217q-140 0 -289 19t-285 41q-18 -4 -28 5t-16 24t-7 29t-1 22z" />
<glyph unicode="U" horiz-adv-x="1170" d="M56 780q0 18 1 49t4 68t11 76t24 70t40 51t58 20q22 0 34 -12t14 -29t-10 -37t-38 -36q-18 0 -26 -27t-12 -59t-4 -62v-36q0 -52 4 -120t16 -141t35 -145t60 -131t89 -99t126 -44q8 -1 16 -1q50 0 114 21q74 24 138 69t109 104t45 123v8q-14 84 -29 140t-26 102t-18 94 t-7 112q6 92 21 137t31 50t34 -23t32 -81t20 -126q4 -55 4 -115v-40q2 -60 23 -132t47 -144t53 -140t41 -119q10 -36 10 -63q0 -12 -2 -21q-6 -33 -42 -33q-40 0 -60 24t-34 53t-30 53t-40 24q-20 0 -48 -15t-63 -39t-76 -52t-85 -52t-90 -40t-94 -16q-86 0 -150 41 t-110 107t-77 151t-49 172t-26 168t-8 143z" />
<glyph unicode="V" horiz-adv-x="864" d="M38 1028q0 22 15 27t31 5q38 0 70 -44t59 -103t48 -118t37 -91q6 -12 24 -50t41 -90t48 -109t49 -109t40 -91t22 -51q12 12 25 56t28 109t29 142t29 156t31 152t32 129t31 87t31 25q30 8 42 -29q10 -32 10 -85v-19q-2 -67 -16 -159t-37 -189t-52 -195t-63 -178t-68 -136 t-66 -72q-4 0 -14 1t-12 1q-10 20 -36 69t-54 104t-52 103t-32 68q-12 26 -37 80t-55 121t-61 141t-58 141t-43 120t-16 81z" />
<glyph unicode="W" horiz-adv-x="1440" d="M20 788v43t6 79t22 76q20 34 52 34q14 0 20 -38t11 -98t11 -138t13 -160t20 -160t34 -139t52 -98t75 -37q36 0 69 20t61 48t51 58t41 50q12 28 17 64t6 74q0 19 0.5 37t-0.5 35q-1 34 -3 58q10 28 24 39t26 7t24 -21t22 -45q10 -64 36 -142t69 -145t105 -112t144 -45 q44 0 91 18t84 50t61 74t24 90q0 76 -24 148t-54 143t-54 142t-24 145q22 48 49 48q4 0 8 -1q31 -9 62 -59t59 -129t50 -160t33 -152q9 -60 9 -94v-11q0 -76 -32 -144t-87 -122t-126 -86t-147 -32q-60 0 -117 36t-102 80t-78 80t-49 36h-3h-3h-4q-88 -80 -142 -124t-86 -65 t-46 -24t-20 -3q-76 0 -131 43t-92 111t-60 155t-35 173t-17 162t-5 128z" />
<glyph unicode="X" horiz-adv-x="1094" d="M40 -62q0 74 39 156t96 165t119 159t110 136q0 32 -17 71t-43 80t-56 84t-56 84t-43 80t-17 75q0 24 7 36t33 12q10 -2 29 -26t42 -60t48 -78t47 -81t40 -68t26 -39q20 -36 41 -52t60 3t109 79t186 176q14 12 50 34t75 35q30 10 57 10q8 0 16 -1q34 -4 40 -44 q-64 -40 -135 -90t-140 -107t-133 -117t-110 -118q18 -50 61 -113t92 -127t95 -123t69 -101q17 -31 17 -50q0 -6 -2 -11q-4 -10 -24 -10q-17 0 -44 7q-52 40 -98 94t-88 111t-86 112t-90 97h-10q-12 0 -32 -19t-43 -47t-48 -63t-49 -70t-40 -63q-20 -28 -28 -44 q-12 -14 -28 -51t-34 -77t-38 -72t-34 -36q-24 0 -31 17t-7 45z" />
<glyph unicode="Y" horiz-adv-x="826" d="M36 1310q2 0 11 1t20 2t21 3h12q14 -40 38 -90t59 -102t77 -101t89 -88t98 -62t105 -23q36 80 57 127t33 73t16 39t6 28t4 36t10 65q0 8 16 17t33 11t32 -4t15 -24q0 -110 -24 -209t-60 -193t-76 -187t-70 -191t-43 -204q-5 -44 -5 -91q0 -65 10 -135q-12 -22 -24 -31 t-32 -9t-34 9t-26 31v21v32v32v21q0 86 9 153t24 131t37 131t46 151q0 4 1 15t1 15q4 2 -35 20t-95 51t-122 83t-121 116t-88 148q-27 66 -27 144q0 18 2 38z" />
<glyph unicode="Z" horiz-adv-x="1170" d="M34 1112v12q0 52 35 80t83 44t97 18t81 2q92 0 182 -16t159 -58t111 -114t42 -182q0 -32 -6 -54t-13 -41t-12 -41t-5 -50q0 -10 20 -16t50 -9t65 -5t65 -8t51 -18t21 -32v-4l-2 -4q-14 -8 -32 -18t-38 -19t-40 -15t-36 -6q-8 0 -13 3l-10 6t-9 6t-12 3q-78 0 -135 -38 t-101 -96t-80 -126t-70 -124q0 -4 -3 -15t-3 -13q0 -32 14 -41t44 -9q72 0 143 16t140 34t139 32q72 16 140 16q26 0 33 -14t7 -36q0 -24 -6 -38t-34 -26q-128 -44 -257 -72t-263 -28h-27t-41 1t-41 1h-25q-50 16 -74 55t-24 89t30 94t66 86t66 83t30 83v10q-2 4 -8 18 q-4 14 -8 18h-14t-21 1t-21 1h-12q-58 0 -115 -12t-117 -12q0 28 9 59t39 43q66 20 125 28t107 16t87 19t67 37t46 73t26 125q0 72 -35 121t-89 80t-118 44t-122 13q-48 0 -90 -12t-80 -27t-71 -27t-67 -12q-4 0 -10 7t-10 11z" />
<glyph unicode="[" horiz-adv-x="978" d="M40 1152v8q0 20 10 39t26 29q88 34 194 72t216 69t221 52t207 21h6q4 -4 12 -18t10 -22v-10v-8q-4 -4 -11 -12t-11 -8q-84 -18 -177 -41t-188 -49t-188 -57t-175 -65h-16q0 -18 6 -55t17 -78t24 -78t27 -57q40 -264 61 -441t35 -284t26 -153q16 -46 40 -46q116 0 231 12 t231 12h35t56 -1t56 -1h37q18 -16 37 -39t19 -51q0 -2 -2 -4v-4q-4 -4 -17 -10t-19 -8q-58 2 -143 3t-175 0t-174 -5t-142 -16q-4 0 -15 -4t-23 -6t-23 -6t-15 -4q-4 -2 -12 -5t-17 -7t-19 -6l-10 -2q-2 0 -9 8t-9 12q-6 8 -14 29t-8 27q-2 8 -2 34t-3 59t-4 71t-3 71t-4 58 t-2 35q-2 10 -7 41t-12 74t-15 94t-16 99t-15 88t-11 66q-2 2 -5 10t-6 17t-7 17q-4 6 -4 10v22z" />
<glyph unicode="\" horiz-adv-x="882" d="M20 1084q0 16 13 23t25 7q4 0 39 -37t91 -97t126 -140t144 -168t144 -176t125 -167t88 -140t33 -97q0 -12 -6 -29t-17 -32t-25 -25t-30 -6q-36 8 -50 27t-18 45t-8 53t-20 49q-20 22 -60 72t-89 112t-103 131t-103 132t-88 113t-57 74q-8 12 -34 44t-53 74t-47 85t-20 73 z" />
<glyph unicode="]" horiz-adv-x="882" d="M18 1660q8 22 47 31t92 8t114 -9t116 -17t96 -15t55 -6q70 -14 111 -49t64 -85t33 -110q10 -56 24 -120q2 -40 5 -111t8 -164t11 -200t12 -217t12 -217t12 -199t10 -164t6 -110v-36q0 -16 -11 -27t-25 -19t-30 -12t-30 -4h-538q-52 0 -66 27t-14 71v22q4 12 4 16l38 16 h518q16 0 18 14t2 22q0 100 2 226t1 264t-6 281t-20 277t-42 251t-69 201q-28 16 -79 28t-114 22t-128 20t-118 24t-87 30t-34 40z" />
<glyph unicode="^" horiz-adv-x="768" d="M100 1144q56 52 96 84t67 64t46 74t35 114q4 16 17 17t25 1q28 0 42 -13t32 -43q12 -20 34 -45t45 -52t44 -52t33 -41q14 -22 21 -36t11 -25t6 -23t2 -32q0 -28 -6 -44t-34 -16q-30 0 -55 22t-51 52t-57 63t-69 55q-38 -48 -81 -95t-82 -72t-72 -19t-49 62z" />
<glyph unicode="_" horiz-adv-x="1344" d="M56 174q0 32 24 35t54 3q72 0 145 -15t145 -23h18q8 0 39 -2t70 -5t84 -5t84 -4t68 -4t39 -2h37h66h80h80h66h37q22 0 43 -6t37 -17t26 -29t10 -42q0 -20 -13 -39t-33 -19q-52 0 -131 4t-173 10t-198 15t-204 21t-190 26t-159 30t-110 33t-41 35z" />
<glyph unicode="`" horiz-adv-x="354" d="M41 1126q3 14 33 10t102 -40q24 -20 37 -32t24 -22t24 -22t37 -32q4 -4 12 -18t8 -18q0 -40 -14 -50q-16 -10 -44 -10q-4 0 -10 2t-26 17t-54 44t-90 83q-16 22 -29 48t-10 40z" />
<glyph unicode="a" horiz-adv-x="1036" d="M38 338q2 34 20 78t56 86t96 75t137 47q43 8 91 8q42 0 89 -6q101 -12 225 -60v20l-2 18q0 52 -30 106t-77 97t-101 70t-104 27q-20 0 -35 -6t-29 -15t-27 -16t-31 -7q-4 0 -4 2l-4 4q-4 4 -11 10t-7 8q0 36 13 62t36 42t52 25t61 9q80 -8 153 -49t134 -103t107 -143 t77 -168t41 -175q7 -50 7 -97q0 -39 -5 -75q-2 0 -12 1t-22 2t-20 3l-10 2q-42 94 -94 152t-103 91t-95 46t-72 19q-30 0 -71 -4t-85 -14t-89 -27t-80 -41t-56 -57t-21 -77q0 -48 38 -81t92 -54t110 -29t90 -8q56 0 110 6t107 14t105 14t104 6h14t21 -1t20 -1h13 q16 -6 18 -18t2 -24t-25 -26t-65 -28t-89 -29t-94 -25t-84 -17t-55 -7q-84 0 -178 14t-172 51t-129 103t-51 170z" />
<glyph unicode="b" horiz-adv-x="1018" d="M21 1212q1 40 25 62q26 22 90 30q4 -20 10 -76t13 -127t16 -148t17 -141t18 -104q10 -44 18 -40q36 0 71 12t75 12q60 0 128 -11t135 -33t130 -57t110 -81t75 -106t28 -132q0 -92 -45 -147t-115 -83t-152 -36q-84 -8 -156 -8q-100 0 -166 25t-108 69t-64 102t-32 127 t-14 144t-12 151q-2 14 -10 63t-19 108t-19 109t-10 64q-10 88 -24 150q-13 58 -13 97v5zM250 436q-8 -35 -8 -65q0 -48 19 -87q31 -64 90 -105t136 -57q46 -9 91 -9q31 0 62 4q76 11 136 47q64 38 92 104q0 54 -25 98t-65 78t-91 59t-104 41t-105 25t-92 9q-66 0 -101 -38 t-35 -104z" />
<glyph unicode="c" horiz-adv-x="920" d="M38 446q0 88 34 171t93 147t137 102t166 38q40 0 85 -9t85 -29t66 -53t26 -83q0 -8 -5 -32t-13 -48t-19 -43t-19 -19q0 94 -52 157t-152 63q-76 0 -136 -32t-100 -84t-61 -117t-21 -133q0 -92 30 -152t82 -97t120 -55t144 -24q57 -4 114 -4h38q76 2 146 6q6 0 20 -8 t20 -10v-6q0 -4 1 -4t1 -2q0 -22 -22 -38t-54 -26t-70 -14t-75 -7t-65 -3h-40q-116 0 -209 26t-158 81t-101 140t-36 201z" />
<glyph unicode="d" horiz-adv-x="1074" d="M38 454q0 74 19 156t60 152t104 115t155 45q48 0 96 -14t99 -40t106 -61t117 -77q3 29 3 59q0 52 -9 106q-14 85 -36 167t-45 155t-33 131q-6 32 -6 58q0 21 4 38q8 38 48 48q54 -40 93 -113t67 -169t46 -205t30 -221t19 -218t15 -195t15 -152t21 -89q0 -32 -23 -40 t-47 -8q-20 0 -34 15t-22 35t-15 45t-15 46t-18 35t-26 14q-4 0 -11 -1t-7 -3q-38 -52 -89 -101t-112 -86t-128 -59t-135 -22q-76 0 -133 50t-96 120t-58 148t-19 136zM162 418q20 -72 36 -126t39 -88t55 -51t84 -17q64 0 136 37t134 95t102 127t40 133v24v24 q-106 104 -195 149t-159 46h-4q-67 0 -118 -31q-52 -32 -86 -84t-50 -116q-14 -57 -14 -109v-13z" />
<glyph unicode="e" horiz-adv-x="1056" d="M38 536q0 104 31 199t90 167t144 115t197 43q66 -8 115 -36t80 -69t45 -95q12 -52 12 -112q0 -72 -42 -130t-106 -97t-138 -60t-138 -21h-49t-45 8t-32 24t-12 48q0 10 3 17t17 10t42 1q28 -4 76 -12q28 0 81 19t108 49t95 69t40 77q0 40 -13 79t-39 69t-61 48 q-29 15 -63 15q-8 0 -16 -1q-70 -6 -127 -38t-97 -83t-62 -113t-22 -130q0 -52 2 -104t15 -102t42 -96t84 -81t139 -58t208 -29l358 24q-32 -44 -81 -72t-104 -45t-109 -25t-102 -8q-116 0 -218 38t-180 107t-123 168t-45 223z" />
<glyph unicode="f" horiz-adv-x="772" d="M-18 558q0 34 24 52t58 26t71 11t61 5q-4 60 -6 142v28q0 69 8 142q10 88 33 173t66 153t109 110t162 42q54 0 118 -27t119 -71t91 -99t36 -111h-46q-40 0 -71 30t-65 67t-72 67t-86 30q-68 0 -124 -30t-96 -80t-60 -112t-20 -126v-20l36 -286q4 -4 22 -7t57 -8t104 -11 t165 -12q37 0 37 -31q0 -4 -1 -9q18 -22 -1 -41t-63 -28q-40 -8 -97 -8h-13q-66 1 -144 17q0 -76 35 -142t77 -126t78 -116t36 -112q0 -26 -16 -34q-12 -8 -36 -8q-20 0 -43 15t-42 37t-35 46q-14 24 -22 40l-23 46l-35 70t-40 83t-39 83t-33 72q-16 30 -22 46l-22 22 q-10 -4 -37 -9t-57 -11t-58 -12t-40 -6h-10q-16 0 -22 11t-6 27z" />
<glyph unicode="g" horiz-adv-x="750" d="M-268 -556q-8 28 1 50t25 36t35 18t32 -5t16 -33v-8q0 -23 -13 -58q0 -44 37 -86t96 -76t129 -62t136 -48t118 -30q48 -10 72 -10q50 0 85 26t60 68t40 95t23 106t10 103t2 84q0 16 -3 59t-9 99t-14 116t-18 112t-21 84t-23 32q-20 0 -47 -12t-56 -26t-59 -26t-58 -12 q-56 0 -110 24t-93 62t-63 90t-24 108q0 88 35 180t96 168t144 124t177 48q72 -20 117 -91t70 -175t36 -231t15 -259t7 -259t15 -231q0 -46 -5 -109t-17 -129t-33 -131t-55 -116t-83 -82t-113 -31q-52 0 -125 12t-152 38t-157 64t-140 87t-100 110t-38 133zM152 358 q0 -36 11 -69t32 -59t52 -41t69 -15q102 0 155 40t73 100t20 128q-2 70 -6 126q0 28 -4 56t-16 52t-33 38t-53 14q-66 0 -122 -37t-95 -92t-61 -120t-22 -121z" />
<glyph unicode="h" horiz-adv-x="876" d="M-28 1394v8q0 8 10 15t23 13t26 9t21 3q38 -100 61 -169t37 -119t20 -84t10 -66t6 -66t8 -82q104 64 189 70q14 1 27 1q69 0 124 -26q66 -31 115 -95t81 -144t49 -170t22 -174q2 -30 2 -58q0 -51 -6 -97q-9 -71 -27 -114t-48 -50q-4 -1 -8 -1q-27 0 -58 38q4 52 8 108 t7 112t4 110t1 98q0 64 -18 122t-52 101t-85 68t-121 25q-28 0 -48 -4t-40 -13t-44 -23q-24 -16 -56 -38q0 -4 -1 -15t-1 -13q0 -44 9 -117t19 -152t20 -153t10 -120v-16t-1 -26t-1 -26v-18q-12 -28 -29 -35t-41 -7q-24 -4 -36 34t-18 110t-11 174t-14 224t-26 259t-49 281 q-16 56 -25 95t-17 70t-14 64t-14 79z" />
<glyph unicode="i" horiz-adv-x="358" d="M24 1194q0 24 14 31t36 7q14 2 37 -17t38 -43t17 -44q2 -24 -30 -28h-10q-30 0 -50 4t-31 13t-16 27t-5 50zM126 692v30t1 46t1 46v30q-1 10 -1 18q0 44 37 44q20 0 34 -10t26 -30q-2 -30 -2 -59q0 -73 11 -142q15 -97 34 -192t36 -191t17 -200q0 -28 -17 -56t-51 -28 q-26 0 -45 45t-33 114t-24 153t-15 161t-7 138t-2 83z" />
<glyph unicode="j" horiz-adv-x="410" d="M-225 -280q-1 12 1 24t10 22t26 14q26 -14 51 -57t53 -103t60 -126t74 -120t96 -90t122 -36q22 0 37 12t24 29t12 37t3 36q2 47 2 94q0 129 -16 257q-22 175 -54 349t-66 346t-48 344q4 14 4 24t5 17t15 11t34 4q20 -14 43 -72t47 -148t48 -205t44 -241t34 -256t19 -252 q3 -61 3 -118t-3 -110q-5 -106 -24 -181t-53 -114q-27 -31 -66 -31q-9 0 -20 2q-96 26 -184 86t-158 142t-116 181t-58 203q0 14 -1 26zM58 1156q0 8 15 22t25 16q28 6 47 -7t31 -34t18 -47t6 -46q-22 -20 -47 -22t-46 12t-35 42t-14 64z" />
<glyph unicode="k" horiz-adv-x="826" d="M-4 1222q18 48 39 33t43 -71t44 -139t39 -169t31 -162q12 -76 20 -118q4 -4 15 -4h15q40 0 70 24t57 61t53 80t54 79t62 61t78 25q28 0 34 -17t4 -39q-28 -22 -64 -58t-77 -78t-82 -88t-72 -89t-52 -83t-21 -70q0 -44 29 -80t74 -66t101 -51t112 -36t106 -23q48 -8 80 -8 q18 -4 20 -20t2 -30q0 -30 -19 -44t-46 -20t-56 -6h-49q-44 0 -101 28t-110 61t-93 61t-56 28q-32 0 -43 -31t-15 -67t-13 -67t-39 -31q-26 0 -48 14t-22 46q0 4 2 21t6 37t6 37t2 21v21t1 39t1 46v36v32t-1 41t-1 36v17q-6 92 -23 195t-36 205t-36 200t-25 180z" />
<glyph unicode="l" horiz-adv-x="246" d="M52 582q0 142 4 282q3 93 3 187q0 47 -1 93q0 16 12 22t28 6q18 0 32 -13t24 -32t15 -38t5 -31q12 -286 16 -477q2 -96 2 -172.5t-2 -135.5q-4 -117 -13 -173t-23 -76t-33 -16t-39 8q-20 142 -25 283t-5 283z" />
<glyph unicode="m" horiz-adv-x="1536" d="M56 700v14t1 21t1 20v13q2 4 10 10t10 10h10q34 0 50 -24q16 -20 16 -52q32 34 57 53t48 29t48 12t61 2q58 0 105 -12t85 -35t70 -61q32 -36 64 -84q2 0 5 -1t5 -1t20 19t48 46t70 60t84 61t90 47t90 19q68 0 121 -28t95 -75t72 -106t50 -122t29 -125t9 -114 q0 -20 -1 -69t-10 -100t-29 -90t-56 -39q-18 0 -26 7t-12 17t-4 22v26q0 6 1 16t1 20v18l2 12q0 6 3 34t7 60t6 61t2 37q-4 42 -18 110t-43 134t-73 114t-104 48q-54 0 -113 -27t-110 -70t-83 -99q-34 -54 -34 -114q0 -30 10 -59t21 -57t21 -58t10 -62q0 -24 -9 -48t-43 -24 q-36 0 -59 42t-42 107t-40 139t-52 139t-76 107t-115 42q-54 0 -96 -23t-69 -61t-42 -86t-15 -98q0 -80 11 -157t11 -155q0 -28 -6 -51t-40 -23q-22 0 -37 11t-25 28t-16 38t-10 37q2 47 2 90q0 32 -1 62q-3 70 -8 133t-10 127t-5 136z" />
<glyph unicode="n" horiz-adv-x="942" d="M58 659v121q0 18 13 23t29 5q12 0 17 -6t7 -14t6 -15t14 -7q28 0 68 22t87 48t100 48t105 22q68 0 125 -35t102 -93t77 -130t54 -147t32 -146t10 -123q0 -18 -3 -54t-10 -72t-23 -63t-40 -27q-4 0 -14 1t-20 4t-17 7t-7 12q9 77 9 149.5t-9 139.5q-18 135 -58 237 t-98 162t-124 60q-62 0 -116 -20t-94 -58t-63 -92t-23 -118t12 -127t27 -126t27 -127t12 -128q-56 0 -94 46t-61 118t-36 162t-18 177t-5 164z" />
<glyph unicode="o" d="M38 408q0 110 48 192t126 138t175 83t195 27q52 0 97 -19t86 -52t73 -76t55 -89t35 -93t12 -91q0 -102 -40 -182t-108 -135t-154 -84t-176 -29q-92 0 -169 29t-134 81t-89 129t-32 171zM136 424q0 -62 23 -119t64 -99t97 -67t120 -25q7 -1 15 -1q29 0 68 12q49 15 98 44 t94 70t75 90t37 102q2 12 2 23q0 41 -20 83q-25 53 -91 102t-182 91q-66 0 -137 -19t-129 -57t-96 -96t-38 -134z" />
<glyph unicode="p" horiz-adv-x="1066" d="M38 262q0 126 44 212t117 138t170 76t203 24q86 0 167 -28t145 -78t102 -122t38 -164q0 -80 -30 -131t-82 -80t-115 -41t-129 -12q-64 0 -131 6t-123 28t-92 66t-36 124q42 0 81 -17t79 -36t80 -35q38 -18 82 -18q32 0 85 6t100 23t81 47t34 76q0 68 -30 118t-78 83 t-108 51t-120 18q-8 0 -39 -4t-71 -13t-84 -22t-81 -32t-61 -43t-24 -54v-24q2 -22 5 -59t5 -74t6 -65t4 -32q4 -32 14 -99t22 -150t27 -175t29 -175t25 -149t17 -96q0 -4 1 -7t1 -5v-2l-2 -4v-4q-4 -6 -18 -20q-16 -12 -20 -16h-12q-20 0 -42 37t-45 100t-46 145t-45 170 t-40 174t-32 160t-21 128t-7 76z" />
<glyph unicode="q" horiz-adv-x="844" d="M38 482q0 100 31 197t91 173t145 122t191 46q40 0 88 -14t88 -40t68 -66t28 -92l-60 -692q0 -88 7 -175t15 -174t15 -175t7 -174q0 -30 -4 -50q0 -22 -36 -22q-32 0 -52 31t-30 81t-12 114t-4 130t-4 130t-8 114t-21 81t-43 31h-18q-4 -2 -22 -4t-38 -6t-36 -6t-20 -2 q-98 0 -167 37t-113 99t-65 142t-21 164zM132 476q0 -58 18 -113t52 -97t82 -68q52 -26 116 -26q44 0 90 7t86 33q10 62 13 133t9 145t18 148t38 144q0 34 -19 60t-47 44t-62 26t-66 8q-76 0 -136 -46t-103 -114t-66 -145t-23 -139z" />
<glyph unicode="r" horiz-adv-x="710" d="M35 782q1 18 6 34t17 28h4q2 0 2 1t2 1t2 -1t4 -1h4q4 -2 20 -8t20 -10q36 12 74 29t77 32t79 25t78 10q28 0 49 -2t42 -7t45 -12t56 -17q16 -12 29 -23t24 -25t17 -34t6 -52q-10 -1 -21 -1q-24 0 -54 6q-43 9 -90 23t-97 24q-42 8 -81 8h-15q-46 -2 -86 -26 q-42 -20 -74 -72q-12 -51 -12 -100v-14q2 -56 14 -109t31 -106t36 -106t31 -105t18 -106q0 -20 -22 -43t-50 -23q-44 80 -76 174t-54 190t-35 187t-17 165q0 14 -2 31t-1 35z" />
<glyph unicode="s" horiz-adv-x="1054" d="M34 242q16 12 29 15t29 3q18 0 36 -9t33 -22t31 -25t34 -20q52 -22 83 -36t57 -22t60 -10t88 -2q42 0 102 -1h10q55 0 104 10q54 11 92 40t38 89v7q0 53 -31 84q-33 33 -89 51t-126 25t-144 15t-145 23t-127 47t-90 88t-36 144q12 64 63 107t122 66t151 24h7 q76 0 140 -20q67 -21 112 -67t47 -114q1 -11 1 -22q0 -26 -7 -44q-10 -26 -27 -39t-35 -12t-28 14t-9 38t23 63q-8 38 -46 60t-88 31q-32 6 -67 6q-19 0 -40 -2q-57 -5 -104 -21t-76 -42q-25 -23 -25 -52v-8q0 -60 35 -93t91 -51t129 -26t150 -15t149 -20t130 -43t92 -81 t34 -133q0 -62 -32 -107t-81 -75t-107 -44t-110 -14t-111 1t-120 7t-123 19t-115 40t-95 69t-68 106z" />
<glyph unicode="t" horiz-adv-x="672" d="M20 764q0 8 3 23t19 15l206 18q8 74 12 121q3 31 3 60q0 14 -1 28q-2 41 -5 86t-5 117q0 14 6 22t15 12t20 6t17 2q12 0 25 -8t23 -20t16 -25t6 -25l16 -374l172 -8q6 1 13 1q27 0 50 -14q29 -17 31 -63q-24 -26 -58 -31q-28 -4 -59 -4h-12q-18 0 -36.5 0.5t-36.5 -0.5 q-36 -1 -64 -19q0 -12 2 -66t4 -128t5 -158t5 -155t3 -121t1 -56q-21 -13 -38 -13q-20 0 -36 18q-28 33 -45 98t-24 152t-8 172v55q0 54 1 102q2 72 6 104h-56t-83 7t-78 23t-35 46z" />
<glyph unicode="u" horiz-adv-x="1028" d="M34 714q-7 45 -7 83q0 51 13 86q22 61 53 78t53 -8q13 -14 12 -41q0 -20 -6 -46q-4 -8 -6 -25t-4 -35t-4 -34t-2 -22q0 -42 8 -99t25 -119t43 -123t62 -109t83 -78t103 -30q36 0 82 35t87 84t70 101t29 88q0 20 1 66t1 98t-1 98t-1 64q12 20 26 31t34 11q24 0 40 -32 t26 -82t14 -108t6 -112t4 -95t6 -55q10 -40 29 -90t37 -97t32 -86t14 -59q0 -30 -17 -36t-43 -6q-32 0 -47 16t-22 41t-11 55t-13 62t-26 60t-49 46q-46 -26 -79 -63t-67 -70t-75 -57t-105 -24q-72 0 -130 31t-103 84t-78 120t-54 138t-32 140t-11 125z" />
<glyph unicode="v" horiz-adv-x="798" d="M20 712q2 6 6 15t11 19t14 17t17 7q2 0 2 -1t4 -1h4q46 -22 76 -63t53 -93t43 -111t45 -116t59 -111t86 -96q18 60 36 117t41 115t54 120t71 134q48 20 77 24t41 -7t4 -33t-34 -52q-16 -14 -37 -64t-45 -118t-51 -142t-55 -135t-55 -101q-26 -38 -51 -38h-2q-28 0 -63 43 t-75 111t-80 149t-77 161t-68 147t-51 103z" />
<glyph unicode="w" horiz-adv-x="1344" d="M20 524v13q0 87 25 170q27 89 91 159q32 -12 36 -32q4 -22 4 -46q0 -34 -7 -65t-15 -63t-15 -66t-7 -70q0 -26 6 -65t17 -83t29 -87t43 -78t55 -58t68 -23q34 0 81 21t90 53t72 72t29 80l12 260q0 6 8 12t17 11t19 9t14 4q28 0 38 -36t16 -93t14 -121t29 -121t63 -93 q40 -36 116 -36q74 2 118 31t64 77q19 46 19 101v6q-1 59 -16 118t-40 113t-55 94q-4 16 0 23t11 10t17 4t16 1q32 -8 69 -53t65 -107t43 -138q10 -52 10 -103q0 -24 -2 -47q-7 -74 -43 -138t-110 -104q-88 -6 -144 -7h-18q-44 0 -75 4q-37 5 -59 17t-42 31t-43 45t-61 62 q-80 -108 -161 -151q-73 -39 -139 -39q-8 0 -15 1q-73 5 -138 53t-112 120t-76 163t-31 185z" />
<glyph unicode="x" horiz-adv-x="918" d="M-2 740q-4 16 1 24t13 13t18 6t16 1q50 -18 95 -58t87 -84t83 -86t81 -64q40 6 90 41t104 79t106 89t96 70q41 23 69 23h5q30 -2 42 -52q0 -10 -27 -33t-67 -55t-90 -68t-97 -70t-86 -67t-59 -55q42 -40 99 -92t113 -111t103 -121t69 -116q-8 -20 -20 -40t-36 -20 q-4 0 -11 1t-9 1q-54 46 -100 98t-94 105t-98 100t-112 81q-28 0 -51 -19t-45 -50t-41 -68t-36 -69t-31 -56t-26 -28q-38 2 -38 38q0 56 30 107t67 96t67 84t30 71q0 2 -1 4t-1 4q-34 32 -78 74t-89 89t-83 95q-36 44 -58 88z" />
<glyph unicode="y" d="M35 732q-1 14 -1 28q0 19 2 38q4 34 18 60t44 26q8 0 13 -32t12 -83t18 -117t29 -134t44 -134t64 -117t91 -83t121 -32q44 0 92 19t91 49t79 68q36 40 56 78q0 8 -2 38t-4 69t-4 85t-4 87t-3 71t-1 38q4 122 18 149t34 -17t42 -148t41 -243t30 -303q9 -139 9 -278v-51 q-2 -165 -21 -319t-61 -273t-110 -193t-168 -78q-40 0 -95 15t-111 41t-111 62t-98 78t-70 88t-27 92v27t4 22t12 15q12 4 28 4q30 -34 77 -87t107 -103t126 -88t134 -38q56 2 96 29t68 71t46 100t29 114t16 112t11 94q4 20 9 67t10 104t8 119q1 27 1 51q0 33 -2 62 q-4 51 -16 84t-36 33q-34 0 -72 -20t-79 -45t-83 -45t-82 -20q-76 0 -139 31t-115 81t-92 117t-67 139t-40 144t-13 136q0 14 -3 46z" />
<glyph unicode="z" horiz-adv-x="942" d="M38 914q0 32 23 54t61 39t82 26t88 15t81 9t57 3q56 0 105 -16t83 -47t54 -75t20 -102q0 -36 -8 -66t-18 -60t-18 -60t-8 -64q2 0 25 3t51 4t50 -4t22 -23v-5v-3v-6q-6 -10 -21 -28t-17 -18l-214 -20q-16 -28 -46 -61t-60 -68t-54 -69t-28 -62t20 -49t92 -29q44 0 95 8 t103 22t100 32t86 38q16 -12 28 -30t12 -38q0 -30 -28 -53t-72 -41t-98 -32t-107 -22t-98 -12t-69 -4q-28 0 -69 8t-80 23t-65 41t-26 64q0 34 21 76t52 83t63 78t54 61l-264 8q-8 0 -13 6t-7 15t-2 17v10q0 18 2 27t10 13t20 6h28q20 2 68 8t104 12t105 11t69 9 q28 40 46 69t29 54t16 51t5 62q0 16 -3 38t-12 43t-24 35t-39 14h-250q-22 0 -41 -16t-34 -34t-31 -32q-16 -16 -28 -16q-34 0 -56 18t-22 52z" />
<glyph unicode="{" horiz-adv-x="806" d="M38 1388q0 90 51 170t130 140t172 95t177 35q28 0 61 -8t60 -25t45 -44t18 -63q0 -16 -6 -38t-26 -22q-12 0 -27 16t-34 35t-41 35t-50 16q-86 -8 -157 -39t-126 -82t-94 -118t-59 -147q0 -62 24 -107t64 -80t92 -61t105 -48t104 -43t95 -45q-12 -38 -1 -68t28 -57 t33 -57t16 -66q0 -70 -34 -123t-85 -96t-111 -81t-111 -82t-85 -95t-34 -119v-18q24 -42 50 -78t60 -61t75 -39t91 -14h12q74 14 145 26t147 12q0 -34 -23 -58t-59 -39t-80 -23t-87 -12t-78 -5t-53 -1q-72 -14 -128 15t-94 82t-58 118t-20 123q0 74 32 127t80 97t102 81 t102 78t80 89t32 112v13t-1 18t-1 17v12q-4 4 -20 12q-14 8 -18 8h-12q-40 0 -92 -19t-107 -45t-102 -52t-71 -40h-11h-9q-26 0 -33 12t-7 36v16v12q28 14 74 35t90 48t80 60t46 71q-80 14 -141 59t-103 107t-63 135t-21 145z" />
<glyph unicode="|" horiz-adv-x="306" d="M38 1252q0 12 2 32v20q0 4 7 13t11 9q6 0 20 -8q14 -10 20 -14q52 -142 83 -286t48 -290t22 -295t-1 -297q2 -4 5 -12t6 -17t5 -18t2 -13q0 -44 -24 -60q-20 -16 -60 -16h-10q-4 2 -12 9t-10 11q-2 16 -3 56t-5 86t-6 88t-2 58q-4 92 -3 171t-2 156t-9 155t-24 170 q-16 68 -38 144t-22 148z" />
<glyph unicode="}" horiz-adv-x="902" d="M0 -232q0 6 4 17t11 21t16 16t17 6q20 0 31 -12t18 -29t15 -31q12 -16 24 -24q18 -10 49 -26l62 -32t54 -27t27 -11q78 -16 154 3t135 64t96 112t37 147q0 34 -13 80t-34 95t-48 99t-55 97t-54 85t-46 64q-36 44 -80 77t-83 69t-64 80t-25 108q0 38 10 62t10 54 q0 20 -6 38t-13 36t-13 38t-6 40q0 38 5 67t33 59l328 326q8 8 13 24t6 33t1 32v27q0 60 -30 95t-76 53t-100 23t-104 5q-26 0 -49 -5l-46 -10t-47 -8t-48 -1q10 -26 29 -31t39 -5t34 -6t14 -34q0 -30 -17 -35t-41 -5q-74 0 -116 40t-42 108q0 32 20 50t53 28t71 12t75 1 t67 -3t42 -2h35t53 -1t52 -1h36q50 -18 91 -47t72 -65t49 -84t18 -102q0 -64 -30 -115t-75 -96t-98 -84t-98 -77t-75 -78t-30 -88q0 -24 10 -36t25 -18t37 -8l44 -4q14 -2 47 -2h70h69t46 2q28 -12 33 -27t5 -39q0 -12 -2 -28q0 -16 -16 -20q-16 -2 -54 -5t-81 -5t-81 -6 t-54 -4q-34 -4 -62 -22t-36 -54q-2 -6 17 -30t47 -57t63 -70t67 -73t58 -68t38 -50q38 -62 76 -122t69 -124t50 -131t19 -143q0 -100 -32 -174t-90 -126t-135 -77t-169 -25q-56 -6 -124 2t-130 33t-108 73q-46 46 -60 122z" />
<glyph unicode="~" horiz-adv-x="824" d="M47 961q7 43 31 74t62 51q36 22 78 22q4 2 15 1t35 -9t63 -28t103 -58q38 -22 60 -24t54 10q8 4 20 8t12 6l122 96q24 -2 37 -10t18 -18t4 -20t-9 -16q-54 -44 -83 -72t-43 -42t-17 -19t-4 -7t-4 -3t-19 -5q-52 -20 -93 -10t-78 34t-73 53t-78 49q-56 4 -83 -19t-37 -56 t-9 -67t-3 -52t-18 -13t-54 53q-16 48 -9 91z" />
<glyph unicode="&#xa1;" horiz-adv-x="306" d="M43 1276q0 -48 42 -70q45 -22 103 -22q19 0 34 9.5t26.5 23.5t16.5 29.5t5 29.5q0 18 -15.5 32.5t-36.5 26t-45.5 17.5t-42.5 6q-47 0 -67 -22t-20 -60zM85 -3l93 -13l2 29q0 30 1 77t2 108.5t3 128.5t2 134.5t2 126t2.5 103t2.5 64.5v12t1 21t1 23.5v17.5q0 13 1 30 t-2 33.5t-12.5 27t-32.5 10.5q-13 0 -28.5 -1.5t-20.5 -17.5q-8 -43 -11 -115t-4 -159t0 -182t1 -182v-159q0 -75 -3 -117z" />
<glyph unicode="&#xa2;" horiz-adv-x="920" d="M38 446q0 80 29 157t80 140t119 104t148 53l-6 30q-4 16 -4 30q-8 76 -2 107t20 32t30 -20t30 -53t22 -66t2 -58q38 -4 77 -15t72 -31t54 -51t21 -75q0 -8 -5 -32t-13 -48t-19 -43t-19 -19q0 80 -36 138t-108 74q16 -80 23 -154t9 -153t0 -167q-2 -86 -4 -190q2 -4 4 -10 t6 -14q66 -4 131 -2t127 6q6 0 20 -8t20 -10v-6q0 -4 1 -4t1 -2q8 -26 -22 -40t-77 -22t-104 -13t-103 -11q-6 -22 -14 -44t-18 -39t-22 -28t-24 -11h-12q-4 2 -11 9t-9 11q-2 10 -1 34t-1 58q-206 12 -309 122t-103 334zM152 442q0 -80 23 -135t63 -93t94 -58 q52 -20 114 -32q-2 64 -3 116t-1 68q-4 72 -2 134v122q0 60 -3 119t-9 123q-66 -8 -117 -43t-87 -85t-54 -111t-18 -125z" />
<glyph unicode="&#xa3;" horiz-adv-x="1554" d="M20 174q0 36 18 55t45 29t58 11t57 1q40 0 73 -1t65 -3t66 -6t80 -10q36 24 70 81t61 124t44 134t17 115q0 20 -10 29t-24 15q-16 4 -32 4h-28q-36 0 -71 -6t-70 -14t-71 -14t-72 -6h-6q-4 4 -11 18t-9 20v18q4 6 19 21l19 19q14 4 49 11t75 17t76 18t50 12h20 q52 8 87 39t60 76t44 100t41 110t50 107t71 93t106 65t153 24q58 0 114 -19t99 -56t69 -89t26 -116q0 -24 -6 -48q-8 -22 -32 -22q-16 0 -26 17t-22 43t-27 57t-40 57t-62 43t-89 17q-80 0 -137 -24t-97 -66t-66 -103t-48 -135q-4 -8 -7 -24l-6 -32t-5 -28l-2 -10l20 -22 h346q14 0 22 -6t12 -16t5 -21t1 -21q0 -28 -8 -50t-40 -22q-20 0 -36 4t-34 20h-20h-32h-32h-20q-80 0 -130 -23t-81 -63t-48 -92t-32 -112t-33 -124t-52 -126l40 -18q54 -4 115 -2t119 -6t107 -31t81 -75q-44 -32 -97 -38t-103 -6q-72 0 -141 12t-141 12q-52 0 -96 -18 t-85 -42t-84 -42t-97 -18q-40 0 -81 10t-74 31t-55 55t-22 82z" />
<glyph unicode="&#xa4;" horiz-adv-x="1266" d="M64 1044q-4 16 1 24t13 13t17 6t17 1q24 -8 53 -28t62 -45t67 -54t70 -61q80 60 181 91t205 31q56 0 107 -25t95 -65q40 36 77 65t67 42t51 6t27 -43q-44 -38 -81 -76t-71 -78q40 -60 63 -126t23 -122q0 -112 -48 -196t-126 -140q50 -76 138 -152q-8 -22 -22 -41t-38 -19 h-10h-8q-40 32 -77 73t-77 87q-100 -40 -210 -40q-152 0 -260 72q-28 -40 -53 -75t-47 -62t-41 -43t-31 -14q-38 2 -38 38q0 48 36 112t86 128q-36 50 -57 113t-21 139q0 64 18 120t48 102q-32 32 -65 66t-61 65t-48 60t-32 51zM300 572q0 -62 23 -117t64 -98t97 -68 t120 -25q82 -8 163 28t141 96t91 135t15 146t-90 129t-222 84q-66 0 -137 -19t-130 -58t-97 -98t-38 -135z" />
<glyph unicode="&#xa5;" horiz-adv-x="798" d="M32 658q-22 4 1 10t75 9t124 5t146 0l10 82l-310 708q2 6 6 16t11 20t14 17t17 7l2 -2h4h4q46 -22 73 -65t44 -96t30 -113t32 -119t50 -114t83 -95q18 60 44 119t59 120t71 125q38 60 78 132q96 42 118 18t-30 -84l-290 -584l-6 -98q44 -4 84 -10t69 -15t47 -21 q16 -10 16 -26q0 -4 -16 -18t-24 -20l-4 -2q-4 -2 -6 -2l-172 14l-10 -124q34 0 69 -4t62 -13t49 -27q24 -16 32 -40l-78 -40l-140 2l-22 -336l-140 -6l34 344l-156 4q-26 0 -48 2t-36 9t-23 22t-9 43q0 6 8 14t12 8q56 4 81 6t35 4l8 2h140l14 138l-264 24q-24 0 -48 10 t-24 40z" />
<glyph unicode="&#xa6;" horiz-adv-x="240" d="M46 430q0 66 2 160h118q6 -208 8 -331t-1 -189t-11 -84t-19 -12t-27 22t-34 20q-14 92 -21 159t-11 128t-4 127zM58 656q2 48 2 114v130q0 68 -1 132t-1 112q0 16 12 22t28 6q18 0 32 -13t24 -32t15 -38t5 -31q2 -42 0 -98t-6 -114t-8 -110v-84z" />
<glyph unicode="&#xa7;" horiz-adv-x="1054" d="M72 736q12 66 64 109t124 63q-64 32 -104 89t-42 155q10 64 53 107t106 67t139 28t153 -11t149 -46t128 -81q66 -66 82 -109t-6 -55t-72 12q-50 20 -116 84q-30 32 -80 51t-108 27t-116 6t-103 -16t-72 -39t-23 -59q0 -58 34 -92t92 -52t130 -25t148 -15t149 -22t130 -43 t91 -80t34 -133q0 -38 -12 -69t-35 -57t-52 -46t-63 -34q54 -30 88 -80t34 -130q0 -62 -32 -107t-81 -75t-107 -44t-110 -14q-76 0 -163 4t-167 28t-148 74q-72 50 -108 144q16 12 30 21t30 -1q48 -28 88 -55t82 -50t90 -37t114 -14q42 0 102 -1t114 10t92 40t38 89 q0 42 -18 71t-48 47t-72 28t-92 18q-54 -2 -118 0t-127 12t-121 30t-102 56t-70 90q-24 56 -20 132zM194 652q24 -40 59 -64t81 -37t102 -17t120 -4q42 0 101 -1t113 10t93 40t39 89q0 40 -17 68t-46 47t-71 30t-88 19q-118 -4 -197 -10t-130 -13t-80 -19t-43 -30t-21 -45 t-15 -63z" />
<glyph unicode="&#xa8;" horiz-adv-x="814" d="M138 976q0 8 10 24t23 34t29 30q12 12 24 12q32 0 55 -11t37 -27t21 -36t7 -38q0 -12 -10 -27t-26 -28t-35 -22t-39 -9q-22 0 -40 11t-30 26t-19 32t-7 29zM458 976q0 8 9 24t24 34t30 30t25 12q30 0 52 -11t37 -27t22 -36t7 -38q0 -12 -10 -27t-25 -28t-36 -22t-39 -9 q-22 0 -40 11t-30 26t-19 32t-7 29z" />
<glyph unicode="&#xa9;" horiz-adv-x="1368" d="M70 552q-4 58 13 123t47 129t72 122t92 104t107 74t113 32q112 14 218 -4t200 -63t172 -117t132 -165t81 -204t19 -237q-14 -68 -55 -119t-100 -88t-130 -61t-144 -41t-142 -27t-123 -18q-124 0 -229 41t-181 114t-119 176t-43 229zM166 560q-2 -92 39 -171t107 -140 t149 -99t163 -50q28 0 83 7t122 23t139 38t132 54t97 71t37 87q10 126 -29 228t-110 179t-162 130t-184 82t-177 33t-138 -20q-40 -16 -77 -48t-67 -74t-53 -88t-38 -91t-24 -85t-9 -66zM344 500q2 66 19 129t53 118t95 100t145 73q40 0 85 -8t85 -29t66 -54t26 -81 q0 -10 -5 -34t-13 -49t-19 -43t-21 -18q0 94 -52 156q-52 64 -152 64q-76 -30 -117 -66t-59 -78t-19 -88t-1 -96q8 -78 31 -121t60 -63t85 -21t104 3t118 10t130 2q8 0 22 -7t16 -13v-4v-4l2 -2q0 -34 -32 -53t-74 -28t-84 -10t-60 -1q-112 8 -189 19t-129 43t-80 91 t-36 163z" />
<glyph unicode="&#xaa;" horiz-adv-x="546" d="M37 649q0 19 9 43t27.5 46.5t47 40.5t67 25.5t87.5 1t109 -32.5v11v10q0 28 -15 57.5t-38 52.5t-49 38t-51 15q-9 0 -16.5 -3.5t-14.5 -8.5t-13 -8.5t-15 -3.5q-2 0 -2 1l-2 2l-5.5 5.5t-3.5 4.5q0 19 6.5 33.5t17.5 23t25.5 13.5t29.5 5q39 -5 74.5 -27t65.5 -55.5 t52.5 -77.5t37.5 -91.5t20 -95.5q6 -49 1 -93q-1 0 -6 0.5t-11 1t-10 1.5l-4 1q-21 51 -46.5 82.5t-50 49.5t-46 25t-35.5 11q-14 0 -34 -2.5t-41.5 -8t-43.5 -14.5t-39 -22t-27.5 -31t-10.5 -42q0 -26 18.5 -44t45 -29t54 -15.5t43.5 -4.5q27 0 53.5 3t52.5 7.5t51 8 t51 3.5h6.5t10 -1t10 -1h6.5q8 -3 9 -9.5t1 -12.5q0 -7 -12.5 -14.5t-32 -15t-43.5 -16t-45.5 -13.5t-40.5 -9t-27 -4q-41 0 -87 7.5t-84 27.5t-62.5 56t-24.5 92z" />
<glyph unicode="&#xab;" horiz-adv-x="1548" d="M9 190q-13 18 11 42l134 134q4 2 32 23t74 52t102 71t113 80t109 76t90 60q20 16 47 32t55 32t56 29t52 23q4 -4 13 -11t18 -16l17 -17t10 -12q0 -2 -24 -20t-62 -43t-83 -56t-86 -58t-72 -47t-37 -28q-44 -30 -93 -59t-97 -62t-94 -69t-82 -78q4 -8 30 -17t62 -17 t77 -15t78 -13t64 -10t35 -4l78 -12t104 -24t91 -42t39 -66q0 -48 -52 -48q-20 0 -41 8t-42 17t-41 19t-40 14q-16 4 -56 8l-94 10q-54 6 -117 14t-125 17t-116 22t-89 28t-48 33zM499 322q-13 18 9 40l136 134q2 2 31 23t74 53t101 71t113 79t109 76t88 62q44 30 104 62 q60 34 108 54q4 -4 13 -12l18 -16t16 -17t11 -13q0 -2 -24 -20t-63 -43t-83 -56t-85 -58t-71 -47t-38 -26q-44 -30 -92 -59t-97 -63t-95 -70t-82 -76q4 -8 29 -17t61 -18t78 -16t79 -13t64 -10t35 -4q26 -4 77 -11t104 -24t92 -42t39 -67q-2 -48 -54 -48q-20 0 -40 8t-42 16 l-40 20q-18 10 -38 14q-16 4 -56 8l-96 12l-117 13t-124 17t-115 22t-89 28t-48 34z" />
<glyph unicode="&#xac;" horiz-adv-x="756" d="M68 706q0 4 2 23t6 39t10 36t16 16l602 2v-138q0 -18 -2 -42t-5 -47t-6 -43t-3 -30q-40 -12 -62 -9t-30 17t-6 34t6 44l10 48q4 24 2 44q-10 10 -53 15t-103 4t-127 -4t-124 -6t-95 -4t-38 1z" />
<glyph unicode="&#xad;" horiz-adv-x="768" d="M30 494q0 48 22 76t58 45t81 23t93 7t94 2t82 5h6q6 0 14 1t16 1h12q28 0 60 -1t60 -11t46 -29t18 -55q0 -42 -38 -42q-44 0 -81 11t-83 11q-58 0 -115 -7t-115 -15t-115 -15t-115 -7z" />
<glyph unicode="&#xae;" horiz-adv-x="1450" d="M74 588q-4 58 13 123t47 129t72 123t93 104t106 73t113 32q112 14 218 -4t199 -63t171 -117t132 -164t82 -203t20 -237q-14 -68 -55 -120t-101 -88t-131 -61t-144 -42t-141 -27t-124 -18q-124 0 -228 41t-180 114t-119 176t-43 229zM170 596q-2 -92 38 -170t106 -139 t150 -99q84 -40 164 -52q18 0 50 3t73 10t87 17t94 24q-44 24 -93 58t-97 71t-91 73t-71 62q18 -58 29 -104t11 -76t-17 -42t-55 -4q-4 -8 -13 18t-18 75t-19 112t-16 125t-6 118q0 54 12 86q16 8 35 9t33 -5t22 -18t6 -24q0 -4 2 -20t5 -34t6 -35t7 -21q30 2 73 1t86 3 t76 18t41 46l16 80q-18 36 -45 53t-63 21t-84 2q-44 -2 -100 -2q-40 0 -84 -3t-80 -16t-60 -39t-24 -72q-12 0 -22 14t-18 31t-13 34t-5 27q0 32 30 56t62 36q44 6 77 10t63 7t60 4t66 1q56 0 122 -11t124 -35t96 -64t38 -96q0 -50 -31 -85t-78 -57t-104 -34t-106 -17 t-83 -3q-20 2 -30 4q92 -68 158 -118q68 -52 117 -89t81 -61t58 -40q44 18 85 39t71 45t47 53t17 61q10 124 -30 227t-110 180t-162 130t-184 81t-176 32t-140 -20q-62 -22 -111 -81t-83 -128t-53 -136t-19 -107z" />
<glyph unicode="&#xaf;" horiz-adv-x="588" d="M68 948q0 70 26 101t68 41t96 8t108 6q2 0 20 1t26 1q28 0 61 -2t60 -11t45 -28t18 -55q0 -42 -36 -42q-44 0 -82 11t-84 11q-58 0 -94 -7t-69 -14t-69 -14t-94 -7z" />
<glyph unicode="&#xb0;" horiz-adv-x="522" d="M16 840q0 73 22.5 127.5t59.5 92t83 55.5t92 18q25 0 46.5 -12.5t40.5 -34.5t34.5 -51t26 -59.5t16.5 -62t6 -60.5q0 -68 -19 -121t-51 -90t-73 -56t-83 -19q-44 0 -80.5 19t-63.5 54t-42 86t-15 114zM62 850q0 -41 11 -79t30.5 -66t46 -44.5t56.5 -16.5q16 -3 39.5 7 t46.5 29.5t44.5 47t35.5 60t17.5 67.5t-8.5 70.5t-43 68t-86 60.5q-32 0 -65.5 -12.5t-61 -38t-45.5 -64t-18 -89.5z" />
<glyph unicode="&#xb1;" horiz-adv-x="942" d="M30 512q0 26 6 34q8 6 38 14q16 4 57 12t87 17t86 19q44 8 60 10q10 2 13 11t5 19t1 21t-1 15q0 32 -6 63t-14 63t-14 63t-6 65v6q4 6 19 21t19 17h6l4 2l2 -2h4h4q8 -6 22 -20l18 -18l76 -268l18 -20l34 -6q34 -4 80 -11t95 -13t81 -8q6 0 21 -1t32 -5t29 -12t12 -20 q0 -6 -7 -19t-17 -26t-18 -23q-12 -10 -16 -10h-304v-282q8 0 19 1t17 1q28 0 79 1t100 -5t86 -23t37 -53q2 -40 -38 -40q-20 0 -58 1t-80 2t-81 2t-61 1q-58 0 -115 -8l-114 -16t-114 -15t-117 -7q-20 38 2 62t70 40t115 26t137 18q-2 20 -1 37t1 27q-2 14 -7 47t-11 69 t-12 68t-10 46h-20q-40 0 -78 -6t-76 -13t-76 -13t-76 -6q-30 0 -37 14t-7 34z" />
<glyph unicode="&#xb2;" horiz-adv-x="608" d="M15 570q-2 18 5 29.5t18 18t25 8.5t24 2q25 0 49 -8.5t47.5 -20t47 -20.5t49.5 -9q22 0 41.5 17t35 44t27.5 61.5t19.5 67t12 60.5t4.5 44q0 17 -4.5 49.5t-14 64t-25 55t-40.5 23.5q-23 0 -34 -18.5t-17.5 -40.5t-12.5 -42.5t-19 -25.5q-16 12 -19 31.5t-3 36.5 q0 24 8 45t23.5 37t36 24.5t42.5 8.5q38 0 65 -25t43.5 -62.5t24.5 -79.5t8 -73.5t-1.5 -55.5t-6.5 -47t-13.5 -48t-21.5 -58q-7 -6 -18 -20t-20.5 -29.5t-16.5 -31t-7 -24.5q0 -12 11 -19t27.5 -10.5t34.5 -6t34.5 -6.5t27.5 -13t11 -26q0 -12 -11 -23q-8 -12 -21 -12 q-24 0 -47 5.5t-46 12t-46 12.5t-46 6q-39 0 -75 -6.5t-76 -6.5q-22 0 -45 5.5t-43 18t-34.5 32.5t-17.5 49z" />
<glyph unicode="&#xb3;" horiz-adv-x="418" d="M-10 700v7q0 21 10 34.5t28 13.5q7 0 22.5 -22t41.5 -49t62.5 -49.5t85.5 -22.5q19 0 38 3t34 12t24.5 23.5t9.5 38.5q0 51 -22 84.5t-56.5 55t-74.5 32.5t-74 21t-56.5 18.5t-22.5 26.5q0 2 1 3t1 3q2 3 9.5 12t10.5 12q10 3 31.5 7t46 11t50 17t46.5 23t35 30.5 t14 41.5q0 18 -13 30t-29 18.5t-33.5 8.5t-28 2t-30.5 -0.5t-40 -3.5t-34.5 -7.5t-14.5 -11.5v-28q-24 0 -38 14t-14 42q0 12 6 22t15.5 17.5t20 11t19.5 3.5h154q24 0 44.5 -13t35.5 -33t22.5 -46t7.5 -52t-14 -43t-31.5 -31t-32 -27.5t-14.5 -32.5q0 -2 1 -3l1 -2 q32 -14 61 -37.5t52 -54t37 -67.5q12 -36 12 -78q0 -38 -14 -66t-37 -44.5t-51 -25t-55 -8.5q-26 2 -50 5t-52.5 17.5t-65.5 45t-91 87.5q-1 3 -1 4z" />
<glyph unicode="&#xb4;" horiz-adv-x="370" d="M18 854q0 42 32 80t77 72t93 64q44 30 76 54q42 -20 37 -48t-42 -66t-97 -88t-126 -116q-30 0 -40 10t-10 38z" />
<glyph unicode="&#xb5;" horiz-adv-x="1028" d="M30 -128l4 842q-16 108 6 169t53 78t53 -8t6 -87q-4 -8 -6 -25t-4 -35t-4 -34t-2 -22q0 -42 8 -99t25 -119t43 -123t62 -109t83 -78t103 -30q36 0 82 35t87 84t70 101t29 88q0 20 1 66t1 98t-1 98t-1 64q12 20 26 31t34 11q24 0 40 -32t26 -82t14 -108t6 -112t4 -95 t6 -55q10 -40 29 -90t37 -97t32 -86t14 -59q0 -30 -17 -36t-43 -6q-36 -4 -54 19t-32 61t-32 91t-50 109q-20 -22 -42 -58t-57 -70t-86 -63t-129 -37q-86 18 -142 42t-92 54t-56 66q-20 32 -24 68l-4 -408z" />
<glyph unicode="&#xb6;" horiz-adv-x="846" d="M40 712q0 66 20 125t58 105t91 72t121 26q72 0 135 4t114 1t87 -16t52 -47q16 -54 28 -134t19 -173t9 -192t0 -190t-10 -166t-22 -123t-34 -60t-48 26q-10 54 -13 136t-2 173t4 184t3 171t-8 134q-8 54 -24 68q-8 4 -22 -4t-20 -2q-10 -92 -16 -185t-9 -181t-3 -166 t3 -140t6 -102t7 -50q0 -22 -23 -29t-55 -7q-22 0 -31 41t-11 104t0 136t3 137t-4 106t-21 46q-48 8 -95 6t-90 -6t-79 -1t-64 19t-42 52t-14 102z" />
<glyph unicode="&#xb7;" horiz-adv-x="436" d="M100 476q0 10 12 30t28 41t33 35t29 14q38 0 66 -13t46 -32t27 -43t9 -44q0 -14 -12 -32t-32 -34t-45 -27t-49 -11q-28 0 -48 14t-35 32t-22 37t-7 33z" />
<glyph unicode="&#xb8;" horiz-adv-x="912" d="M308 -432q12 10 22 13t26 3q32 0 62 -19t58 -41t55 -41t57 -19h60t47 7t30 30t11 71q2 46 -15 72t-45 40t-63 20t-73 14t-74 21t-64 38t-45 68t-19 113q4 52 13 74t23 21t28 -17t23 -36t11 -40q0 -20 -8 -28q0 -64 31 -91t77 -39t100 -18t100 -27t77 -65t31 -130 q0 -48 -26 -84t-64 -59t-85 -35t-87 -12q-58 0 -96 17t-67 44t-54 62t-57 73z" />
<glyph unicode="&#xb9;" horiz-adv-x="404" d="M-31 741v8q3 3 6.5 8.5t7.5 11.5t7.5 10.5t5.5 6.5l251 255q11 11 17.5 31t11.5 43t9 46.5t10 42t16.5 30.5t25.5 12q8 0 15 -1.5t11 -10.5v-9.5t0.5 -14t0.5 -14v-7.5q0 -6 -3.5 -41t-9.5 -88t-14 -120t-18.5 -135.5t-20 -133.5t-20.5 -115.5t-20.5 -81.5t-17.5 -31 q-14 0 -23 6t-17 22v8t-0.5 13.5t-0.5 14v7.5q0 14 1.5 39t4 56t5 65.5t5.5 66t4.5 56t1.5 39.5v15.5t-2 14.5t-8 13q-7 6 -18 8q-5 -5 -18.5 -20t-30 -35t-37 -42t-39 -40t-36.5 -30t-30 -12q-33 0 -33 33z" />
<glyph unicode="&#xba;" horiz-adv-x="522" d="M16 840q0 73 22.5 127.5t59.5 92t83 55.5t92 18q25 0 46.5 -12.5t40.5 -34.5t34.5 -51t26 -59.5t16.5 -62t6 -60.5q0 -68 -19 -121t-51 -90t-73 -56t-83 -19q-44 0 -80.5 19t-63.5 54t-42 86t-15 114zM62 850q0 -41 11 -79t30.5 -66t46 -44.5t56.5 -16.5q16 -3 39.5 7 t46.5 29.5t44.5 47t35.5 60t17.5 67.5t-8.5 70.5t-43 68t-86 60.5q-32 0 -65.5 -12.5t-61 -38t-45.5 -64t-18 -89.5z" />
<glyph unicode="&#xbb;" horiz-adv-x="1350" d="M56 68q4 18 39 49t86 68t114 80t123 85t113 84t83 78t34 64t-32 40q-36 2 -89 13t-112 32t-119 48t-110 57t-84 60t-44 58q0 2 -1 9t-1 11q0 26 20 32q16 8 40 8q32 0 55 -14t43 -33t43 -40t51 -31q104 -40 225 -79t237 -55q32 -10 36 -29t4 -43q8 -36 -4 -66t-34 -55 t-49 -48t-49 -47q-10 -8 -56 -42t-107 -80t-130 -95t-128 -91t-100 -70t-49 -28q-34 0 -41 21t-7 49zM512 118q6 24 63 69t136 99t163 113t145 112t81 93t-28 60q-36 2 -89 14t-112 32t-119 47t-109 57t-84 60t-45 58q0 2 -1 10t-1 10q0 24 20 32q16 8 40 8q32 0 55 -14 t43 -32t43 -39t51 -31q104 -40 224 -80q122 -40 238 -56q32 -12 36 -30t4 -42q8 -36 -4 -65t-34 -54t-49 -49t-49 -48q-12 -8 -57 -42t-106 -79t-130 -94t-128 -91t-100 -70t-49 -28q-34 0 -41 21t-7 49z" />
<glyph unicode="&#xbc;" horiz-adv-x="1284" d="M36 888v7q3 3 6.5 8t7 11t7 10.5t6.5 7.5l240 250q11 10 17.5 29.5t11 42.5t8.5 46t10 41t15.5 29.5t24.5 11.5q8 0 14.5 -1t10.5 -10v-9.5t0.5 -13.5t0.5 -13.5v-8.5q0 -5 -3 -39.5t-9 -86.5t-14 -117.5t-18 -133t-19 -131t-19.5 -113t-20 -80t-16.5 -30.5 q-14 0 -22.5 5.5t-16.5 21.5v8.5t-0.5 13t-0.5 14v7.5q0 13 1.5 38t4 55.5t5 64t5.5 64.5t4 55t1 38v16t-2 14.5t-7 12.5q-7 5 -17 8q-5 -5 -18.5 -20t-29 -34.5t-35.5 -41t-37.5 -39t-34.5 -29.5t-29 -12q-32 0 -32 33zM275 23q0 29 9.5 71t23.5 86.5t28.5 84.5t23.5 62 l238 920q5 29 9.5 72t11.5 83.5t19 75.5t31 43q13 -4 19 -14.5t8 -24.5t1 -28.5t-1 -26.5q0 -31 -13 -111.5t-35.5 -189.5t-52.5 -238.5t-62.5 -260t-66 -252t-62 -214.5t-52 -150t-35.5 -57q-19 0 -30.5 24.5t-11.5 44.5zM622 442q0 40 4 72t13.5 62.5t22.5 63t30 74.5 q3 12 16 18t29 7t29 -4t10 -16q0 -32 -13.5 -65t-29.5 -67t-29.5 -68.5t-13.5 -70.5q0 -26 7.5 -56.5t24.5 -56t43 -43t62 -17.5q49 0 89 20.5t72.5 50.5t56.5 65.5t40.5 66t25.5 50.5q7 19 10 19q35 0 46 -10q11 -9 11 -26q0 -25 -6.5 -55.5t-15.5 -62.5t-14.5 -63 t-5.5 -57q0 -29 4 -58.5t10 -59t10.5 -58.5t4.5 -57q0 -24 -17.5 -41t-46.5 -17q-19 0 -27 20t-11.5 50.5t-3.5 66t-1 66t-6.5 51t-18.5 20.5q-21 -10 -46 -24t-52.5 -26.5t-56 -19t-55.5 -1.5q-57 0 -95 26t-62 66t-34 84t-10 81z" />
<glyph unicode="&#xbd;" horiz-adv-x="1160" d="M13 791v9q3 4 6.5 10t8 13.5t8 13t6.5 8.5l270 308q12 13 19 37t12.5 52t9.5 56t11 50.5t18 36.5t27 14q9 0 16.5 -1.5t11.5 -12.5v-11t0.5 -17t0.5 -17v-10q0 -6 -3.5 -48.5t-10 -106.5t-15.5 -145t-20 -163.5t-21.5 -161t-22 -139t-22 -98.5t-19.5 -38q-14 0 -24 7.5 t-18 26.5v10.5t-1 16t-1 16.5v10q0 16 1.5 46.5t4.5 68t6 79t6 79.5t4.5 67.5t1.5 46.5v19.5t-2.5 17.5t-8.5 16q-7 7 -19 10q-6 -6 -20.5 -24.5t-32 -42.5t-40 -50.5t-42 -48t-39 -36t-32.5 -14.5q-35 0 -35 40zM271 -27q0 29 10.5 70.5t25 86t30 84.5t24.5 62l253 916 q4 29 9 71.5t12.5 83t20 75t32.5 43.5q14 -5 20 -15t8.5 -24t1.5 -28.5t-1 -26.5q0 -30 -13.5 -110.5t-37.5 -189t-56 -237.5t-66 -259t-69.5 -251t-66 -213.5t-55 -149.5t-37.5 -57q-20 0 -32.5 24.5t-12.5 44.5zM495 163q-3 22 5.5 36t21.5 22t29.5 10.5t27.5 2.5 q29 0 57.5 -10.5t56 -24.5t55 -25t58.5 -11q26 0 49 20.5t41 54t32 75.5t23 82t14 74.5t5 54.5t-5 60t-16.5 78.5t-30 67.5t-47.5 29q-26 0 -39.5 -22.5t-21 -49.5t-14.5 -52.5t-22 -31.5q-19 15 -22 38.5t-3 44.5q0 30 9.5 55.5t27 45.5t41.5 30.5t51 10.5q44 0 75.5 -31 t51 -77t29 -97.5t9.5 -90t-2 -68t-7.5 -57.5t-15.5 -58.5t-25 -71.5q-9 -8 -22 -25t-24 -36t-19.5 -37.5t-8.5 -30.5q0 -15 13.5 -23t32.5 -12.5t40.5 -7.5t40.5 -8t32 -16t13 -32q0 -15 -13 -28q-10 -15 -25 -15q-28 0 -55 6.5t-54 15t-53.5 15.5t-54.5 7q-46 0 -88 -8 t-89 -8q-25 0 -52.5 6.5t-50.5 22t-40.5 40t-20.5 60.5z" />
<glyph unicode="&#xbe;" horiz-adv-x="1160" d="M24 701v8q0 22 10 36t28 14q7 0 22.5 -23t41.5 -51.5t62.5 -51.5t85.5 -23q19 0 38 3t34 12t24.5 24.5t9.5 39.5q0 55 -22 89.5t-56.5 57t-74.5 34.5t-74 22t-56.5 19t-22.5 27q0 3 1 4t1 3q2 4 9.5 13t10.5 13q10 2 31.5 6.5t46 11.5t50 17.5t46.5 24t35 32t14 43.5 q0 19 -13 31.5t-29 19.5t-33.5 9t-28 2t-30.5 -0.5t-40 -4t-34.5 -8t-14.5 -12.5v-28q-24 0 -38 14t-14 44q0 13 6 23.5t15.5 18t20 11.5t19.5 4h154q24 0 44.5 -13.5t35.5 -35t22.5 -48.5t7.5 -54t-14 -45t-31.5 -32.5t-32 -28.5t-14.5 -35q0 -1 1 -2l1 -3q32 -14 61 -38.5 t52 -56.5t37 -71q12 -38 12 -81q0 -40 -14 -69t-37 -46.5t-51 -26.5t-55 -9q-26 2 -50 5.5t-52.5 18t-65.5 47t-91 91.5q-1 3 -1 4zM301 -86q0 29 9 71t23 87t28.5 85.5t23.5 62.5l237 928q4 28 8.5 71.5t12 84.5t19 76t30.5 43q13 -4 18.5 -14.5t8 -24.5t1.5 -28.5 t-1 -27.5q0 -30 -13 -111.5t-35.5 -191.5t-52.5 -240.5t-62 -262t-65 -254t-61.5 -216t-52 -151t-34.5 -57.5q-19 0 -30.5 24.5t-11.5 45.5zM647 531q0 43 3.5 77.5t11.5 67.5t18.5 68t25.5 80q2 14 13 20.5t24 7t24 -4.5t8 -17q0 -35 -11.5 -70.5t-24.5 -72t-24.5 -74 t-11.5 -76.5q0 -27 6.5 -60.5t20.5 -61t35.5 -46t51.5 -18.5q41 0 74 21.5t60 54t47 71t33.5 71.5t20.5 54q6 21 9 21q29 0 38 -10q9 -11 9 -29q0 -27 -5.5 -60t-13 -67.5t-12 -68t-4.5 -61.5q0 -32 3.5 -63.5t8.5 -63.5t8.5 -63t3.5 -61q0 -27 -14.5 -45.5t-38.5 -18.5 q-16 0 -22.5 22t-9.5 55t-3 71.5t-0.5 71.5t-5.5 55t-15 22q-17 -11 -38 -26t-44 -28.5t-46.5 -20.5t-45.5 -2q-47 0 -79 28.5t-51.5 71.5t-28 90.5t-8.5 87.5z" />
<glyph unicode="&#xbf;" horiz-adv-x="558" d="M50 312q0 66 26.5 136.5t68 138.5t87.5 131t84 115q-4 7 -10.5 15.5t-27.5 15.5t-60.5 14t-105.5 14q-11 0 -19.5 7t-14 16.5t-7.5 19.5q-2 12 -2 19q0 15 14 21t35 9t41.5 2t33.5 -1q32 0 74.5 -4.5t81 -17.5t65 -35t26.5 -60q0 -52 -20.5 -100.5t-50 -95t-64 -93 t-64 -94t-49 -97.5t-19.5 -105q0 -90 60 -134t169 -44q42 0 89 17q47 18 70 49q13 -2 18.5 -10.5t6.5 -19t0 -19t-1 -12.5q0 -27 -21.5 -47t-53.5 -32t-67 -19t-65 -7q-81 0 -141.5 27t-102.5 71t-63 98t-21 111zM69 1471q0 19 16 39t48 20q43 0 63 -18t20 -48 q0 -31 -23.5 -49t-59.5 -18q-34 0 -49 25t-15 49z" />
<glyph unicode="&#xc0;" horiz-adv-x="1152" d="M38 620v4q0 14 7 20t17 9t20 7t16 14v10v17v17v10q8 84 13 179t18 186t40 175t75 148t122 102t186 38q88 0 159 -42t126 -113t96 -164t69 -197t47 -210t29 -202t14 -176t4 -132v-68t-3 -59t-6 -61t-11 -74q-16 -22 -41 -41t-55 -19q-26 0 -33 13t-7 35q0 34 6 69t14 70 t14 71t6 72q0 56 -4 120t-20 122q-56 -12 -115 -9t-118 11t-119 16t-120 8h-57t-80 -2t-75 -6q-32 -4 -40 -12l-20 -18q0 -2 -1 -9t-1 -17t-1 -20t-1 -16q0 -58 9 -117t20 -115t21 -112t10 -112v-20q-30 -28 -54 -19t-43 44t-32 90t-20 120t-8 133t5 132q-4 4 -16 17t-24 28 t-24 29q-8 14 -12 22zM188 692l704 -40q6 0 15 1t15 10t12 29t10 56q0 58 -11 133t-33 155t-57 156t-83 136t-111 96t-141 36q-82 0 -138 -43t-91 -112t-54 -155t-27 -172t-9 -162t-1 -124zM429 1886q3 14 33 10t102 -40q24 -20 37 -32t24 -22t24 -22t37 -32q4 -4 12 -18 t8 -18q0 -40 -14 -50q-16 -10 -44 -10q-4 0 -10 2t-26 17t-54 44t-90 83q-16 22 -29 48t-10 40z" />
<glyph unicode="&#xc1;" horiz-adv-x="1152" d="M38 620v4q0 14 7 20t17 9t20 7t16 14v10v17v17v10q8 84 13 179t18 186t40 175t75 148t122 102t186 38q88 0 159 -42t126 -113t96 -164t69 -197t47 -210t29 -202t14 -176t4 -132v-68t-3 -59t-6 -61t-11 -74q-16 -22 -41 -41t-55 -19q-26 0 -33 13t-7 35q0 34 6 69t14 70 t14 71t6 72q0 56 -4 120t-20 122q-56 -12 -115 -9t-118 11t-119 16t-120 8h-57t-80 -2t-75 -6q-32 -4 -40 -12l-20 -18q0 -2 -1 -9t-1 -17t-1 -20t-1 -16q0 -58 9 -117t20 -115t21 -112t10 -112v-20q-30 -28 -54 -19t-43 44t-32 90t-20 120t-8 133t5 132q-4 4 -16 17t-24 28 t-24 29q-8 14 -12 22zM188 692l704 -40q6 0 15 1t15 10t12 29t10 56q0 58 -11 133t-33 155t-57 156t-83 136t-111 96t-141 36q-82 0 -138 -43t-91 -112t-54 -155t-27 -172t-9 -162t-1 -124zM286 1642q0 42 32 80t77 72t93 64q44 30 76 54q42 -20 37 -48t-42 -66t-97 -88 t-126 -116q-30 0 -40 10t-10 38z" />
<glyph unicode="&#xc2;" horiz-adv-x="1152" d="M38 620v4q0 14 7 20t17 9t20 7t16 14v10v17v17v10q8 84 13 179t18 186t40 175t75 148t122 102t186 38q88 0 159 -42t126 -113t96 -164t69 -197t47 -210t29 -202t14 -176t4 -132v-68t-3 -59t-6 -61t-11 -74q-16 -22 -41 -41t-55 -19q-26 0 -33 13t-7 35q0 34 6 69t14 70 t14 71t6 72q0 56 -4 120t-20 122q-56 -12 -115 -9t-118 11t-119 16t-120 8h-57t-80 -2t-75 -6q-32 -4 -40 -12l-20 -18q0 -2 -1 -9t-1 -17t-1 -20t-1 -16q0 -58 9 -117t20 -115t21 -112t10 -112v-20q-30 -28 -54 -19t-43 44t-32 90t-20 120t-8 133t5 132q-4 4 -16 17t-24 28 t-24 29q-8 14 -12 22zM188 692l704 -40q6 0 15 1t15 10t12 29t10 56q0 58 -11 133t-33 155t-57 156t-83 136t-111 96t-141 36q-82 0 -138 -43t-91 -112t-54 -155t-27 -172t-9 -162t-1 -124zM224 1634q56 52 96 84t67 64t46 74t35 114q4 16 17 17t25 1q28 0 42 -13t32 -43 q12 -20 34 -45t45 -52t44 -52t33 -41q14 -22 21 -36t11 -25t6 -23t2 -32q0 -28 -6 -44t-34 -16q-30 0 -55 22t-51 52t-57 63t-69 55q-38 -48 -81 -95t-82 -72t-72 -19t-49 62z" />
<glyph unicode="&#xc3;" horiz-adv-x="1152" d="M38 620v4q0 14 7 20t17 9t20 7t16 14v10v17v17v10q8 84 13 179t18 186t40 175t75 148t122 102t186 38q88 0 159 -42t126 -113t96 -164t69 -197t47 -210t29 -202t14 -176t4 -132v-68t-3 -59t-6 -61t-11 -74q-16 -22 -41 -41t-55 -19q-26 0 -33 13t-7 35q0 34 6 69t14 70 t14 71t6 72q0 56 -4 120t-20 122q-56 -12 -115 -9t-118 11t-119 16t-120 8h-57t-80 -2t-75 -6q-32 -4 -40 -12l-20 -18q0 -2 -1 -9t-1 -17t-1 -20t-1 -16q0 -58 9 -117t20 -115t21 -112t10 -112v-20q-30 -28 -54 -19t-43 44t-32 90t-20 120t-8 133t5 132q-4 4 -16 17t-24 28 t-24 29q-8 14 -12 22zM165 1701q7 43 31 74t62 51q36 22 78 22q4 2 15 1t35 -9t63 -28t103 -58q38 -22 60 -24t54 10l20 6q12 4 12 8l122 96q24 -2 37 -10t18 -18t4 -20t-9 -16q-54 -44 -83 -72t-43 -42t-17 -19t-4 -7t-4 -3t-19 -5q-52 -20 -93 -10t-78 34t-73 53t-78 49 q-56 4 -83 -19t-37 -56t-9 -67t-3 -52t-18 -13t-54 53q-16 48 -9 91zM188 692l704 -40q6 0 15 1t15 10t12 29t10 56q0 58 -11 133t-33 155t-57 156t-83 136t-111 96t-141 36q-82 0 -138 -43t-91 -112t-54 -155t-27 -172t-9 -162t-1 -124z" />
<glyph unicode="&#xc4;" horiz-adv-x="1152" d="M38 620v4q0 14 7 20t17 9t20 7t16 14v10v17v17v10q8 84 13 179t18 186t40 175t75 148t122 102t186 38q88 0 159 -42t126 -113t96 -164t69 -197t47 -210t29 -202t14 -176t4 -132v-68t-3 -59t-6 -61t-11 -74q-16 -22 -41 -41t-55 -19q-26 0 -33 13t-7 35q0 34 6 69t14 70 t14 71t6 72q0 56 -4 120t-20 122q-56 -12 -115 -9t-118 11t-119 16t-120 8h-57t-80 -2t-75 -6q-32 -4 -40 -12l-20 -18q0 -2 -1 -9t-1 -17t-1 -20t-1 -16q0 -58 9 -117t20 -115t21 -112t10 -112v-20q-30 -28 -54 -19t-43 44t-32 90t-20 120t-8 133t5 132q-4 4 -16 17t-24 28 t-24 29q-8 14 -12 22zM188 692l704 -40q6 0 15 1t15 10t12 29t10 56q0 58 -11 133t-33 155t-57 156t-83 136t-111 96t-141 36q-82 0 -138 -43t-91 -112t-54 -155t-27 -172t-9 -162t-1 -124zM280 1752q0 8 10 24t23 34t29 30q12 12 24 12q32 0 55 -11t37 -27t21 -36t7 -38 q0 -12 -10 -27t-26 -28t-35 -22t-39 -9q-22 0 -40 11t-30 26t-19 32t-7 29zM600 1752q0 8 9 24t24 34t30 30t25 12q30 0 52 -11t37 -27t22 -36t7 -38q0 -12 -10 -27t-25 -28t-36 -22t-39 -9q-22 0 -40 11t-30 26t-19 32t-7 29z" />
<glyph unicode="&#xc5;" horiz-adv-x="1152" d="M38 620v4q0 14 7 20t17 9t20 7t16 14v54q8 84 13 179t18 186t40 175t75 148t122 102q28 16 60 24q-28 10 -48 30q-50 46 -50 122q0 44 20 77t53 55t72 33t81 11q32 0 59 -17t47 -43t32 -54q12 -32 12 -56q0 -40 -18 -72t-46 -54q-16 -12 -32 -22q56 -8 104 -36 q70 -42 125 -114t96 -165t69 -197t47 -210t29 -202t14 -176t4 -132v-68t-3 -59t-6 -61t-11 -74q-16 -22 -41 -41t-55 -19q-26 0 -33 13t-7 35q0 34 6 69t14 70t14 71t6 72q0 56 -4 120t-20 122q-56 -12 -115 -9t-118 11t-119 16t-120 8h-57t-80 -2t-75 -6q-32 -4 -40 -12 l-20 -18q0 -2 -1 -9t-1 -17t-1 -20t-1 -16q0 -58 9 -117t20 -115t21 -112t10 -112v-20q-30 -28 -54 -19t-43 44t-32 90t-20 120t-8 133t5 132q-4 4 -16 17t-24 28t-24 29q-8 14 -12 22zM188 692l704 -40q6 0 15 1t15 10t12 29t10 56q0 58 -11 133t-33 155t-57 156t-83 136 t-111 96t-141 36q-82 0 -138 -43t-91 -112t-54 -155t-27 -172t-9 -162t-1 -124zM392 1690q0 -50 30 -74t84 -24q14 -2 35 6t42 23t36 37t14 46t-21 48q-24 26 -76 48q-28 0 -53 -5t-46 -18t-33 -34t-12 -53z" />
<glyph unicode="&#xc6;" horiz-adv-x="1968" d="M38 620v4q0 14 7 20t17 9t20 7t16 14v54q8 84 13 179t18 186t40 175t75 148t122 102t186 38q88 0 159 -42t126 -113t96 -164t69 -197l10 -34v190q0 32 7 49t33 23t76 4t135 -5t210 -7t301 0q20 -8 41 -18t37 -23t27 -31t11 -44q0 -6 -7 -14t-13 -6l-96 38l-642 -18 q-8 0 -14 2q8 -18 8 -26v-364q10 -16 58 -16t114 7t141 20t138 24t107 17q44 8 48 4q6 0 23 2t36 4t36 2h23q0 -48 -53 -78t-133 -46t-173 -24t-175 -14t-138 -14t-60 -24q-12 -32 -17 -71t-5 -81q-2 -16 -2 -30q4 -70 2 -118v-68v-8q2 -20 0 -40v-24q8 -20 36 -30t59 -12 t60 -1t43 1q68 0 136 7l136 14t135 14t135 7h10q4 -2 13 -4t18 -6t16 -7t11 -3q4 -2 12 -9t8 -11q0 -38 -42 -62t-106 -39t-141 -23t-146 -10t-119 -2h-66q-80 0 -142 14q-52 12 -90 38q-16 -20 -38 -40q-24 -18 -54 -18q-26 0 -33 13t-7 35q0 34 6 69t14 70t14 71 q6 28 6 54v18q0 56 -4 120t-20 122q-56 -12 -115 -9t-118 11t-119 16t-120 8h-57t-80 -2t-75 -6q-32 -4 -40 -12l-20 -18q0 -2 -1 -9t-1 -17t-1 -20t-1 -16q0 -58 9 -117t20 -115t21 -112t10 -112v-20q-30 -28 -54 -19t-43 44t-32 90t-20 120t-8 133t5 132q-4 4 -16 17 t-24 28t-24 29q-8 14 -12 22zM188 692l704 -40q6 0 15 1t15 10t12 29t10 56q0 58 -11 133t-33 155t-57 156t-83 136t-111 96t-141 36q-82 0 -138 -43t-91 -112t-54 -155t-27 -172t-9 -162t-1 -124z" />
<glyph unicode="&#xc7;" horiz-adv-x="1056" d="M38 554q0 80 26 167t72 173t109 164t139 138t160 96q84 34 168 34q48 0 72 -36t24 -80q0 -26 -10 -60t-30 -67t-45 -56t-55 -23q0 20 6 39t16 36t16 35t6 40q0 28 -23 33t-45 5h-16h-12q-92 -36 -180 -95t-156 -136t-108 -170t-40 -199q0 -68 13 -149t45 -150t87 -115 t137 -46q68 0 135 13t134 28t134 27t135 12q16 0 32 -4t16 -24q0 -10 -12 -25t-30 -29t-34 -22l-20 -10l-462 -98q-4 0 -17 -1t-21 -1q-12 0 -24 2q8 -20 10 -40t-6 -28q0 -64 31 -91t76 -39t99 -18t100 -27t77 -65t31 -130q0 -48 -25 -84t-64 -59t-85 -35q-48 -12 -88 -12 q-58 0 -96 17t-67 44t-54 62t-57 73q12 10 23 13t25 3q32 0 63 -19t59 -41t54 -41t58 -19h60t46 7t29 30t11 71q2 46 -15 72t-44 40t-63 20t-73 14t-73 21t-65 38t-46 68t-19 113q2 38 8 58l-16 8q-52 28 -93 71t-70 100t-48 119t-27 124t-8 116z" />
<glyph unicode="&#xc8;" horiz-adv-x="1074" d="M38 292q0 76 11 152t11 154q0 32 -10 54t-10 48v12q4 4 14 19t14 19v442q0 32 7 48t34 22t76 4t134 -6t209 -6q128 -2 304 0q20 -8 40 -17t37 -23t27 -32t10 -44q0 -6 -7 -14t-11 -6l-96 38l-644 -18q-8 0 -14 2q10 -20 10 -28v-362q10 -16 58 -15t114 7t140 19t138 24 t106 19q44 8 48 4q6 0 23 1t37 2t36 2t22 1q0 -48 -53 -78t-133 -46t-173 -25t-174 -15t-137 -14q-58 -4 -62 -20q-12 -32 -17 -72t-6 -81t0 -82t1 -73v-28v-41v-40v-25q8 -20 36 -30t60 -13t60 -1q32 2 44 2q68 0 136 7t135 14l134 14t135 7h12q4 -2 12 -4t17 -6t15 -8 q8 -4 12 -4q4 -2 12 -8q8 -4 8 -8q0 -38 -42 -63t-106 -40t-140 -22t-146 -10t-120 -3h-64q-80 0 -141 14t-102 47t-61 89q-20 60 -20 144zM381 1612q3 14 33 10t102 -40q24 -20 37 -32t24 -22t24 -22t37 -32q4 -4 12 -18t8 -18q0 -40 -14 -50q-16 -10 -44 -10q-4 0 -10 2 t-26 17t-54 44t-90 83q-16 22 -29 48t-10 40z" />
<glyph unicode="&#xc9;" horiz-adv-x="1074" d="M38 292q0 76 11 152t11 154q0 32 -10 54t-10 48v12q4 4 14 19t14 19v442q0 32 7 48t34 22t76 4t134 -6t209 -6q128 -2 304 0q20 -8 40 -17t37 -23t27 -32t10 -44q0 -6 -7 -14t-11 -6l-96 38l-644 -18q-8 0 -14 2q10 -20 10 -28v-362q10 -16 58 -15t114 7t140 19t138 24 t106 19q44 8 48 4q6 0 23 1t37 2t36 2t22 1q0 -48 -53 -78t-133 -46t-173 -25t-174 -15t-137 -14q-58 -4 -62 -20q-12 -32 -17 -72t-6 -81t0 -82t1 -73v-28v-41v-40v-25q8 -20 36 -30t60 -13t60 -1q32 2 44 2q68 0 136 7t135 14l134 14t135 7h12q4 -2 12 -4t17 -6t15 -8 q8 -4 12 -4q4 -2 12 -8q8 -4 8 -8q0 -38 -42 -63t-106 -40t-140 -22t-146 -10t-120 -3h-64q-80 0 -141 14t-102 47t-61 89q-20 60 -20 144zM330 1344q0 42 32 80t77 72t93 64q44 30 76 54q42 -20 37 -48t-42 -66t-97 -88t-126 -116q-30 0 -40 10t-10 38z" />
<glyph unicode="&#xca;" horiz-adv-x="1074" d="M38 292q0 76 11 152t11 154q0 32 -10 54t-10 48v12q4 4 14 19t14 19v442q0 32 7 48t34 22t76 4t134 -6t209 -6q128 -2 304 0q20 -8 40 -17t37 -23t27 -32t10 -44q0 -6 -7 -14t-11 -6l-96 38l-644 -18q-8 0 -14 2q10 -20 10 -28v-362q10 -16 58 -15t114 7t140 19t138 24 t106 19q44 8 48 4q6 0 23 1t37 2t36 2t22 1q0 -48 -53 -78t-133 -46t-173 -25t-174 -15t-137 -14q-58 -4 -62 -20q-12 -32 -17 -72t-6 -81t0 -82t1 -73v-28v-41v-40v-25q8 -20 36 -30t60 -13t60 -1q32 2 44 2q68 0 136 7t135 14l134 14t135 7h12q4 -2 12 -4t17 -6t15 -8 q8 -4 12 -4q4 -2 12 -8q8 -4 8 -8q0 -38 -42 -63t-106 -40t-140 -22t-146 -10t-120 -3h-64q-80 0 -141 14t-102 47t-61 89q-20 60 -20 144zM260 1452q56 52 96 84t67 64t46 74t35 114q4 16 17 17t25 1q28 0 42 -13t32 -43q12 -20 34 -45t45 -52t44 -52t33 -41q14 -22 21 -36 t11 -25t6 -23t2 -32q0 -28 -6 -44t-34 -16q-30 0 -55 22t-51 52t-57 63t-69 55q-38 -48 -81 -95t-82 -72t-72 -19t-49 62z" />
<glyph unicode="&#xcb;" horiz-adv-x="1074" d="M38 292q0 76 11 152t11 154q0 32 -10 54t-10 48v12q4 4 14 19t14 19v442q0 32 7 48t34 22t76 4t134 -6t209 -6q128 -2 304 0q20 -8 40 -17t37 -23t27 -32t10 -44q0 -6 -7 -14t-11 -6l-96 38l-644 -18q-8 0 -14 2q10 -20 10 -28v-362q10 -16 58 -15t114 7t140 19t138 24 t106 19q44 8 48 4q6 0 23 1t37 2t36 2t22 1q0 -48 -53 -78t-133 -46t-173 -25t-174 -15t-137 -14q-58 -4 -62 -20q-12 -32 -17 -72t-6 -81t0 -82t1 -73v-28v-41v-40v-25q8 -20 36 -30t60 -13t60 -1q32 2 44 2q68 0 136 7t135 14l134 14t135 7h12q4 -2 12 -4t17 -6t15 -8 q8 -4 12 -4q4 -2 12 -8q8 -4 8 -8q0 -38 -42 -63t-106 -40t-140 -22t-146 -10t-120 -3h-64q-80 0 -141 14t-102 47t-61 89q-20 60 -20 144zM266 1472q0 8 10 24t23 34t29 30q12 12 24 12q32 0 55 -11t37 -27t21 -36t7 -38q0 -12 -10 -27t-26 -28t-35 -22t-39 -9 q-22 0 -40 11t-30 26t-19 32t-7 29zM586 1472q0 8 9 24t24 34t30 30t25 12q30 0 52 -11t37 -27t22 -36t7 -38q0 -12 -10 -27t-25 -28t-36 -22t-39 -9q-22 0 -40 11t-30 26t-19 32t-7 29z" />
<glyph unicode="&#xcc;" horiz-adv-x="344" d="M-39 1554q3 14 33 10t102 -40q24 -20 37 -32t24 -22t24 -22t37 -32q4 -4 12 -18t8 -18q0 -40 -14 -50q-16 -10 -44 -10q-4 0 -10 2t-26 17t-54 44t-90 83q-16 22 -29 48t-10 40zM30 1120q24 32 48 12t48 -75t47 -140t42 -181t36 -198t29 -192t20 -160t8 -106v-24t-2 -23 t-11 -20t-27 -13q-12 -4 -24 7t-24 25t-19 27t-9 17q-10 74 -19 155t-17 163t-18 162q-10 84 -22 156q-6 30 -21 80t-29 107t-25 115t-11 106z" />
<glyph unicode="&#xcd;" horiz-adv-x="344" d="M-50 1244q0 42 32 80t77 72t93 64q44 30 76 54q42 -20 37 -48t-42 -66t-97 -88t-126 -116q-30 0 -40 10t-10 38zM30 1120q24 32 48 12t48 -75t47 -140t42 -181t36 -198t29 -192t20 -160t8 -106v-24t-2 -23t-11 -20t-27 -13q-12 -4 -24 7t-24 25t-19 27t-9 17 q-10 74 -19 155t-17 163t-18 162q-10 84 -22 156q-6 30 -21 80t-29 107t-25 115t-11 106z" />
<glyph unicode="&#xce;" horiz-adv-x="344" d="M-100 1452q56 52 96 84t67 64t46 74t35 114q4 16 17 17t25 1q28 0 42 -13t32 -43q12 -20 34 -45t45 -52t44 -52t33 -41q14 -22 21 -36t11 -25t6 -23t2 -32q0 -28 -6 -44t-34 -16q-30 0 -55 22t-51 52t-57 63t-69 55q-38 -48 -81 -95t-82 -72t-72 -19t-49 62zM30 1120 q24 32 48 12t48 -75t47 -140t42 -181t36 -198t29 -192t20 -160t8 -106v-24t-2 -23t-11 -20t-27 -13q-12 -4 -24 7t-24 25t-19 27t-9 17q-10 74 -19 155t-17 163t-18 162q-10 84 -22 156q-6 30 -21 80t-29 107t-25 115t-11 106z" />
<glyph unicode="&#xcf;" horiz-adv-x="344" d="M-214 1298q0 8 10 24t23 34t29 30q12 12 24 12q32 0 55 -11t37 -27t21 -36t7 -38q0 -12 -10 -27t-26 -28t-35 -22t-39 -9q-22 0 -40 11t-30 26t-19 32t-7 29zM30 1120q24 32 48 12t48 -75t47 -140t42 -181t36 -198t29 -192t20 -160t8 -106v-24t-2 -23t-11 -20t-27 -13 q-12 -4 -24 7t-24 25t-19 27t-9 17q-10 74 -19 155t-17 163t-18 162q-10 84 -22 156q-6 30 -21 80t-29 107t-25 115t-11 106zM106 1298q0 8 9 24t24 34t30 30t25 12q30 0 52 -11t37 -27t22 -36t7 -38q0 -12 -10 -27t-25 -28t-36 -22t-39 -9q-22 0 -40 11t-30 26t-19 32 t-7 29z" />
<glyph unicode="&#xd0;" horiz-adv-x="1518" d="M40 1152v8q0 28 29 48t72 34t95 23t97 13t76 7t33 3q102 0 218 -23t229 -67t216 -109t182 -149t126 -188t47 -224q0 -110 -34 -198t-94 -154t-140 -111t-170 -66t-185 -21t-185 22q-18 6 -44 17t-51 25t-41 34q-18 24 -18 48q0 16 5 33t25 17q10 0 51 -11t89 -25t94 -26 t64 -14h10q88 0 178 33t164 93t121 139t47 171q0 72 -28 141t-75 133t-110 118t-133 97t-142 73t-138 42q0 -16 2 -47t6 -71t8 -82t8 -81t8 -69l4 -46q34 0 66 2t58 4q2 0 20 1t26 1q28 0 61 -1t61 -11t46 -30t18 -56q0 -40 -38 -40q-44 0 -81 11t-85 11q-34 0 -67 -3 t-69 -7q8 -52 16 -84l14 -56t10 -42t5 -40t-1 -52t-8 -78v-25t-5 -26t-16 -21t-27 -8q-40 -20 -53 4t-14 81t-1 144t-16 189q-56 -8 -112 -15t-114 -7q0 40 17 67t43 44t62 25q40 10 80 14q-4 18 -10 56t-14 82t-16 93t-18 91t-19 72t-17 40q-144 0 -230 -9t-137 -21 t-74 -25t-41 -21l-4 -2q-4 -2 -6 -2q-4 0 -4 2q-2 2 -4 2q-2 2 -4 6l-4 18q-4 8 -7 18t-3 14z" />
<glyph unicode="&#xd1;" horiz-adv-x="1248" d="M58 122q0 94 6 188t15 187t15 185q6 94 6 186q0 52 -11 100t-11 98v10q4 2 15 5t23 5t24 6q10 4 14 4h20q16 -72 43 -172t65 -204t90 -207t120 -184t152 -130t188 -47q62 0 109 21t77 58t45 87t15 110q0 78 -31 145t-67 129t-67 124t-31 134q0 28 6 44t34 16q32 0 65 -36 t63 -92t56 -125t46 -137t31 -126t11 -92q0 -86 -28 -157t-79 -124t-122 -82t-157 -29q-94 0 -169 36t-134 93t-104 121t-77 121t-55 93t-37 36q-26 0 -38 -18t-17 -42t-5 -51v-41q0 -64 12 -119t12 -117q0 -14 -3 -36t-10 -44t-21 -38t-36 -16q-20 0 -33 15t-21 34t-11 40 t-3 35zM281 1269q7 43 31 74t62 51q36 22 78 22q4 2 15 1t35 -9t63 -28t103 -58q38 -22 60 -24t54 10l20 6q12 4 12 8l122 96q24 -2 37 -10t18 -18t4 -20t-9 -16q-54 -44 -83 -72t-43 -42t-17 -19t-4 -7t-4 -3t-19 -5q-52 -20 -93 -10t-78 34t-73 53t-78 49q-56 4 -83 -19 t-37 -56t-9 -67t-3 -52t-18 -13t-54 53q-16 48 -9 91z" />
<glyph unicode="&#xd2;" horiz-adv-x="1248" d="M38 558q-4 88 23 164t77 135t122 95q72 32 158 40q150 -22 287 -76t242 -138t171 -196t74 -252q-20 -104 -82 -164t-146 -93t-180 -49q-96 -14 -176 -26q-124 0 -229 41t-180 113t-118 176t-43 230zM132 568q-2 -92 39 -172t107 -140t148 -100t164 -52q28 0 74 5t100 16 t109 30t100 46t74 64t29 85q-14 100 -61 178t-115 138t-148 102t-158 67t-146 33t-112 0q-62 -22 -101 -58t-62 -77t-32 -83t-9 -82zM513 1434q3 14 33 10t102 -40q24 -20 37 -32t24 -22t24 -22t37 -32q4 -4 12 -18t8 -18q0 -40 -14 -50q-16 -10 -44 -10q-4 0 -10 2t-26 17 t-54 44t-90 83q-16 22 -29 48t-10 40z" />
<glyph unicode="&#xd3;" horiz-adv-x="1248" d="M38 558q-4 88 23 164t77 135t122 95q72 32 158 40q150 -22 287 -76t242 -138t171 -196t74 -252q-20 -104 -82 -164t-146 -93t-180 -49q-96 -14 -176 -26q-124 0 -229 41t-180 113t-118 176t-43 230zM132 568q-2 -92 39 -172t107 -140t148 -100t164 -52q28 0 74 5t100 16 t109 30t100 46t74 64t29 85q-14 100 -61 178t-115 138t-148 102t-158 67t-146 33t-112 0q-62 -22 -101 -58t-62 -77t-32 -83t-9 -82zM426 1162q0 42 32 80t77 72t93 64q44 30 76 54q42 -20 37 -48t-42 -66t-97 -88t-126 -116q-30 0 -40 10t-10 38z" />
<glyph unicode="&#xd4;" horiz-adv-x="1248" d="M38 558q-4 88 23 164t77 135t122 95q72 32 158 40q150 -22 287 -76t242 -138t171 -196t74 -252q-20 -104 -82 -164t-146 -93t-180 -49q-96 -14 -176 -26q-124 0 -229 41t-180 113t-118 176t-43 230zM132 568q-2 -92 39 -172t107 -140t148 -100t164 -52q28 0 74 5t100 16 t109 30t100 46t74 64t29 85q-14 100 -61 178t-115 138t-148 102t-158 67t-146 33t-112 0q-62 -22 -101 -58t-62 -77t-32 -83t-9 -82zM168 1212q56 52 96 84t67 64t46 74t35 114q4 16 17 17t25 1q28 0 42 -13t32 -43q12 -20 34 -45t45 -52t44 -52t33 -41q14 -22 21 -36 t11 -25t6 -23t2 -32q0 -28 -6 -44t-34 -16q-30 0 -55 22t-51 52t-57 63t-69 55q-38 -48 -81 -95t-82 -72t-72 -19t-49 62z" />
<glyph unicode="&#xd5;" horiz-adv-x="1248" d="M38 558q-4 88 23 164t77 135t122 95q72 32 158 40q150 -22 287 -76t242 -138t171 -196t74 -252q-20 -104 -82 -164t-146 -93t-180 -49q-96 -14 -176 -26q-124 0 -229 41t-180 113t-118 176t-43 230zM132 568q-2 -92 39 -172t107 -140t148 -100t164 -52q28 0 74 5t100 16 t109 30t100 46t74 64t29 85q-14 100 -61 178t-115 138t-148 102t-158 67t-146 33t-112 0q-62 -22 -101 -58t-62 -77t-32 -83t-9 -82zM171 1191q7 43 31 74t62 51q36 22 78 22q4 2 15 1t35 -9t63 -28t103 -58q38 -22 60 -24t54 10l20 6q12 4 12 8l122 96q24 -2 37 -10t18 -18 t4 -20t-9 -16q-54 -44 -83 -72t-43 -42t-17 -19t-4 -7t-4 -3t-19 -5q-52 -20 -93 -10t-78 34t-73 53t-78 49q-56 4 -83 -19t-37 -56t-9 -67t-3 -52t-18 -13t-54 53q-16 48 -9 91z" />
<glyph unicode="&#xd6;" horiz-adv-x="1248" d="M38 558q-4 88 23 164t77 135t122 95q72 32 158 40q150 -22 287 -76t242 -138t171 -196t74 -252q-20 -104 -82 -164t-146 -93t-180 -49q-96 -14 -176 -26q-124 0 -229 41t-180 113t-118 176t-43 230zM132 568q-2 -92 39 -172t107 -140t148 -100t164 -52q28 0 74 5t100 16 t109 30t100 46t74 64t29 85q-14 100 -61 178t-115 138t-148 102t-158 67t-146 33t-112 0q-62 -22 -101 -58t-62 -77t-32 -83t-9 -82zM360 1284q0 8 10 24t23 34t29 30q12 12 24 12q32 0 55 -11t37 -27t21 -36t7 -38q0 -12 -10 -27t-26 -28t-35 -22t-39 -9q-22 0 -40 11 t-30 26t-19 32t-7 29zM680 1284q0 8 9 24t24 34t30 30t25 12q30 0 52 -11t37 -27t22 -36t7 -38q0 -12 -10 -27t-25 -28t-36 -22t-39 -9q-22 0 -40 11t-30 26t-19 32t-7 29z" />
<glyph unicode="&#xd7;" horiz-adv-x="918" d="M104 590q-4 16 8 29t28 23t32 16t24 6q44 -40 65 -64t37 -40t35 -31t59 -37q40 6 75 29t67 51t59 52t49 33t38 -4t26 -63q0 -16 -25 -35t-60 -43t-74 -54t-69 -64q42 -40 60 -59t30 -35t30 -34t58 -52q-12 -26 -39 -42t-59 -40q-28 32 -39 48t-15 21t-6 6t-8 9t-24 28 l-54 60q-12 -2 -24 -13t-33 -35t-50 -58t-73 -78q-10 0 -23 4t-24 10t-18 15t-7 17q18 46 42 75t48 50t41 42t17 53q0 2 -1 4t-1 4q-34 32 -54 53t-38 41t-42 43t-68 59z" />
<glyph unicode="&#xd8;" horiz-adv-x="1248" d="M38 558q-4 88 23 164t77 135t122 95q72 32 158 40q122 -18 234 -56l44 124q6 28 12 70t16 83t26 74t42 41q18 -4 26 -14t11 -23t3 -27v-26q0 -30 -19 -109t-51 -187q-6 -22 -12 -46q110 -50 196 -118q106 -84 172 -196t74 -252q-20 -104 -82 -164t-146 -93t-180 -49 q-96 -14 -176 -26q-88 0 -168 20q-4 -12 -10 -22q-40 -92 -71 -148t-47 -56q-26 0 -42 24t-16 44q0 28 13 70t31 86q10 26 22 48q-68 36 -122 88q-76 74 -118 177t-42 229zM132 568q-2 -92 39 -172t109 -140q44 -42 96 -74l236 646l-18 6q-78 26 -146 34t-112 0 q-62 -22 -101 -58t-62 -77t-32 -83t-9 -82zM488 130q50 -18 102 -26q28 0 74 5t100 16t109 30t100 46t74 64t29 85q-14 100 -61 178t-115 138t-148 102l-36 18q-12 -38 -26 -78q-40 -126 -85 -254t-89 -248q-16 -40 -28 -76z" />
<glyph unicode="&#xd9;" horiz-adv-x="1170" d="M56 780q0 18 1 49t4 68t11 76t24 70t40 51t58 20q22 0 34 -12t14 -29t-10 -37t-38 -36q-18 0 -26 -27t-12 -59t-4 -62v-36q0 -52 4 -120t16 -141t35 -145t60 -131t89 -99t126 -44q56 -4 130 20t138 69t109 104t45 123v8q-14 84 -29 140t-26 102t-18 94t-7 112 q6 92 21 137t31 50t34 -23t32 -81t20 -126t4 -155q2 -60 23 -132t47 -144t53 -140t41 -119t8 -84t-42 -33q-40 0 -60 24t-34 53t-30 53t-40 24q-20 0 -48 -15t-63 -39t-76 -52t-85 -52t-90 -40t-94 -16q-86 0 -150 41t-110 107t-77 151t-49 172t-26 168t-8 143zM477 1434 q3 14 33 10t102 -40q24 -20 37 -32t24 -22t24 -22t37 -32q4 -4 12 -18t8 -18q0 -40 -14 -50q-16 -10 -44 -10q-4 0 -10 2t-26 17t-54 44t-90 83q-16 22 -29 48t-10 40z" />
<glyph unicode="&#xda;" horiz-adv-x="1170" d="M56 780q0 18 1 49t4 68t11 76t24 70t40 51t58 20q22 0 34 -12t14 -29t-10 -37t-38 -36q-18 0 -26 -27t-12 -59t-4 -62v-36q0 -52 4 -120t16 -141t35 -145t60 -131t89 -99t126 -44q56 -4 130 20t138 69t109 104t45 123v8q-14 84 -29 140t-26 102t-18 94t-7 112 q6 92 21 137t31 50t34 -23t32 -81t20 -126t4 -155q2 -60 23 -132t47 -144t53 -140t41 -119t8 -84t-42 -33q-40 0 -60 24t-34 53t-30 53t-40 24q-20 0 -48 -15t-63 -39t-76 -52t-85 -52t-90 -40t-94 -16q-86 0 -150 41t-110 107t-77 151t-49 172t-26 168t-8 143zM388 1162 q0 42 32 80t77 72t93 64q44 30 76 54q42 -20 37 -48t-42 -66t-97 -88t-126 -116q-30 0 -40 10t-10 38z" />
<glyph unicode="&#xdb;" horiz-adv-x="1170" d="M56 780q0 18 1 49t4 68t11 76t24 70t40 51t58 20q22 0 34 -12t14 -29t-10 -37t-38 -36q-18 0 -26 -27t-12 -59t-4 -62v-36q0 -52 4 -120t16 -141t35 -145t60 -131t89 -99t126 -44q56 -4 130 20t138 69t109 104t45 123v8q-14 84 -29 140t-26 102t-18 94t-7 112 q6 92 21 137t31 50t34 -23t32 -81t20 -126t4 -155q2 -60 23 -132t47 -144t53 -140t41 -119t8 -84t-42 -33q-40 0 -60 24t-34 53t-30 53t-40 24q-20 0 -48 -15t-63 -39t-76 -52t-85 -52t-90 -40t-94 -16q-86 0 -150 41t-110 107t-77 151t-49 172t-26 168t-8 143zM308 1452 q56 52 96 84t67 64t46 74t35 114q4 16 17 17t25 1q28 0 42 -13t32 -43q12 -20 34 -45t45 -52t44 -52t33 -41q14 -22 21 -36t11 -25t6 -23t2 -32q0 -28 -6 -44t-34 -16q-30 0 -55 22t-51 52t-57 63t-69 55q-38 -48 -81 -95t-82 -72t-72 -19t-49 62z" />
<glyph unicode="&#xdc;" horiz-adv-x="1170" d="M56 780q0 18 1 49t4 68t11 76t24 70t40 51t58 20q22 0 34 -12t14 -29t-10 -37t-38 -36q-18 0 -26 -27t-12 -59t-4 -62v-36q0 -52 4 -120t16 -141t35 -145t60 -131t89 -99t126 -44q56 -4 130 20t138 69t109 104t45 123v8q-14 84 -29 140t-26 102t-18 94t-7 112 q6 92 21 137t31 50t34 -23t32 -81t20 -126t4 -155q2 -60 23 -132t47 -144t53 -140t41 -119t8 -84t-42 -33q-40 0 -60 24t-34 53t-30 53t-40 24q-20 0 -48 -15t-63 -39t-76 -52t-85 -52t-90 -40t-94 -16q-86 0 -150 41t-110 107t-77 151t-49 172t-26 168t-8 143zM322 1284 q0 8 10 24t23 34t29 30q12 12 24 12q32 0 55 -11t37 -27t21 -36t7 -38q0 -12 -10 -27t-26 -28t-35 -22t-39 -9q-22 0 -40 11t-30 26t-19 32t-7 29zM642 1284q0 8 9 24t24 34t30 30t25 12q30 0 52 -11t37 -27t22 -36t7 -38q0 -12 -10 -27t-25 -28t-36 -22t-39 -9 q-22 0 -40 11t-30 26t-19 32t-7 29z" />
<glyph unicode="&#xdd;" horiz-adv-x="826" d="M36 1310q2 0 11 1t20 2t21 3h12q14 -40 38 -90t59 -102t77 -101t89 -88t98 -62t105 -23q36 80 57 127t33 73t16 39t6 28t4 36t10 65q0 8 16 17t33 11t32 -4t15 -24q0 -110 -24 -209t-60 -193t-76 -187t-70 -191t-43 -204t5 -226q-12 -22 -24 -31t-32 -9t-34 9t-26 31v21 v32v32v21q0 86 9 153t24 131t37 131t46 151q0 4 1 15t1 15q4 2 -35 20t-95 51t-122 83t-121 116t-88 148t-25 182zM362 1426q0 42 32 80t77 72t93 64q44 30 76 54q42 -20 37 -48t-42 -66t-97 -88t-126 -116q-30 0 -40 10t-10 38z" />
<glyph unicode="&#xde;" horiz-adv-x="1018" d="M100 1059q0 55 2 97t6 67t8 23l118 -24q4 -20 3 -70t-5 -112t-8 -129t-6 -121t0 -90t10 -32q36 0 71 12t75 12q60 0 128 -11t135 -33t130 -57t110 -81t75 -106t28 -132q0 -92 -45 -147t-115 -83t-152 -36q-84 -8 -156 -8q-22 0 -60 13t-79 29t-77 32t-50 20l24 -412 l-110 44l-44 892q0 6 -2 37t-4 77t-4 103l-4 114t-2 112zM250 436q-20 -88 11 -152t90 -105t136 -57t153 -5t136 47q64 38 92 104q0 54 -25 98t-65 78t-91 59t-104 41t-105 25t-92 9q-66 0 -101 -38t-35 -104z" />
<glyph unicode="&#xdf;" horiz-adv-x="1210" d="M66 1228q2 72 24 120t68 68t122 4q38 0 88 -8t104 -24t107 -41t95 -57t70 -72q26 -38 26 -86q0 -52 -22 -96t-48 -79t-48 -62t-22 -51q0 -4 40 -23t101 -53t130 -84t130 -111t101 -132t40 -151q0 -56 -36 -95t-95 -66t-132 -42t-146 -23t-139 -10q-68 -2 -112 -2 q-16 0 -30 2t-22 12t-9 34t9 66q40 0 99 -1t123 -1t127 7t114 24t82 46t31 75q0 98 -51 163t-128 111t-167 77t-167 58t-128 57t-51 72q0 22 23 35t58 23t76 21t76 32t58 53t23 86q0 44 -24 78t-61 58t-80 36t-81 12q-56 0 -116 -12t-104 -48l116 -1502q-4 2 -34 6t-64 12 t-60 21t-22 33q32 90 44 194t9 215t-17 225t-32 225t-35 215t-25 194t-6 162z" />
<glyph unicode="&#xe0;" horiz-adv-x="1036" d="M38 338q2 34 20 78t56 86t96 75t137 47t180 2t225 -60v20l-2 18q0 52 -30 106t-77 97t-101 70t-104 27q-20 0 -35 -6t-29 -15t-27 -16t-31 -7q-4 0 -4 2l-4 4q-4 4 -11 10t-7 8q0 36 13 62t36 42t52 25t61 9q80 -8 153 -49t134 -103t107 -143t77 -168t41 -175 q12 -92 2 -172q-2 0 -12 1t-22 2t-20 3l-10 2q-42 94 -94 152t-103 91t-95 46t-72 19q-30 0 -71 -4t-85 -14t-89 -27t-80 -41t-56 -57t-21 -77q0 -48 38 -81t92 -54t110 -29t90 -8q56 0 110 6t107 14t105 14t104 6h14t21 -1t20 -1h13q16 -6 18 -18t2 -24t-25 -26t-65 -28 t-89 -29t-94 -25t-84 -17t-55 -7q-84 0 -178 14t-172 51t-129 103t-51 170zM345 1314q3 14 33 10t102 -40q24 -20 37 -32t24 -22t24 -22t37 -32q4 -4 12 -18t8 -18q0 -40 -14 -50q-16 -10 -44 -10q-4 0 -10 2t-26 17t-54 44t-90 83q-16 22 -29 48t-10 40z" />
<glyph unicode="&#xe1;" horiz-adv-x="1036" d="M38 338q2 34 20 78t56 86t96 75t137 47t180 2t225 -60v20l-2 18q0 52 -30 106t-77 97t-101 70t-104 27q-20 0 -35 -6t-29 -15t-27 -16t-31 -7q-4 0 -4 2l-4 4q-4 4 -11 10t-7 8q0 36 13 62t36 42t52 25t61 9q80 -8 153 -49t134 -103t107 -143t77 -168t41 -175 q12 -92 2 -172q-2 0 -12 1t-22 2t-20 3l-10 2q-42 94 -94 152t-103 91t-95 46t-72 19q-30 0 -71 -4t-85 -14t-89 -27t-80 -41t-56 -57t-21 -77q0 -48 38 -81t92 -54t110 -29t90 -8q56 0 110 6t107 14t105 14t104 6h14t21 -1t20 -1h13q16 -6 18 -18t2 -24t-25 -26t-65 -28 t-89 -29t-94 -25t-84 -17t-55 -7q-84 0 -178 14t-172 51t-129 103t-51 170zM322 1146q0 42 32 80t77 72t93 64q44 30 76 54q42 -20 37 -48t-42 -66t-97 -88t-126 -116q-30 0 -40 10t-10 38z" />
<glyph unicode="&#xe2;" horiz-adv-x="1036" d="M38 338q2 34 20 78t56 86t96 75t137 47t180 2t225 -60v20l-2 18q0 52 -30 106t-77 97t-101 70t-104 27q-20 0 -35 -6t-29 -15t-27 -16t-31 -7q-4 0 -4 2l-4 4q-4 4 -11 10t-7 8q0 36 13 62t36 42t52 25t61 9q80 -8 153 -49t134 -103t107 -143t77 -168t41 -175 q12 -92 2 -172q-2 0 -12 1t-22 2t-20 3l-10 2q-42 94 -94 152t-103 91t-95 46t-72 19q-30 0 -71 -4t-85 -14t-89 -27t-80 -41t-56 -57t-21 -77q0 -48 38 -81t92 -54t110 -29t90 -8q56 0 110 6t107 14t105 14t104 6h14t21 -1t20 -1h13q16 -6 18 -18t2 -24t-25 -26t-65 -28 t-89 -29t-94 -25t-84 -17t-55 -7q-84 0 -178 14t-172 51t-129 103t-51 170zM240 1144q56 52 96 84t67 64t46 74t35 114q4 16 17 17t25 1q28 0 42 -13t32 -43q12 -20 34 -45t45 -52t44 -52t33 -41q14 -22 21 -36t11 -25t6 -23t2 -32q0 -28 -6 -44t-34 -16q-30 0 -55 22 t-51 52t-57 63t-69 55q-38 -48 -81 -95t-82 -72t-72 -19t-49 62z" />
<glyph unicode="&#xe3;" horiz-adv-x="1036" d="M38 338q2 34 20 78t56 86t96 75t137 47t180 2t225 -60v20l-2 18q0 52 -30 106t-77 97t-101 70t-104 27q-20 0 -35 -6t-29 -15t-27 -16t-31 -7q-4 0 -4 2l-4 4q-4 4 -11 10t-7 8q0 36 13 62t36 42t52 25t61 9q80 -8 153 -49t134 -103t107 -143t77 -168t41 -175 q12 -92 2 -172q-2 0 -12 1t-22 2t-20 3l-10 2q-42 94 -94 152t-103 91t-95 46t-72 19q-30 0 -71 -4t-85 -14t-89 -27t-80 -41t-56 -57t-21 -77q0 -48 38 -81t92 -54t110 -29t90 -8q56 0 110 6t107 14t105 14t104 6h14t21 -1t20 -1h13q16 -6 18 -18t2 -24t-25 -26t-65 -28 t-89 -29t-94 -25t-84 -17t-55 -7q-84 0 -178 14t-172 51t-129 103t-51 170zM145 1269q7 43 31 74t62 51q36 22 78 22q4 2 15 1t35 -9t63 -28t103 -58q38 -22 60 -24t54 10l20 6q12 4 12 8l122 96q24 -2 37 -10t18 -18t4 -20t-9 -16q-54 -44 -83 -72t-43 -42t-17 -19t-4 -7 t-4 -3t-19 -5q-52 -20 -93 -10t-78 34t-73 53t-78 49q-56 4 -83 -19t-37 -56t-9 -67t-3 -52t-18 -13t-54 53q-16 48 -9 91z" />
<glyph unicode="&#xe4;" horiz-adv-x="1036" d="M38 338q2 34 20 78t56 86t96 75t137 47t180 2t225 -60v20l-2 18q0 52 -30 106t-77 97t-101 70t-104 27q-20 0 -35 -6t-29 -15t-27 -16t-31 -7q-4 0 -4 2l-4 4q-4 4 -11 10t-7 8q0 36 13 62t36 42t52 25t61 9q80 -8 153 -49t134 -103t107 -143t77 -168t41 -175 q12 -92 2 -172q-2 0 -12 1t-22 2t-20 3l-10 2q-42 94 -94 152t-103 91t-95 46t-72 19q-30 0 -71 -4t-85 -14t-89 -27t-80 -41t-56 -57t-21 -77q0 -48 38 -81t92 -54t110 -29t90 -8q56 0 110 6t107 14t105 14t104 6h14t21 -1t20 -1h13q16 -6 18 -18t2 -24t-25 -26t-65 -28 t-89 -29t-94 -25t-84 -17t-55 -7q-84 0 -178 14t-172 51t-129 103t-51 170zM262 1216q0 8 10 24t23 34t29 30q12 12 24 12q32 0 55 -11t37 -27t21 -36t7 -38q0 -12 -10 -27t-26 -28t-35 -22t-39 -9q-22 0 -40 11t-30 26t-19 32t-7 29zM582 1216q0 8 9 24t24 34t30 30t25 12 q30 0 52 -11t37 -27t22 -36t7 -38q0 -12 -10 -27t-25 -28t-36 -22t-39 -9q-22 0 -40 11t-30 26t-19 32t-7 29z" />
<glyph unicode="&#xe5;" horiz-adv-x="1036" d="M38 338q2 34 20 78t56 86t96 75t137 47t180 2t225 -60v20l-2 18q0 52 -30 106t-77 97t-101 70t-104 27q-20 0 -35 -6t-29 -15t-27 -16t-31 -7q-4 0 -4 2l-4 4q-4 4 -11 10t-7 8q0 36 13 62t36 42t51 24l12 4q-16 8 -28 20q-50 46 -50 122q0 44 20 77t52 55t72 34t80 12 q32 0 60 -18t48 -43t32 -54t12 -55q0 -40 -18 -73t-46 -55t-64 -34q-10 -4 -20 -6q28 -12 54 -26q72 -40 133 -102t107 -143t77 -168t41 -175q12 -92 2 -172q-2 0 -12 1t-22 2t-22 3l-8 2q-42 94 -94 152t-103 91t-95 46t-72 19q-30 0 -71 -4t-85 -14t-89 -27t-80 -41 t-56 -57t-21 -77q0 -48 38 -81t92 -54t110 -29t90 -8q56 0 110 6t107 14t105 14t104 6h14q10 0 21 -1t19 -1h14q16 -6 18 -18t2 -24t-25 -26t-65 -28t-89 -29t-94 -25t-84 -17t-55 -7q-84 0 -178 14t-172 51t-129 103t-51 170zM388 1156q0 -50 30 -75t82 -25q14 -2 36 7 t43 23t36 36t14 46t-23 49t-74 47q-28 0 -54 -5t-46 -18t-32 -33t-12 -52z" />
<glyph unicode="&#xe6;" horiz-adv-x="1806" d="M38 338q2 34 20 78t56 86t96 75t137 47t180 2t225 -60v20l-2 18q0 52 -30 106t-77 97t-101 70t-104 27q-20 0 -35 -6t-29 -15t-27 -16t-31 -7q-4 0 -4 2l-4 4q-4 4 -11 10t-7 8q0 36 13 62t36 42t52 25t61 9q80 -8 153 -49t134 -103t107 -144q6 -12 14 -22q30 88 84 152 q60 72 145 114t197 42q66 -8 114 -35t80 -68t46 -95t14 -114q0 -72 -43 -130t-107 -96t-138 -60q-76 -22 -140 -22q-24 0 -48 1t-44 9t-32 24t-12 48q0 10 3 17t17 10t41 1t75 -12q28 0 82 19t109 49t95 68t40 78t-13 78t-39 68t-61 48t-79 16q-70 -6 -127 -38t-98 -83 t-62 -114t-21 -129v-36q20 -64 26 -132q6 -44 6 -88q10 -24 26 -46q30 -44 85 -80t139 -59t208 -29l356 24q-32 -44 -80 -72t-103 -46t-110 -25t-101 -7q-116 0 -218 37t-180 107l-20 18q-6 -8 -16 -12q-26 -14 -66 -27t-89 -28t-94 -25t-84 -17t-55 -7q-84 0 -178 14 t-172 51t-129 103t-51 170zM136 308q0 -48 38 -81t92 -54t110 -29t90 -8q56 0 110 6t107 14t105 14t104 6h14q8 0 16 -2q-30 46 -54 94q-12 24 -20 48q-20 32 -40 56q-52 58 -103 91t-95 46t-72 19q-30 0 -71 -4t-85 -14t-89 -27t-80 -41t-56 -57t-21 -77z" />
<glyph unicode="&#xe7;" horiz-adv-x="920" d="M38 446q0 88 34 171t93 147t137 102t166 38q40 0 85 -9t85 -29t66 -53t26 -83q0 -8 -5 -32t-13 -48t-19 -43t-19 -19q0 94 -52 157t-152 63q-76 0 -136 -32t-100 -84t-61 -117t-21 -133q0 -92 30 -152t82 -97t120 -55t144 -24t152 -4t146 6q6 0 20 -8t20 -10v-6 q0 -4 1 -4t1 -2q0 -22 -22 -38t-54 -26t-70 -14t-75 -7t-65 -3h-40q-90 0 -166 16q8 -20 10 -38q4 -20 -6 -30q0 -64 30 -91t76 -39t100 -18t100 -26t77 -64t31 -132q0 -48 -26 -84t-64 -59t-85 -34t-87 -11q-58 0 -96 16t-67 44t-54 63t-57 73q12 10 23 12t25 2 q32 0 63 -19t58 -41t54 -40t57 -18q32 0 61 -1t47 6t29 30t11 71q2 46 -15 72t-45 41t-63 21t-73 13t-74 20t-64 38t-45 69t-19 112q2 40 8 62q-68 26 -122 70q-64 56 -100 140t-36 202z" />
<glyph unicode="&#xe8;" horiz-adv-x="1056" d="M38 536q0 104 31 199t90 167t144 115t197 43q66 -8 115 -36t80 -69t45 -95q12 -52 12 -112q0 -72 -42 -130t-106 -97t-138 -60t-138 -21h-49t-45 8t-32 24t-12 48q0 10 3 17t17 10t42 1q28 -4 76 -12q28 0 81 19t108 49t95 69t40 77q0 40 -13 79t-39 69t-61 48t-79 14 q-70 -6 -127 -38t-97 -83t-62 -113t-22 -130q0 -52 2 -104t15 -102t42 -96t84 -81t139 -58t208 -29l358 24q-32 -44 -81 -72t-104 -45t-109 -25t-102 -8q-116 0 -218 38t-180 107t-123 168t-45 223zM303 1350q3 14 33 10t102 -40q24 -20 37 -32t24 -22t24 -22t37 -32 q4 -4 12 -18t8 -18q0 -40 -14 -50q-16 -10 -44 -10q-4 0 -10 2t-26 17t-54 44t-90 83q-16 22 -29 48t-10 40z" />
<glyph unicode="&#xe9;" horiz-adv-x="1056" d="M38 536q0 104 31 199t90 167t144 115t197 43q66 -8 115 -36t80 -69t45 -95q12 -52 12 -112q0 -72 -42 -130t-106 -97t-138 -60t-138 -21h-49t-45 8t-32 24t-12 48q0 10 3 17t17 10t42 1q28 -4 76 -12q28 0 81 19t108 49t95 69t40 77q0 40 -13 79t-39 69t-61 48t-79 14 q-70 -6 -127 -38t-97 -83t-62 -113t-22 -130q0 -52 2 -104t15 -102t42 -96t84 -81t139 -58t208 -29l358 24q-32 -44 -81 -72t-104 -45t-109 -25t-102 -8q-116 0 -218 38t-180 107t-123 168t-45 223zM296 1168q0 42 32 80t77 72t93 64q44 30 76 54q42 -20 37 -48t-42 -66 t-97 -88t-126 -116q-30 0 -40 10t-10 38z" />
<glyph unicode="&#xea;" horiz-adv-x="1056" d="M38 536q0 104 31 199t90 167t144 115t197 43q66 -8 115 -36t80 -69t45 -95q12 -52 12 -112q0 -72 -42 -130t-106 -97t-138 -60t-138 -21h-49t-45 8t-32 24t-12 48q0 10 3 17t17 10t42 1q28 -4 76 -12q28 0 81 19t108 49t95 69t40 77q0 40 -13 79t-39 69t-61 48t-79 14 q-70 -6 -127 -38t-97 -83t-62 -113t-22 -130q0 -52 2 -104t15 -102t42 -96t84 -81t139 -58t208 -29l358 24q-32 -44 -81 -72t-104 -45t-109 -25t-102 -8q-116 0 -218 38t-180 107t-123 168t-45 223zM250 1144q56 52 96 84t67 64t46 74t35 114q4 16 17 17t25 1q28 0 42 -13 t32 -43q12 -20 34 -45t45 -52t44 -52t33 -41q14 -22 21 -36t11 -25t6 -23t2 -32q0 -28 -6 -44t-34 -16q-30 0 -55 22t-51 52t-57 63t-69 55q-38 -48 -81 -95t-82 -72t-72 -19t-49 62z" />
<glyph unicode="&#xeb;" horiz-adv-x="1056" d="M38 536q0 104 31 199t90 167t144 115t197 43q66 -8 115 -36t80 -69t45 -95q12 -52 12 -112q0 -72 -42 -130t-106 -97t-138 -60t-138 -21h-49t-45 8t-32 24t-12 48q0 10 3 17t17 10t42 1q28 -4 76 -12q28 0 81 19t108 49t95 69t40 77q0 40 -13 79t-39 69t-61 48t-79 14 q-70 -6 -127 -38t-97 -83t-62 -113t-22 -130q0 -52 2 -104t15 -102t42 -96t84 -81t139 -58t208 -29l358 24q-32 -44 -81 -72t-104 -45t-109 -25t-102 -8q-116 0 -218 38t-180 107t-123 168t-45 223zM222 1190q0 8 10 24t23 34t29 30q12 12 24 12q32 0 55 -11t37 -27t21 -36 t7 -38q0 -12 -10 -27t-26 -28t-35 -22t-39 -9q-22 0 -40 11t-30 26t-19 32t-7 29zM542 1190q0 8 9 24t24 34t30 30t25 12q30 0 52 -11t37 -27t22 -36t7 -38q0 -12 -10 -27t-25 -28t-36 -22t-39 -9q-22 0 -40 11t-30 26t-19 32t-7 29z" />
<glyph unicode="&#xec;" horiz-adv-x="358" d="M32 1208q4 14 34 11t102 -39q24 -20 37 -32t24 -23l23 -23q14 -10 38 -30q4 -4 11 -18t7 -20q0 -40 -14 -49t-42 -9q-4 0 -11 2t-26 16t-53 43t-90 83q-16 22 -30 48t-10 40zM126 692v30q0 22 1 46t1 44v32q-8 62 36 62q20 0 34 -10t26 -30q-6 -104 9 -201t34 -192 t36 -191t17 -200q0 -28 -17 -56t-51 -28q-26 0 -45 45t-33 114t-24 153t-15 161t-7 138t-2 83z" />
<glyph unicode="&#xed;" horiz-adv-x="358" d="M-22 1010q0 42 32 80t76 72t91 64t79 54q42 -20 37 -48t-43 -66t-98 -88t-124 -116q-30 0 -40 10t-10 38zM126 692v30q0 22 1 46t1 44v32q-8 62 36 62q20 0 34 -10t26 -30q-6 -104 9 -201t34 -192t36 -191t17 -200q0 -28 -17 -56t-51 -28q-26 0 -45 45t-33 114t-24 153 t-15 161t-7 138t-2 83z" />
<glyph unicode="&#xee;" horiz-adv-x="358" d="M-98 1144q56 52 96 84t67 64t45 74t38 114q4 16 16 17t24 1q28 0 42 -13t32 -43q12 -20 34 -45t45 -52t44 -52t33 -41q14 -22 22 -36t11 -25t5 -23t2 -32q0 -28 -5 -44t-35 -16t-55 22t-52 52t-57 63t-68 55q-38 -48 -80 -95t-82 -72t-72 -19t-50 62zM126 692v30 q0 22 1 46t1 44v32q-8 62 36 62q20 0 34 -10t26 -30q-6 -104 9 -201t34 -192t36 -191t17 -200q0 -28 -17 -56t-51 -28q-26 0 -45 45t-33 114t-24 153t-15 161t-7 138t-2 83z" />
<glyph unicode="&#xef;" horiz-adv-x="358" d="M-100 1096q0 8 10 24t23 34t28 30t25 12q32 0 55 -11t37 -27t21 -36t7 -38q0 -12 -10 -27t-26 -28t-35 -22t-39 -9q-22 0 -41 11t-31 26t-18 32t-6 29zM126 692v30q0 22 1 46t1 44v32q-8 62 36 62q20 0 34 -10t26 -30q-6 -104 9 -201t34 -192t36 -191t17 -200 q0 -28 -17 -56t-51 -28q-26 0 -45 45t-33 114t-24 153t-15 161t-7 138t-2 83zM220 1096q0 8 9 24t24 34t29 30t26 12q30 0 52 -11t37 -27t22 -36t7 -38q0 -12 -10 -27t-25 -28t-35 -21q-20 -10 -40 -10q-22 0 -41 11t-31 26t-18 32t-6 29z" />
<glyph unicode="&#xf0;" horiz-adv-x="834" d="M48 278q0 70 26 129t71 102t108 66t135 23q38 0 68 -1t58 -4t58 -10t68 -21v10q0 40 -26 89t-66 97q-38 -12 -75 -31t-69 -35t-60 -26t-47 -3t-30 34t-9 83q12 -4 39 7t57 24t59 24t47 7q-28 20 -64 44t-72 45t-68 33q-36 12 -56 12h-8q-8 -2 -23 -10t-30 -17t-27 -17 q-16 -8 -20 -8q-12 0 -20 8t-13 19t-8 24t-3 23q0 24 16 40t38 27t47 15t43 2q56 -4 104 -16t90 -32t82 -54q42 -36 84 -84q42 -4 73 9t55 29t42 29t34 14t32 -17t36 -68q4 -8 -12 -26t-40 -36t-54 -31t-54 -13q32 -44 58 -98t44 -111t29 -113t11 -106q0 -72 -18 -141 t-57 -123t-101 -87t-148 -33q-76 0 -153 16t-139 52t-102 94t-40 142zM154 300q0 -62 28 -101t71 -63t95 -32q52 -10 104 -10q102 8 171 61t89 165q6 50 -21 86t-75 61t-112 36t-130 11q-32 0 -71 -21t-72 -53t-55 -70t-22 -70z" />
<glyph unicode="&#xf1;" horiz-adv-x="942" d="M58 659v121q0 18 13 23t29 5q12 0 17 -6t7 -14t6 -15t14 -7q28 0 68 22t87 48t100 48t105 22q68 0 125 -35t102 -93t77 -130t54 -147t32 -146t10 -123q0 -18 -3 -54t-10 -72t-23 -63t-40 -27q-4 0 -14 1t-20 4t-17 7t-7 12q18 154 0 289t-58 237t-98 162t-124 60 q-62 0 -116 -20t-94 -58t-63 -92t-23 -118t12 -127t27 -126t27 -127t12 -128q-56 0 -94 46t-61 118t-36 162t-18 177t-5 164zM63 1135q7 43 31 74t62 51q36 22 78 22q4 2 15 1t35 -9t63 -28t103 -58q38 -22 60 -24t54 10l20 6q12 4 12 8l122 96q24 -2 37 -10t18 -18t4 -20 t-9 -16q-54 -44 -83 -72t-43 -42t-17 -19t-4 -7t-4 -3t-19 -5q-52 -20 -93 -10t-78 34t-73 53t-78 49q-56 4 -83 -19t-37 -56t-9 -67t-3 -52t-18 -13t-54 53q-16 48 -9 91z" />
<glyph unicode="&#xf2;" d="M38 408q0 110 48 192t126 138t175 83t195 27q52 0 97 -19t86 -52t73 -76t55 -89t35 -93t12 -91q0 -102 -40 -182t-108 -135t-154 -84t-176 -29q-92 0 -169 29t-134 81t-89 129t-32 171zM136 424q0 -62 23 -119t64 -99t97 -67t120 -25q34 -4 83 11t98 44t94 70t75 90 t37 102t-18 106t-91 102t-182 91q-66 0 -137 -19t-129 -57t-96 -96t-38 -134zM387 1126q3 14 33 10t102 -40q24 -20 37 -32t24 -22t24 -22t37 -32q4 -4 12 -18t8 -18q0 -40 -14 -50q-16 -10 -44 -10q-4 0 -10 2t-26 17t-54 44t-90 83q-16 22 -29 48t-10 40z" />
<glyph unicode="&#xf3;" d="M38 408q0 110 48 192t126 138t175 83t195 27q52 0 97 -19t86 -52t73 -76t55 -89t35 -93t12 -91q0 -102 -40 -182t-108 -135t-154 -84t-176 -29q-92 0 -169 29t-134 81t-89 129t-32 171zM136 424q0 -62 23 -119t64 -99t97 -67t120 -25q34 -4 83 11t98 44t94 70t75 90 t37 102t-18 106t-91 102t-182 91q-66 0 -137 -19t-129 -57t-96 -96t-38 -134zM314 970q0 42 32 80t77 72t93 64q44 30 76 54q42 -20 37 -48t-42 -66t-97 -88t-126 -116q-30 0 -40 10t-10 38z" />
<glyph unicode="&#xf4;" d="M38 408q0 110 48 192t126 138t175 83t195 27q52 0 97 -19t86 -52t73 -76t55 -89t35 -93t12 -91q0 -102 -40 -182t-108 -135t-154 -84t-176 -29q-92 0 -169 29t-134 81t-89 129t-32 171zM136 424q0 -62 23 -119t64 -99t97 -67t120 -25q34 -4 83 11t98 44t94 70t75 90 t37 102t-18 106t-91 102t-182 91q-66 0 -137 -19t-129 -57t-96 -96t-38 -134zM204 996q56 52 96 84t67 64t46 74t35 114q4 16 17 17t25 1q28 0 42 -13t32 -43q12 -20 34 -45t45 -52t44 -52t33 -41q14 -22 21 -36t11 -25t6 -23t2 -32q0 -28 -6 -44t-34 -16q-30 0 -55 22 t-51 52t-57 63t-69 55q-38 -48 -81 -95t-82 -72t-72 -19t-49 62z" />
<glyph unicode="&#xf5;" d="M38 408q0 110 48 192t126 138t175 83t195 27q52 0 97 -19t86 -52t73 -76t55 -89t35 -93t12 -91q0 -102 -40 -182t-108 -135t-154 -84t-176 -29q-92 0 -169 29t-134 81t-89 129t-32 171zM136 424q0 -62 23 -119t64 -99t97 -67t120 -25q34 -4 83 11t98 44t94 70t75 90 t37 102t-18 106t-91 102t-182 91q-66 0 -137 -19t-129 -57t-96 -96t-38 -134zM157 961q7 43 31 74t62 51q36 22 78 22q4 2 15 1t35 -9t63 -28t103 -58q38 -22 60 -24t54 10l20 6q12 4 12 8l122 96q24 -2 37 -10t18 -18t4 -20t-9 -16q-54 -44 -83 -72t-43 -42t-17 -19t-4 -7 t-4 -3t-19 -5q-52 -20 -93 -10t-78 34t-73 53t-78 49q-56 4 -83 -19t-37 -56t-9 -67t-3 -52t-18 -13t-54 53q-16 48 -9 91z" />
<glyph unicode="&#xf6;" d="M38 408q0 110 48 192t126 138t175 83t195 27q52 0 97 -19t86 -52t73 -76t55 -89t35 -93t12 -91q0 -102 -40 -182t-108 -135t-154 -84t-176 -29q-92 0 -169 29t-134 81t-89 129t-32 171zM136 424q0 -62 23 -119t64 -99t97 -67t120 -25q34 -4 83 11t98 44t94 70t75 90 t37 102t-18 106t-91 102t-182 91q-66 0 -137 -19t-129 -57t-96 -96t-38 -134zM236 976q0 8 10 24t23 34t29 30q12 12 24 12q32 0 55 -11t37 -27t21 -36t7 -38q0 -12 -10 -27t-26 -28t-35 -22t-39 -9q-22 0 -40 11t-30 26t-19 32t-7 29zM556 976q0 8 9 24t24 34t30 30t25 12 q30 0 52 -11t37 -27t22 -36t7 -38q0 -12 -10 -27t-25 -28t-36 -22t-39 -9q-22 0 -40 11t-30 26t-19 32t-7 29z" />
<glyph unicode="&#xf7;" horiz-adv-x="688" d="M74 356q0 58 26 84t69 33.5t96 7t107 5.5h6q6 0 14 1t16 1h12q28 0 60 -1.5t60 -9t46 -23.5t18 -46q0 -37 -38 -37q-44 0 -81 10t-83 10q-58 0 -95 -6t-69 -12t-69 -11.5t-95 -5.5zM296 644q0 16 4 32t26 16q18 0 35 -12t29 -29t20 -37q4 -20 0 -38q0 -4 -14 -18l-22 -22 q-4 -2 -4 0h-6q-16 0 -29 12t-22 29t-13 35t-4 32zM298 200q0 24 18 38t40 14q24 0 31 -14t7 -38q0 -28 -11 -38t-41 -10q-44 -2 -44 48z" />
<glyph unicode="&#xf8;" d="M38 408q0 110 48 192t126 138t175 83t195 27q32 0 62 -6q4 14 12 30q12 26 31 47t49 25q20 -4 30 -9t14 -13t3 -17t-1 -17q2 -18 -22 -68q-6 -14 -14 -28q6 -8 18 -16q40 -32 73 -75t56 -89t35 -93t12 -91q0 -102 -40 -182t-108 -135t-154 -84t-176 -29q-92 2 -170 30 q-24 8 -44 16q-8 -6 -12 -10q-36 -34 -54 -34q-30 0 -49 14t-19 28q-2 16 14 42q10 16 22 32q-54 48 -82 120q-32 76 -30 172zM136 424q0 -62 23 -119t63 -99l2 -4l24 22l332 490q-20 8 -44 16q-66 0 -137 -19t-129 -57t-96 -96t-38 -134zM328 136q52 -20 112 -22 q34 -4 83 11t98 44t94 70t75 90t37 102t-19 105q-24 56 -92 104q-16 14 -36 24q-28 -48 -62 -102q-46 -78 -98 -156t-104 -152q-48 -66 -88 -118z" />
<glyph unicode="&#xf9;" horiz-adv-x="1028" d="M34 714q-16 108 6 169t53 78t53 -8t6 -87q-4 -8 -6 -25t-4 -35t-4 -34t-2 -22q0 -42 8 -99t25 -119t43 -123t62 -109t83 -78t103 -30q36 0 82 35t87 84t70 101t29 88q0 20 1 66t1 98t-1 98t-1 64q12 20 26 31t34 11q24 0 40 -32t26 -82t14 -108t6 -112t4 -95t6 -55 q10 -40 29 -90t37 -97t32 -86t14 -59q0 -30 -17 -36t-43 -6q-32 0 -47 16t-22 41t-11 55t-13 62t-26 60t-49 46q-46 -26 -79 -63t-67 -70t-75 -57t-105 -24q-72 0 -130 31t-103 84t-78 120t-54 138t-32 140t-11 125zM267 1372q3 14 33 10t102 -40q24 -20 37 -32t24 -22 t24 -22t37 -32q4 -4 12 -18t8 -18q0 -40 -14 -50q-16 -10 -44 -10q-4 0 -10 2t-26 17t-54 44t-90 83q-16 22 -29 48t-10 40z" />
<glyph unicode="&#xfa;" horiz-adv-x="1028" d="M34 714q-16 108 6 169t53 78t53 -8t6 -87q-4 -8 -6 -25t-4 -35t-4 -34t-2 -22q0 -42 8 -99t25 -119t43 -123t62 -109t83 -78t103 -30q36 0 82 35t87 84t70 101t29 88q0 20 1 66t1 98t-1 98t-1 64q12 20 26 31t34 11q24 0 40 -32t26 -82t14 -108t6 -112t4 -95t6 -55 q10 -40 29 -90t37 -97t32 -86t14 -59q0 -30 -17 -36t-43 -6q-32 0 -47 16t-22 41t-11 55t-13 62t-26 60t-49 46q-46 -26 -79 -63t-67 -70t-75 -57t-105 -24q-72 0 -130 31t-103 84t-78 120t-54 138t-32 140t-11 125zM324 1120q0 42 32 80t77 72t93 64q44 30 76 54 q42 -20 37 -48t-42 -66t-97 -88t-126 -116q-30 0 -40 10t-10 38z" />
<glyph unicode="&#xfb;" horiz-adv-x="1028" d="M34 714q-16 108 6 169t53 78t53 -8t6 -87q-4 -8 -6 -25t-4 -35t-4 -34t-2 -22q0 -42 8 -99t25 -119t43 -123t62 -109t83 -78t103 -30q36 0 82 35t87 84t70 101t29 88q0 20 1 66t1 98t-1 98t-1 64q12 20 26 31t34 11q24 0 40 -32t26 -82t14 -108t6 -112t4 -95t6 -55 q10 -40 29 -90t37 -97t32 -86t14 -59q0 -30 -17 -36t-43 -6q-32 0 -47 16t-22 41t-11 55t-13 62t-26 60t-49 46q-46 -26 -79 -63t-67 -70t-75 -57t-105 -24q-72 0 -130 31t-103 84t-78 120t-54 138t-32 140t-11 125zM236 1144q56 52 96 84t67 64t46 74t35 114q4 16 17 17 t25 1q28 0 42 -13t32 -43q12 -20 34 -45t45 -52t44 -52t33 -41q14 -22 21 -36t11 -25t6 -23t2 -32q0 -28 -6 -44t-34 -16q-30 0 -55 22t-51 52t-57 63t-69 55q-38 -48 -81 -95t-82 -72t-72 -19t-49 62z" />
<glyph unicode="&#xfc;" horiz-adv-x="1028" d="M34 714q-16 108 6 169t53 78t53 -8t6 -87q-4 -8 -6 -25t-4 -35t-4 -34t-2 -22q0 -42 8 -99t25 -119t43 -123t62 -109t83 -78t103 -30q36 0 82 35t87 84t70 101t29 88q0 20 1 66t1 98t-1 98t-1 64q12 20 26 31t34 11q24 0 40 -32t26 -82t14 -108t6 -112t4 -95t6 -55 q10 -40 29 -90t37 -97t32 -86t14 -59q0 -30 -17 -36t-43 -6q-32 0 -47 16t-22 41t-11 55t-13 62t-26 60t-49 46q-46 -26 -79 -63t-67 -70t-75 -57t-105 -24q-72 0 -130 31t-103 84t-78 120t-54 138t-32 140t-11 125zM202 1148q0 8 10 24t23 34t29 30q12 12 24 12 q32 0 55 -11t37 -27t21 -36t7 -38q0 -12 -10 -27t-26 -28t-35 -22t-39 -9q-22 0 -40 11t-30 26t-19 32t-7 29zM522 1148q0 8 9 24t24 34t30 30t25 12q30 0 52 -11t37 -27t22 -36t7 -38q0 -12 -10 -27t-25 -28t-36 -22t-39 -9q-22 0 -40 11t-30 26t-19 32t-7 29z" />
<glyph unicode="&#xfd;" d="M35 732q-3 32 1 66t18 60t44 26q8 0 13 -32t12 -83t18 -117t29 -134t44 -134t64 -117t91 -83t121 -32q44 0 92 19t91 49t79 68q36 40 56 78q0 8 -2 38t-4 69t-4 85t-4 87t-3 71t-1 38q4 122 18 149t34 -17t42 -148t41 -243t30 -303t9 -329t-21 -319t-61 -273t-110 -193 t-168 -78q-40 0 -95 15t-111 41t-111 62t-98 78t-70 88t-27 92v27t4 22t12 15q12 4 28 4q30 -34 77 -87t107 -103t126 -88t134 -38q56 2 96 29t68 71t46 100t29 114t16 112t11 94q4 20 9 67t10 104t8 119t-1 113t-16 84t-36 33q-34 0 -72 -20t-79 -45t-83 -45t-82 -20 q-76 0 -139 31t-115 81t-92 117t-67 139t-40 144t-13 136q0 14 -3 46zM310 1104q0 42 32 80t77 72t93 64q44 30 76 54q42 -20 37 -48t-42 -66t-97 -88t-126 -116q-30 0 -40 10t-10 38z" />
<glyph unicode="&#xfe;" horiz-adv-x="1066" d="M57 64q3 102 10 185t7 127q0 24 1 77t1 119t3 139t8 135t13 110q4 46 16 62l98 24l-54 -404q64 46 152 77t184 40t190 -4t168 -58t122 -123t48 -194q0 -80 -30 -133t-82 -82t-115 -39t-129 -10q-44 0 -108 -1t-130 4t-130 18t-108 39q-4 -86 -5 -152t-2 -127t1 -123 t4 -140l-2 -6v-4q-4 -4 -16 -3t-30 4t-34 5t-26 -2q-20 108 -24 223t-1 217zM196 292q48 -8 106 -19t114 -20t106 -17t86 -8q32 0 85 6t100 23t81 46t34 77q0 68 -30 118t-78 84t-108 51t-120 17q-8 0 -39 -5t-71 -13t-84 -22t-81 -32t-61 -42t-24 -54v-24q-4 -40 -8 -81 t-8 -85z" />
<glyph unicode="&#xff;" d="M35 732q-3 32 1 66t18 60t44 26q8 0 13 -32t12 -83t18 -117t29 -134t44 -134t64 -117t91 -83t121 -32q44 0 92 19t91 49t79 68q36 40 56 78q0 8 -2 38t-4 69t-4 85t-4 87t-3 71t-1 38q4 122 18 149t34 -17t42 -148t41 -243t30 -303t9 -329t-21 -319t-61 -273t-110 -193 t-168 -78q-40 0 -95 15t-111 41t-111 62t-98 78t-70 88t-27 92v27t4 22t12 15q12 4 28 4q30 -34 77 -87t107 -103t126 -88t134 -38q56 2 96 29t68 71t46 100t29 114t16 112t11 94q4 20 9 67t10 104t8 119t-1 113t-16 84t-36 33q-34 0 -72 -20t-79 -45t-83 -45t-82 -20 q-76 0 -139 31t-115 81t-92 117t-67 139t-40 144t-13 136q0 14 -3 46zM208 1100q0 8 10 24t23 34t29 30q12 12 24 12q32 0 55 -11t37 -27t21 -36t7 -38q0 -12 -10 -27t-26 -28t-35 -22t-39 -9q-22 0 -40 11t-30 26t-19 32t-7 29zM528 1100q0 8 9 24t24 34t30 30t25 12 q30 0 52 -11t37 -27t22 -36t7 -38q0 -12 -10 -27t-25 -28t-36 -22t-39 -9q-22 0 -40 11t-30 26t-19 32t-7 29z" />
<glyph unicode="&#x152;" horiz-adv-x="1738" d="M38 564q-4 88 23 164t77 134t122 94t158 44q76 -12 136 -32t104 -47t75 -62t53 -75v124q0 24 7 37t34 18t77 4t135 -3t211 -5t306 -1q20 -6 40 -13t37 -17t28 -24t11 -34q0 -4 -8 -10q-8 -4 -12 -4l-96 28l-648 -14q-8 0 -14 2q10 -16 10 -22v-276q10 -10 59 -11t115 5 t140 15t138 18t108 14t48 3q6 0 23 1t36 2t36 2t23 1q0 -28 -31 -48t-81 -32t-115 -21t-133 -14t-134 -8t-119 -7t-87 -9t-36 -13q-10 -26 -15 -55t-6 -61t-1 -64v-56v-20q0 -16 1 -32t1 -32v-16q8 -16 35 -24t59 -9t62 0t42 1q136 0 272 16t272 16h12q8 -2 30 -7t26 -9 q4 -2 13 -6t9 -8q0 -28 -42 -47t-107 -31t-142 -18t-146 -7t-121 -1h-64q-106 0 -179 18t-111 66q-20 -34 -63 -52t-123 -30q-124 0 -229 41t-180 114t-118 176t-43 229zM132 572q-2 -92 39 -171t107 -140t148 -99t164 -50q40 0 73 23t56 64t36 100t13 131q-20 148 -65 240 t-105 141t-128 61t-134 0q-62 -22 -101 -57t-62 -75t-32 -84t-9 -84z" />
<glyph unicode="&#x153;" horiz-adv-x="1794" d="M38 408q0 110 48 192t126 138t175 83t195 27q52 0 97 -19t85 -53q40 -32 72 -76l8 -8q30 76 78 138q60 72 146 115t196 43q66 -8 115 -36t81 -69t46 -94t12 -113q0 -72 -43 -130t-107 -97t-138 -60t-138 -21h-49t-44 8t-31 24t-12 48q0 10 3 17t16 10t41 1q26 -4 76 -12 q28 0 82 19t108 49t95 69t41 77q0 40 -14 79t-39 69t-61 48t-78 14q-70 -6 -128 -38t-98 -83t-62 -113q-16 -52 -22 -102q8 -18 12 -34q14 -46 12 -90q0 -52 -10 -98q2 -6 2 -14q14 -50 43 -95t84 -80t139 -57q86 -24 210 -30l356 24q-32 -44 -80 -72t-103 -45t-110 -25 t-101 -8q-116 0 -219 38t-181 106q-58 54 -100 124q-32 -48 -78 -84q-68 -56 -154 -85t-176 -29q-92 0 -169 29t-134 81t-89 129t-32 171zM136 424q0 -62 23 -119t64 -99t97 -67t120 -25q34 -4 83 11t98 44t94 70t73 89q12 20 20 40q-6 46 -6 96q0 40 4 76q-26 52 -90 100 q-64 50 -180 90q-66 0 -137 -19t-129 -57t-96 -96t-38 -134z" />
<glyph unicode="&#x178;" horiz-adv-x="826" d="M36 1310q2 0 11 1t20 2t21 3h12q14 -40 38 -90t59 -102t77 -101t89 -88t98 -62t105 -23q36 80 57 127t33 73t16 39t6 28t4 36t10 65q0 8 16 17t33 11t32 -4t15 -24q0 -110 -24 -209t-60 -193t-76 -187t-70 -191t-43 -204t5 -226q-12 -22 -24 -31t-32 -9t-34 9t-26 31v21 v32v32v21q0 86 9 153t24 131t37 131t46 151q0 4 1 15t1 15q4 2 -35 20t-95 51t-122 83t-121 116t-88 148t-25 182zM160 1462q0 8 10 24t23 34t29 30q12 12 24 12q32 0 55 -11t37 -27t21 -36t7 -38q0 -12 -10 -27t-26 -28t-35 -22t-39 -9q-22 0 -40 11t-30 26t-19 32t-7 29z M480 1462q0 8 9 24t24 34t30 30t25 12q30 0 52 -11t37 -27t22 -36t7 -38q0 -12 -10 -27t-25 -28t-36 -22t-39 -9q-22 0 -40 11t-30 26t-19 32t-7 29z" />
<glyph unicode="&#x2c6;" horiz-adv-x="768" d="M100 1144q56 52 96 84t67 64t46 74t35 114q4 16 17 17t25 1q28 0 42 -13t32 -43q12 -20 34 -45t45 -52t44 -52t33 -41q14 -22 21 -36t11 -25t6 -23t2 -32q0 -28 -6 -44t-34 -16q-30 0 -55 22t-51 52t-57 63t-69 55q-38 -48 -81 -95t-82 -72t-72 -19t-49 62z" />
<glyph unicode="&#x2dc;" horiz-adv-x="824" d="M47 961q7 43 31 74t62 51q36 22 78 22q4 2 15 1t35 -9t63 -28t103 -58q38 -22 60 -24t54 10l20 6q12 4 12 8l122 96q24 -2 37 -10t18 -18t4 -20t-9 -16q-54 -44 -83 -72t-43 -42t-17 -19t-4 -7t-4 -3t-19 -5q-52 -20 -93 -10t-78 34t-73 53t-78 49q-56 4 -83 -19t-37 -56 t-9 -67t-3 -52t-18 -13t-54 53q-16 48 -9 91z" />
<glyph unicode="&#x2000;" horiz-adv-x="994" />
<glyph unicode="&#x2001;" horiz-adv-x="1988" />
<glyph unicode="&#x2002;" horiz-adv-x="994" />
<glyph unicode="&#x2003;" horiz-adv-x="1988" />
<glyph unicode="&#x2004;" horiz-adv-x="662" />
<glyph unicode="&#x2005;" horiz-adv-x="497" />
<glyph unicode="&#x2006;" horiz-adv-x="331" />
<glyph unicode="&#x2007;" horiz-adv-x="331" />
<glyph unicode="&#x2008;" horiz-adv-x="248" />
<glyph unicode="&#x2009;" horiz-adv-x="397" />
<glyph unicode="&#x200a;" horiz-adv-x="110" />
<glyph unicode="&#x2010;" horiz-adv-x="768" d="M30 494q0 48 22 76t58 45t81 23t93 7t94 2t82 5h6t14 1t16 1h12q28 0 60 -1t60 -11t46 -29t18 -55q0 -42 -38 -42q-44 0 -81 11t-83 11q-58 0 -115 -7t-115 -15t-115 -15t-115 -7z" />
<glyph unicode="&#x2011;" horiz-adv-x="768" d="M30 494q0 48 22 76t58 45t81 23t93 7t94 2t82 5h6t14 1t16 1h12q28 0 60 -1t60 -11t46 -29t18 -55q0 -42 -38 -42q-44 0 -81 11t-83 11q-58 0 -115 -7t-115 -15t-115 -15t-115 -7z" />
<glyph unicode="&#x2012;" horiz-adv-x="768" d="M30 494q0 48 22 76t58 45t81 23t93 7t94 2t82 5h6t14 1t16 1h12q28 0 60 -1t60 -11t46 -29t18 -55q0 -42 -38 -42q-44 0 -81 11t-83 11q-58 0 -115 -7t-115 -15t-115 -15t-115 -7z" />
<glyph unicode="&#x2013;" horiz-adv-x="588" d="M30 494q0 70 26 101t69 40t96 8t107 7h6q6 0 14 1t16 1h12q28 0 60 -2t60 -11t46 -28t18 -55q0 -44 -38 -44q-44 0 -81 12t-83 12q-58 0 -95 -7t-69 -14t-69 -14t-95 -7z" />
<glyph unicode="&#x2014;" horiz-adv-x="1050" d="M30 494q0 46 43 75t112 44t152 21t163 8t148 2t104 4q2 0 19 1t25 1q28 0 62 -2t61 -11t45 -28t18 -55q-2 -42 -38 -42q-44 0 -81 11t-83 11q-40 0 -99 -3t-129 -7t-146 -10t-147 -10t-131 -7t-98 -3z" />
<glyph unicode="&#x2018;" horiz-adv-x="210" d="M40 1384v40v21t4 16t12 15l20 20q22 -12 39 -42t28 -69t17 -86t10 -92t5 -83t1 -62q0 -28 -4 -46t-36 -18q-26 0 -43 30t-28 75t-16 99t-7 102t-2 80z" />
<glyph unicode="&#x2019;" horiz-adv-x="210" d="M40 1384v40v21t4 16t12 15l20 20q22 -12 39 -42t28 -69t17 -86t10 -92t5 -83t1 -62q0 -28 -4 -46t-36 -18q-26 0 -43 30t-28 75t-16 99t-7 102t-2 80z" />
<glyph unicode="&#x201a;" horiz-adv-x="210" d="M48 324v40q0 12 1 20t4 15t11 16t22 21q22 -12 38 -42t28 -70t18 -88t10 -92t4 -82v-62q0 -28 -4 -46t-36 -18q-26 0 -43 30t-27 76t-16 100t-8 102t-2 80z" />
<glyph unicode="&#x201c;" horiz-adv-x="480" d="M20 1556q6 16 17 18t23 2q20 0 36 -29t30 -76t27 -103l26 -112t26 -104t27 -76q-12 -24 -24 -32t-34 -8q-28 0 -50 32t-39 82t-29 112t-20 119t-11 105t-5 70zM290 1536v76q2 4 8 12l10 10h6l4 2q26 0 44 -38t30 -94t18 -123t10 -126t4 -101v-50v-68q-4 -6 -18 -20 q-14 -12 -20 -16l-6 -2h-4q-14 0 -25 14t-21 32t-16 33t-6 19q-4 68 -8 124t-6 107t-3 101t-1 108z" />
<glyph unicode="&#x201d;" horiz-adv-x="480" d="M20 1556q6 16 17 18t23 2q20 0 36 -29t30 -76t27 -103l26 -112t26 -104t27 -76q-12 -24 -24 -32t-34 -8q-28 0 -50 32t-39 82t-29 112t-20 119t-11 105t-5 70zM290 1536v76q2 4 8 12l10 10h6l4 2q26 0 44 -38t30 -94t18 -123t10 -126t4 -101v-50v-68q-4 -6 -18 -20 q-14 -12 -20 -16l-6 -2h-4q-14 0 -25 14t-21 32t-16 33t-6 19q-4 68 -8 124t-6 107t-3 101t-1 108z" />
<glyph unicode="&#x201e;" horiz-adv-x="700" d="M148 300q6 16 17 18t23 2q20 0 37 -30t31 -76t27 -103t25 -112t25 -103t29 -78q-12 -22 -25 -30t-33 -8q-28 0 -50 32t-39 82t-29 112t-20 120t-12 105t-6 69zM418 280v76q2 4 10 11t10 9h4l6 2q26 0 43 -37t29 -94t19 -124t10 -125t4 -100t1 -50v-68q-4 -8 -19 -22 t-21 -16l-4 -2h-6q-14 0 -25 14t-20 32t-15 33t-6 19q-4 68 -8 125t-6 108t-4 100t-2 109z" />
<glyph unicode="&#x2022;" horiz-adv-x="700" d="M214 528q0 18 17 50t41 65t48 57q28 24 44 24q54 0 93 -21t64 -54t38 -71t13 -70q0 -24 -18 -54t-46 -57t-62 -45t-68 -18q-40 0 -69 22t-51 53t-33 64t-11 55z" />
<glyph unicode="&#x2026;" horiz-adv-x="1254" d="M90 192q0 16 13 48t31 65t37 57t33 24q40 0 70 -21t49 -53t29 -70t10 -70q0 -24 -14 -54t-35 -56t-47 -44t-52 -18q-30 0 -52 21t-39 52t-25 64t-8 55zM508 192q0 16 13 48t31 65t37 57t33 24q40 0 70 -21t49 -53t28 -70t9 -70q0 -24 -13 -54t-33 -56t-48 -44t-52 -18 q-30 0 -52 21t-39 52t-25 64t-8 55zM926 192q0 16 13 48t31 65t37 57t33 24q40 0 70 -21t49 -53t28 -70t9 -70q0 -24 -13 -54t-34 -56t-47 -44t-52 -18q-30 0 -52 21t-39 52t-25 64t-8 55z" />
<glyph unicode="&#x202f;" horiz-adv-x="397" />
<glyph unicode="&#x2039;" d="M9 190q-13 18 11 42l134 134q4 2 32 23t74 52t102 71t113 80t109 76t90 60q20 16 47 32t55 32t56 29t52 23q4 -4 13 -11t18 -16l17 -17t10 -12q0 -2 -24 -20t-62 -43t-83 -56t-86 -58t-72 -47t-37 -28q-44 -30 -93 -59t-97 -62t-94 -69t-82 -78q4 -8 30 -17t62 -17 t77 -15t78 -13t64 -10t35 -4l78 -12t104 -24t91 -42t39 -66q0 -48 -52 -48q-20 0 -41 8t-42 17t-41 19t-40 14q-16 4 -56 8l-94 10q-54 6 -117 14t-125 17t-116 22t-89 28t-48 33z" />
<glyph unicode="&#x203a;" horiz-adv-x="826" d="M56 68q4 18 39 49t86 68t114 80t123 85t113 84t83 78t34 64t-32 40q-36 2 -89 13t-112 32t-119 48t-110 57t-84 60t-44 58q0 2 -1 9t-1 11q0 26 20 32q16 8 40 8q32 0 55 -14t43 -33t43 -40t51 -31q104 -40 225 -79t237 -55q32 -10 36 -29t4 -43q8 -36 -4 -66t-34 -55 t-49 -48t-49 -47q-10 -8 -56 -42t-107 -80t-130 -95t-128 -91t-100 -70t-49 -28q-34 0 -41 21t-7 49z" />
<glyph unicode="&#x205f;" horiz-adv-x="497" />
<glyph unicode="&#x20ac;" horiz-adv-x="1518" d="M-2 880q0 60 35 92t93 45t127 15t138 3t129 8t96 33q68 46 132 106t134 114t146 91t168 37q52 0 92 -28t40 -86q0 -20 -2 -42t-20 -40q-14 12 -24 29t-21 32t-25 27q-12 12 -32 12q-4 0 -33 -10t-71 -26t-90 -36t-89 -41t-68 -43t-27 -38v-22q26 -4 77 -13t103 -25 t91 -39t39 -55q0 -20 -15 -29t-35 -9h-10q-4 0 -14 3t-23 6t-24 6t-15 3h-12h-8q-4 0 -12 -3t-18 -6t-18 -6t-10 -3h-10q-20 0 -36 3t-31 7t-33 7t-42 3q-52 0 -98 -19t-80 -53t-54 -80t-20 -102q0 -22 13 -31t35 -9q50 0 98 7t98 16t99 15t101 6q20 0 41 1t41 -1t38 -11 t32 -27q-16 -28 -38 -41t-47 -15t-53 -2q-26 4 -54 0q-16 -4 -47 -8t-71 -10t-84 -12t-84 -12t-72 -10q-28 -4 -44 -6q-34 -4 -46 -30t-12 -56q0 -76 14 -141t48 -113t89 -76t137 -28q80 0 163 15t165 34t164 34t160 15q40 0 51 -10t11 -36q0 -22 -42 -44t-108 -40t-147 -34 t-158 -27t-142 -17t-97 -6q-118 0 -191 39t-115 97t-60 125t-27 125t-18 97t-31 39q-76 0 -152 -13t-156 -13v82l12 4l25 5t31 6t28 5h20q20 2 51 5t61 5t53 6t27 4q12 2 33 9t25 9l96 270q2 4 -14 10t-26 6h-8q-8 0 -19 1t-23 1h-16q-48 0 -95 -7l-94 -14l-94 -14t-95 -7z " />
<glyph unicode="&#x2122;" horiz-adv-x="2286" d="M6 1252h112t190 -3t239 -8t254 -14t238 -22t193 -33q-4 20 -4 38q0 42 40 42q50 0 84 -30t60 -72t51 -94t57 -94t75 -72t107 -30q80 -4 133 25t87 74t54 98t37 98t35 73t46 22q22 4 34 -10t18 -35t6 -41v-28q0 -76 -12 -145t-12 -147q0 -102 16 -202t34 -201t34 -201 t16 -200q0 -16 -5 -26t-13 -14t-19 -4h-21q-26 0 -47 6t-29 38q-4 20 -8 64t-10 98t-12 115t-12 116t-11 98t-5 65q-4 20 -4 50t-4 62t-16 60t-34 40q-74 -40 -144 -60t-152 -20q-116 0 -234 144q-8 0 -12 -12t-6 -28t-1 -34t1 -30l-2 -668q0 -24 -24 -34t-42 -10 q-30 0 -42 27t-16 53v288q0 132 12 260t12 260q0 26 -8 49t-20 43q-70 6 -138 25t-137 35t-141 20t-146 -16q0 -92 11 -202t26 -224t34 -228t37 -214q4 -26 17 -51t27 -48t24 -47t10 -48q0 -16 -10 -25t-24 -12t-30 -3h-26q-40 0 -63 32t-35 75t-16 89t-8 74 q-16 110 -28 213t-21 206t-16 208t-15 217q-140 0 -289 19t-285 41q-18 -4 -28 5t-16 24t-7 29t-1 22z" />
<glyph unicode="&#x25fc;" horiz-adv-x="790" d="M0 0v790h790v-790h-790z" />
<glyph unicode="&#xfb01;" horiz-adv-x="1130" d="M-18 558q0 34 24 52t58 26t71 11t61 5q-4 60 -6 142t8 170t33 173t66 153t109 110t162 42q54 0 118 -27t119 -71t91 -99t36 -111h-46q-40 0 -71 30t-65 67t-72 67t-86 30q-68 0 -124 -30t-96 -80t-60 -112t-20 -126v-20l36 -286q4 -4 22 -7t57 -8t104 -11t165 -12h4v44 q0 22 1 47t1 45v32q-8 62 38 62q20 0 34 -10q14 -12 26 -32q-6 -104 8 -201t34 -191t37 -190t17 -200q0 -28 -16 -56t-52 -28q-26 0 -46 45t-33 114t-23 153t-16 160q-4 58 -6 106q-16 -6 -36 -10q-44 -8 -110 -7t-144 17q0 -76 35 -142t77 -126t78 -116t36 -112 q0 -26 -16 -34q-12 -8 -36 -8q-20 0 -43 15t-42 37t-35 46q-14 24 -22 40l-23 46l-35 70t-40 83t-39 83t-33 72q-16 30 -22 46l-22 22q-10 -4 -37 -9t-57 -11t-58 -12t-40 -6h-10q-16 0 -22 11t-6 27zM580 1154q0 24 13 31t35 7q14 2 37 -17t39 -43t18 -46t-30 -26h-12 q-30 0 -49 3t-30 13t-16 28t-5 50z" />
<glyph unicode="&#xfb02;" horiz-adv-x="1482" d="M-18 558q0 34 24 52t58 26t71 11t61 5q-4 60 -6 142t8 170t33 173t66 153t109 110t162 42q54 0 118 -27t119 -71t91 -99t36 -111h-46q-40 0 -71 30t-65 67t-72 67t-86 30q-68 0 -124 -30t-96 -80t-60 -112t-20 -126v-20l36 -286q4 -4 22 -7t57 -8t103 -11q54 -6 134 -10 q2 104 6 206q4 140 2 282q0 16 12 23t28 7q18 0 32 -14t24 -33t15 -38t5 -31q12 -286 16 -477t0 -308t-13 -173t-23 -77t-33 -17t-39 8q-20 142 -26 284q-6 124 -6 246q-44 -6 -106 -6q-66 0 -144 16q0 -76 35 -142t77 -126t78 -116t36 -112q0 -26 -16 -34q-12 -8 -36 -8 q-20 0 -43 15t-42 37t-35 46q-14 24 -22 40l-23 46l-35 70t-40 83t-39 83t-33 72q-16 30 -22 46l-22 22q-10 -4 -37 -9t-57 -11t-58 -12t-40 -6h-10q-16 0 -22 11t-6 27z" />
</font>
</defs>
</svg>
